{"glyphs":{"0":{"ha":800,"x_min":96,"x_max":880,"o":"m 845 467 q 790 296 821 370 q 725 169 760 222 q 648 79 689 115 q 562 22 608 43 q 466 -8 516 1 q 361 -17 416 -17 q 251 3 300 -17 q 168 60 202 22 q 114 155 133 98 q 96 285 96 212 q 98 334 96 309 q 104 386 100 359 q 114 442 108 412 q 129 505 121 471 q 214 742 164 647 q 326 893 264 836 q 460 973 388 949 q 614 997 533 997 q 812 921 743 997 q 880 697 880 845 q 878 646 880 671 q 872 592 876 620 q 861 533 867 564 q 845 467 854 503 m 650 463 q 676 579 667 529 q 685 673 685 629 q 680 741 685 710 q 661 795 674 772 q 625 830 647 817 q 569 842 602 842 q 492 824 528 842 q 427 765 457 805 q 371 662 397 724 q 324 512 346 600 q 301 399 309 448 q 293 308 293 351 q 298 236 293 267 q 317 182 304 204 q 352 149 330 160 q 407 138 374 138 q 483 156 448 138 q 548 213 518 174 q 603 314 578 252 q 650 463 629 376 z "},"1":{"ha":800,"x_min":85,"x_max":728,"o":"m 488 785 l 273 684 l 293 858 l 537 980 l 724 980 l 519 158 l 728 158 l 688 0 l 85 0 l 124 158 l 332 158 l 488 785 z "},"2":{"ha":800,"x_min":34,"x_max":851,"o":"m 699 0 l 34 0 l 71 148 q 206 230 138 185 q 338 324 275 275 q 458 423 402 372 q 555 524 513 474 q 620 619 596 573 q 644 705 644 665 q 636 753 644 730 q 613 792 629 775 q 573 819 597 809 q 517 829 549 829 q 453 820 487 829 q 385 794 420 811 q 317 755 351 778 q 254 705 283 732 l 246 866 q 312 918 274 895 q 392 960 349 942 q 482 987 435 977 q 574 997 528 997 q 691 979 640 997 q 779 930 743 962 q 832 857 814 899 q 851 763 851 814 q 831 650 851 705 q 774 543 810 595 q 689 441 739 491 q 581 344 640 391 q 457 252 522 296 q 326 165 393 207 l 505 165 q 591 165 555 165 q 652 166 626 165 q 700 169 679 168 q 742 174 720 171 l 699 0 z "},"3":{"ha":800,"x_min":49,"x_max":879,"o":"m 433 594 q 523 606 479 594 q 602 638 567 618 q 657 686 636 659 q 679 746 679 714 q 670 783 679 766 q 645 812 661 800 q 606 832 629 825 q 555 839 583 839 q 480 834 515 839 q 411 817 445 829 q 344 784 378 804 q 275 735 311 764 l 290 890 q 348 932 315 913 q 418 966 381 952 q 497 989 456 981 q 581 997 538 997 q 700 982 646 997 q 794 941 755 967 q 857 877 834 914 q 879 795 879 840 q 853 697 879 742 q 788 617 828 652 q 697 559 747 583 q 598 524 648 535 q 662 502 628 518 q 723 460 695 486 q 770 399 751 434 q 789 319 789 363 q 754 180 789 243 q 659 74 719 118 q 519 7 599 31 q 351 -17 440 -17 q 173 11 250 -17 q 49 87 95 38 l 118 272 q 226 175 159 210 q 391 141 294 141 q 466 152 429 141 q 532 184 503 163 q 579 236 561 205 q 597 307 597 267 q 584 356 597 333 q 545 396 571 379 q 481 424 519 414 q 393 433 444 433 l 332 433 l 372 594 l 433 594 z "},"4":{"ha":800,"x_min":44,"x_max":878,"o":"m 261 382 l 549 382 l 647 775 l 261 382 m 692 232 l 634 0 l 454 0 l 512 232 l 44 232 l 81 382 l 641 980 l 878 980 l 729 382 l 838 382 l 800 232 l 692 232 z "},"5":{"ha":800,"x_min":40,"x_max":902,"o":"m 857 802 q 817 809 839 806 q 772 813 795 812 q 726 815 749 814 q 681 816 702 816 l 457 816 l 404 601 q 427 609 413 605 q 458 617 441 613 q 492 623 474 621 q 525 625 509 625 q 632 607 584 625 q 713 557 680 589 q 765 480 747 525 q 783 382 783 436 q 746 217 783 291 q 647 91 709 143 q 501 11 584 39 q 328 -17 418 -17 q 166 -1 238 -17 q 40 54 94 14 l 114 241 q 214 169 159 193 q 341 144 269 144 q 430 158 386 144 q 510 196 475 171 q 566 259 545 222 q 588 344 588 296 q 575 400 588 375 q 541 441 563 425 q 489 468 519 458 q 424 477 459 477 q 313 467 370 477 q 186 433 256 457 l 322 980 l 902 980 l 857 802 z "},"6":{"ha":800,"x_min":123,"x_max":913,"o":"m 509 477 q 399 459 450 477 q 304 408 349 441 q 303 385 304 397 q 303 361 303 373 q 313 275 303 315 q 342 205 323 235 q 391 158 362 175 q 459 141 420 141 q 532 155 498 141 q 591 193 566 169 q 632 248 617 216 q 647 316 647 280 q 638 375 647 347 q 611 427 629 404 q 568 463 594 450 q 509 477 542 477 m 827 759 q 790 796 811 781 q 745 821 768 811 q 696 834 721 830 q 646 839 671 839 q 556 819 603 839 q 465 760 509 799 q 385 665 421 722 q 328 536 349 609 q 433 598 378 575 q 551 621 488 621 q 663 597 614 621 q 747 534 713 574 q 800 444 782 495 q 819 338 819 393 q 788 195 819 260 q 706 82 758 130 q 583 9 653 35 q 431 -17 512 -17 q 306 9 363 -17 q 209 82 250 35 q 145 194 168 129 q 123 339 123 260 q 140 499 123 419 q 191 652 157 578 q 272 788 224 725 q 384 898 321 851 q 522 970 446 944 q 686 997 597 997 q 812 981 756 997 q 913 930 869 965 l 827 759 z "},"7":{"ha":800,"x_min":119,"x_max":983,"o":"m 119 0 q 219 175 172 95 q 312 324 267 254 q 402 455 357 393 q 494 575 447 516 q 593 692 542 633 q 705 812 645 750 l 481 812 q 323 810 385 812 q 220 799 260 807 l 264 980 l 983 980 l 949 846 q 762 642 848 744 q 598 436 675 541 q 455 224 522 332 q 326 0 387 115 l 119 0 z "},"8":{"ha":800,"x_min":73,"x_max":867,"o":"m 404 124 q 485 140 445 124 q 555 183 524 156 q 605 247 587 210 q 624 323 624 283 q 613 380 624 355 q 584 422 603 405 q 538 448 565 439 q 479 456 511 456 q 399 441 439 456 q 327 400 359 427 q 274 338 294 374 q 254 260 254 302 q 264 205 254 231 q 294 162 275 180 q 341 134 313 144 q 404 124 369 124 m 515 601 q 583 614 551 601 q 641 649 616 627 q 682 701 667 671 q 697 764 697 730 q 670 839 697 812 q 582 866 642 866 q 515 854 547 866 q 457 820 482 842 q 417 768 432 798 q 402 704 402 739 q 431 627 402 653 q 515 601 460 601 m 368 -17 q 253 1 307 -17 q 159 52 199 19 q 96 130 119 84 q 73 231 73 176 q 93 334 73 288 q 145 418 112 380 q 222 484 178 455 q 316 534 266 512 q 288 557 302 543 q 262 592 274 572 q 244 639 251 613 q 237 697 237 665 q 252 786 237 745 q 293 860 267 827 q 356 919 320 893 q 434 962 392 944 q 522 988 476 979 q 614 997 568 997 q 716 981 669 997 q 796 938 762 966 q 848 872 829 911 q 867 789 867 834 q 853 708 867 746 q 814 638 839 670 q 756 580 789 606 q 686 534 723 554 q 726 504 706 522 q 764 461 747 486 q 791 405 781 436 q 802 338 802 374 q 784 235 802 283 q 737 149 767 188 q 666 78 707 109 q 576 26 625 47 q 475 -6 528 5 q 368 -17 422 -17 z "},"9":{"ha":800,"x_min":81,"x_max":874,"o":"m 494 530 q 596 551 543 530 q 696 606 649 572 q 698 654 698 629 q 659 790 698 742 q 543 839 620 839 q 471 826 505 839 q 410 789 436 813 q 368 729 383 764 q 352 648 352 693 q 387 561 352 591 q 494 530 422 530 m 161 229 q 199 191 177 207 q 246 163 221 174 q 297 146 271 152 q 348 141 323 141 q 436 163 388 141 q 529 227 484 184 q 614 332 575 269 q 675 476 652 395 q 559 411 619 435 q 437 387 498 387 q 326 406 374 387 q 243 459 277 426 q 191 537 209 493 q 173 632 173 582 q 189 731 173 684 q 233 819 205 779 q 298 893 260 860 q 379 949 336 926 q 470 984 422 972 q 565 997 517 997 q 708 970 649 997 q 804 899 767 944 q 858 793 841 854 q 874 664 874 732 q 857 508 874 588 q 806 353 840 429 q 725 210 773 277 q 613 93 676 143 q 474 13 550 42 q 309 -17 397 -17 q 244 -11 276 -17 q 182 5 212 -5 q 127 28 153 15 q 81 57 101 42 l 161 229 z "}," ":{"ha":359,"x_min":0,"x_max":0,"o":""},"!":{"ha":515,"x_min":136,"x_max":598,"o":"m 136 79 q 148 132 136 106 q 179 177 159 157 q 225 207 199 196 q 281 218 252 218 q 322 211 304 218 q 353 191 340 203 q 373 161 366 178 q 380 123 380 143 q 369 70 380 95 q 338 25 358 44 q 292 -6 319 5 q 236 -17 266 -17 q 196 -10 214 -17 q 164 10 178 -3 q 144 41 151 23 q 136 79 136 58 m 229 336 q 263 483 245 409 q 299 638 281 557 q 335 812 317 720 q 371 1014 353 905 l 598 1014 q 533 812 561 905 q 483 638 505 720 q 441 483 460 557 q 402 336 422 409 l 229 336 z "},"\"":{"ha":722,"x_min":321,"x_max":798,"o":"m 565 702 q 581 775 572 737 q 598 857 589 813 q 615 951 607 900 q 631 1064 624 1002 l 798 1064 q 758 951 774 1002 q 727 857 741 900 q 704 775 714 813 q 684 702 694 737 l 565 702 m 321 702 q 337 775 328 737 q 354 857 345 813 q 371 951 363 900 q 387 1064 380 1002 l 553 1064 q 513 951 530 1002 q 483 857 496 900 q 460 775 470 813 q 439 702 450 737 l 321 702 z "},"#":{"ha":800,"x_min":11,"x_max":937,"o":"m 361 427 l 520 427 l 595 570 l 436 570 l 361 427 m 183 711 l 347 711 l 452 913 l 615 913 l 509 711 l 669 711 l 774 913 l 937 913 l 831 711 l 923 711 l 888 570 l 758 570 l 683 427 l 812 427 l 777 286 l 610 286 l 496 67 l 333 67 l 447 286 l 288 286 l 174 67 l 11 67 l 125 286 l 37 286 l 72 427 l 198 427 l 273 570 l 148 570 l 183 711 z "},"$":{"ha":800,"x_min":90,"x_max":848,"o":"m 401 689 q 405 667 401 678 q 417 645 408 656 q 440 621 425 633 q 476 593 454 608 l 527 796 q 468 785 492 793 q 429 762 444 776 q 408 730 414 748 q 401 689 401 711 m 597 258 q 581 311 597 284 q 519 370 565 338 l 463 144 q 527 157 501 147 q 568 181 553 166 q 591 215 584 195 q 597 258 597 235 m 769 723 q 710 762 741 745 q 644 787 680 778 l 580 529 q 661 471 627 500 q 716 410 694 441 q 749 343 739 378 q 760 269 760 308 q 734 161 760 208 q 665 79 709 113 q 560 26 621 45 q 428 1 499 6 l 391 -148 l 271 -148 l 309 5 q 188 38 241 14 q 90 97 135 62 l 176 264 q 249 197 205 228 q 346 151 292 165 l 416 431 q 279 540 323 482 q 234 667 234 597 q 255 769 234 723 q 318 850 277 816 q 420 906 359 885 q 560 931 481 927 l 596 1074 l 715 1074 l 680 929 q 768 913 726 924 q 848 884 809 903 l 769 723 z "},"%":{"ha":1048,"x_min":150,"x_max":1076,"o":"m 1035 237 q 987 114 1017 163 q 922 36 958 65 q 842 -5 885 7 q 751 -17 798 -17 q 682 -6 713 -17 q 628 27 651 5 q 593 82 606 49 q 581 161 581 116 q 584 208 581 183 q 594 262 587 233 q 642 381 612 333 q 710 460 671 430 q 792 504 748 490 q 884 517 837 517 q 951 506 921 517 q 1003 472 982 494 q 1037 416 1025 450 q 1048 340 1048 383 q 1045 291 1048 317 q 1035 237 1042 266 m 891 229 q 910 353 910 304 q 859 430 910 430 q 823 422 840 430 q 791 396 806 414 q 764 347 777 378 q 739 270 751 316 q 722 154 722 201 q 776 71 722 71 q 811 78 795 71 q 841 103 827 85 q 867 152 855 121 q 891 229 880 182 m 628 715 q 579 591 610 640 q 512 513 549 543 q 430 472 474 484 q 338 460 385 460 q 271 470 301 460 q 218 503 240 481 q 185 556 197 524 q 173 633 173 589 q 188 739 173 680 q 234 859 205 810 q 300 937 263 907 q 380 980 337 967 q 471 994 424 994 q 539 982 508 994 q 594 948 571 970 q 629 891 616 925 q 642 813 642 858 q 628 715 642 770 m 484 707 q 497 771 493 742 q 501 822 501 800 q 446 906 501 906 q 410 898 426 906 q 381 872 394 890 q 356 822 368 853 q 332 745 344 791 q 318 676 323 707 q 313 622 313 646 q 363 547 313 547 q 399 555 382 547 q 431 581 416 563 q 459 630 446 600 q 484 707 473 661 m 1076 994 l 295 -17 l 150 -17 l 932 994 l 1076 994 z "},"&":{"ha":904,"x_min":73,"x_max":848,"o":"m 441 789 q 459 723 441 761 q 503 637 477 684 q 558 684 534 663 q 597 726 582 706 q 620 764 612 745 q 628 803 628 783 q 622 835 628 820 q 604 861 615 850 q 577 880 593 873 q 545 886 562 886 q 507 879 526 886 q 474 858 489 871 q 451 827 460 845 q 441 789 441 810 m 364 134 q 444 151 399 134 q 536 195 489 167 q 494 273 517 231 q 448 363 472 315 l 414 429 q 340 378 372 401 q 288 335 309 356 q 257 290 267 313 q 246 234 246 266 q 255 193 246 212 q 280 162 264 175 q 317 141 296 149 q 364 134 338 134 m 839 286 q 799 238 823 264 q 743 186 774 213 q 800 102 775 132 q 848 60 825 71 q 814 39 836 52 q 767 14 791 26 q 722 -8 743 1 q 692 -17 701 -17 q 656 8 679 -17 q 602 83 633 34 q 531 43 568 61 q 458 12 495 25 q 386 -9 422 -2 q 316 -17 350 -17 q 210 -2 256 -17 q 134 39 165 13 q 89 102 104 66 q 73 182 73 138 q 85 258 73 223 q 118 325 97 294 q 166 384 138 356 q 227 436 195 411 q 293 485 258 461 q 360 531 327 508 q 304 655 327 596 q 281 762 281 713 q 307 868 281 823 q 374 941 332 912 q 469 983 416 969 q 576 997 522 997 q 659 984 621 997 q 726 947 698 970 q 771 892 755 924 q 787 823 787 860 q 769 749 787 785 q 722 677 752 713 q 650 606 691 642 q 562 536 609 571 q 583 496 572 516 q 604 456 593 477 q 645 372 625 411 q 682 298 665 333 q 737 352 713 325 q 777 403 762 378 l 839 286 z "},"'":{"ha":410,"x_min":287,"x_max":519,"o":"m 287 702 q 303 775 294 737 q 320 857 311 813 q 337 951 329 900 q 353 1064 346 1002 l 519 1064 q 479 951 496 1002 q 449 857 463 900 q 426 775 436 813 q 406 702 416 737 l 287 702 z "},"(":{"ha":570,"x_min":109,"x_max":655,"o":"m 655 957 q 447 731 528 858 q 325 440 366 604 q 296 214 296 324 q 383 -134 296 24 l 253 -275 q 145 -60 182 -177 q 109 188 109 56 q 142 440 109 310 q 216 649 169 550 q 323 831 262 747 q 457 984 385 916 q 610 1101 530 1052 l 655 957 z "},")":{"ha":570,"x_min":51,"x_max":604,"o":"m 440 1101 q 510 1020 479 1067 q 562 917 541 973 q 593 796 583 861 q 604 660 604 731 q 596 539 604 601 q 572 413 589 477 q 404 38 521 208 q 111 -275 286 -132 l 51 -134 q 170 -11 117 -72 q 264 115 222 51 q 336 250 306 180 q 386 399 366 319 q 410 523 401 463 q 418 640 418 583 q 395 814 418 734 q 323 957 372 895 l 440 1101 z "},"*":{"ha":692,"x_min":231,"x_max":807,"o":"m 807 887 q 700 845 749 865 q 601 803 650 826 q 642 784 621 793 q 684 766 663 774 q 728 749 705 758 q 776 731 751 741 l 675 614 q 642 645 658 631 q 611 673 627 660 q 578 700 595 687 q 543 728 562 713 q 535 680 538 703 q 529 634 532 657 q 524 586 526 610 q 520 532 522 561 l 384 532 q 423 631 406 584 q 457 730 440 677 q 363 668 407 699 q 270 602 319 637 l 231 723 q 341 763 292 745 q 439 803 390 781 q 357 841 402 823 q 263 877 312 859 l 361 991 q 427 930 395 957 q 495 878 458 904 q 503 929 500 905 q 508 977 506 953 q 512 1024 510 1000 q 515 1074 513 1048 l 650 1074 q 629 1021 639 1046 q 611 972 620 996 q 595 926 603 949 q 581 878 588 903 q 676 938 631 908 q 770 1002 721 968 l 807 887 z "},"+":{"ha":800,"x_min":170,"x_max":808,"o":"m 205 564 l 432 564 l 490 792 l 635 792 l 578 564 l 808 564 l 773 423 l 543 423 l 485 191 l 339 191 l 397 423 l 170 423 l 205 564 z "},",":{"ha":437,"x_min":40,"x_max":366,"o":"m 115 121 q 131 159 119 140 q 161 193 143 178 q 204 219 180 209 q 257 229 229 229 q 307 220 286 229 q 341 195 328 211 q 360 158 354 179 q 366 112 366 136 q 355 51 366 82 q 326 -12 345 19 q 284 -74 308 -43 q 234 -131 260 -104 q 180 -183 208 -159 q 127 -225 152 -207 l 40 -178 q 149 -65 108 -121 q 201 33 191 -9 l 93 33 l 115 121 z "},"-":{"ha":593,"x_min":101,"x_max":635,"o":"m 136 494 l 635 494 l 600 353 l 101 353 l 136 494 z "},".":{"ha":468,"x_min":116,"x_max":360,"o":"m 116 79 q 127 132 116 106 q 159 177 139 157 q 205 207 178 196 q 261 218 231 218 q 301 211 283 218 q 333 191 319 203 q 353 161 346 178 q 360 123 360 143 q 349 70 360 95 q 318 25 338 44 q 272 -6 298 5 q 216 -17 245 -17 q 176 -10 194 -17 q 144 10 157 -3 q 123 41 131 23 q 116 79 116 58 z "},"/":{"ha":719,"x_min":-81,"x_max":959,"o":"m 959 1074 l 87 -165 l -81 -165 l 789 1074 l 959 1074 z "},":":{"ha":468,"x_min":116,"x_max":460,"o":"m 216 481 q 228 535 216 509 q 259 579 239 560 q 305 610 279 599 q 361 621 332 621 q 402 614 384 621 q 433 594 420 606 q 453 564 446 581 q 460 526 460 546 q 449 472 460 498 q 418 428 438 447 q 372 397 399 408 q 316 386 346 386 q 276 393 294 386 q 244 413 258 400 q 224 444 231 426 q 216 481 216 461 m 116 79 q 127 132 116 106 q 159 177 139 157 q 205 207 178 196 q 261 218 231 218 q 301 211 283 218 q 333 191 319 203 q 353 161 346 178 q 360 123 360 143 q 349 70 360 95 q 318 25 338 44 q 272 -6 298 5 q 216 -17 245 -17 q 176 -10 194 -17 q 144 10 157 -3 q 123 41 131 23 q 116 79 116 58 z "},";":{"ha":468,"x_min":40,"x_max":460,"o":"m 216 481 q 228 535 216 509 q 259 579 239 560 q 305 610 279 599 q 361 621 332 621 q 402 614 384 621 q 433 594 420 606 q 453 564 446 581 q 460 526 460 546 q 449 472 460 498 q 418 428 438 447 q 372 397 399 408 q 316 386 346 386 q 276 393 294 386 q 244 413 258 400 q 224 444 231 426 q 216 481 216 461 m 115 121 q 131 159 119 140 q 161 193 143 178 q 204 219 180 209 q 257 229 229 229 q 307 220 286 229 q 341 195 328 211 q 360 158 354 179 q 366 112 366 136 q 355 51 366 82 q 326 -12 345 19 q 284 -74 308 -43 q 234 -131 260 -104 q 180 -183 208 -159 q 127 -225 152 -207 l 40 -178 q 149 -65 108 -121 q 201 33 191 -9 l 93 33 l 115 121 z "},"<":{"ha":800,"x_min":140,"x_max":888,"o":"m 726 165 l 140 427 l 172 554 l 888 816 l 850 661 l 346 484 l 764 319 l 726 165 z "},"=":{"ha":800,"x_min":114,"x_max":862,"o":"m 211 685 l 862 685 l 827 544 l 176 544 l 211 685 m 149 436 l 800 436 l 765 296 l 114 296 l 149 436 z "},">":{"ha":800,"x_min":88,"x_max":836,"o":"m 127 319 l 631 497 l 212 661 l 250 816 l 836 554 l 804 427 l 88 165 l 127 319 z "},"?":{"ha":726,"x_min":208,"x_max":775,"o":"m 208 79 q 219 132 208 106 q 250 177 231 157 q 296 207 270 196 q 353 218 323 218 q 393 211 375 218 q 424 191 411 203 q 445 161 437 178 q 452 123 452 143 q 440 70 452 95 q 410 25 429 44 q 363 -6 390 5 q 307 -17 337 -17 q 267 -10 286 -17 q 236 10 249 -3 q 215 41 222 23 q 208 79 208 58 m 297 336 q 360 519 323 442 q 441 648 397 597 q 493 703 469 682 q 535 740 517 724 q 564 771 553 756 q 574 806 574 786 q 554 850 574 831 q 489 869 534 869 q 384 847 438 869 q 280 784 329 825 l 290 945 q 340 976 310 960 q 405 1005 370 992 q 475 1026 439 1018 q 543 1034 511 1034 q 642 1020 599 1034 q 715 981 686 1006 q 760 922 745 956 q 775 852 775 889 q 763 787 775 817 q 730 732 750 758 q 684 682 709 707 q 631 633 658 658 q 570 562 595 597 q 528 491 545 528 q 499 417 511 455 q 477 336 488 378 l 297 336 z "},"@":{"ha":1148,"x_min":104,"x_max":1204,"o":"m 788 551 q 772 559 781 555 q 753 566 764 563 q 728 572 742 570 q 695 574 714 574 q 578 528 627 574 q 554 499 566 515 q 533 464 543 483 q 515 425 523 446 q 503 386 507 405 q 492 314 492 344 q 507 255 492 275 q 549 235 522 235 q 583 246 564 235 q 623 277 602 258 q 665 321 644 296 q 706 373 686 346 q 742 427 726 399 q 770 477 758 454 l 788 551 m 809 -93 q 746 -124 779 -111 q 677 -146 712 -137 q 606 -160 642 -155 q 535 -165 570 -165 q 370 -135 448 -165 q 233 -49 292 -105 q 139 88 174 7 q 104 270 104 168 q 109 345 104 307 q 124 423 114 382 q 227 666 159 564 q 381 831 294 767 q 573 926 469 896 q 784 957 676 957 q 954 928 876 957 q 1086 846 1031 899 q 1173 721 1142 793 q 1204 562 1204 648 q 1200 502 1204 532 q 1188 438 1196 471 q 1133 296 1168 358 q 1054 192 1097 234 q 964 127 1010 149 q 876 105 917 105 q 818 117 842 105 q 780 148 795 128 q 759 194 766 168 q 753 249 753 220 q 754 277 753 262 q 758 305 755 291 q 706 239 736 274 q 641 176 675 205 q 570 128 606 147 q 502 109 534 109 q 447 123 473 109 q 401 163 421 138 q 368 225 380 189 q 356 303 356 260 q 358 339 356 321 q 366 377 360 357 q 413 493 381 439 q 481 585 444 547 q 539 634 510 613 q 601 670 569 656 q 669 691 633 684 q 747 699 705 699 q 794 695 767 699 q 849 687 821 692 q 904 674 877 682 q 950 658 930 667 l 895 436 q 878 354 884 389 q 873 293 873 319 q 882 241 873 257 q 909 224 892 224 q 944 236 924 224 q 985 271 964 247 q 1024 332 1005 295 q 1055 420 1042 369 q 1072 551 1072 492 q 1052 669 1072 616 q 993 757 1032 721 q 896 813 954 793 q 760 833 838 833 q 594 805 674 833 q 449 726 515 777 q 335 600 383 674 q 264 433 287 526 q 245 294 245 360 q 268 159 245 220 q 331 53 290 98 q 433 -16 373 9 q 570 -40 493 -40 q 656 -28 617 -40 q 734 7 696 -16 l 809 -93 z "},"A":{"ha":994,"x_min":-12,"x_max":907,"o":"m 411 382 l 689 382 l 660 825 l 411 382 m 699 238 l 330 238 l 197 0 l -12 0 q 16 42 2 20 q 47 92 31 64 q 86 155 64 119 q 135 238 107 191 l 571 980 l 812 980 l 878 238 q 886 156 882 191 q 893 92 890 120 q 900 42 897 64 q 907 0 903 20 l 715 0 l 699 238 z "},"B":{"ha":927,"x_min":61,"x_max":941,"o":"m 301 148 q 325 146 309 147 q 362 145 341 146 q 408 145 383 145 q 458 144 432 144 q 552 155 509 144 q 626 187 595 165 q 674 241 657 208 q 691 317 691 273 q 645 407 691 373 q 505 441 598 441 l 374 441 l 301 148 m 238 671 q 262 767 250 720 q 282 854 273 814 q 298 927 292 895 q 305 980 304 960 q 433 985 356 983 q 608 987 509 987 q 742 975 680 987 q 847 937 803 962 q 916 873 891 911 q 941 783 941 835 q 925 693 941 732 q 880 624 909 654 q 812 573 852 594 q 727 537 773 551 q 784 513 756 529 q 833 474 812 498 q 867 419 854 451 q 880 345 880 387 q 850 203 880 268 q 759 92 819 139 q 610 19 699 45 q 406 -7 522 -7 q 293 -6 347 -7 q 193 -4 238 -5 q 113 -2 147 -3 q 61 0 79 -1 q 80 52 70 20 q 100 123 90 83 q 123 209 111 163 q 147 305 135 255 l 238 671 m 410 587 l 522 587 q 612 596 571 587 q 683 623 653 604 q 730 669 713 641 q 747 737 747 698 q 706 812 747 784 q 583 841 665 841 q 520 840 548 841 q 473 838 492 839 l 410 587 z "},"C":{"ha":920,"x_min":130,"x_max":1027,"o":"m 862 84 q 781 41 825 60 q 691 9 737 22 q 599 -11 646 -4 q 509 -17 552 -17 q 350 12 420 -17 q 231 91 280 40 q 156 213 182 142 q 130 369 130 284 q 149 530 130 452 q 205 679 168 609 q 294 807 241 749 q 414 908 347 865 q 559 974 480 950 q 728 997 638 997 q 895 972 817 997 q 1027 903 972 947 l 939 741 q 833 812 895 790 q 705 834 772 834 q 594 818 646 834 q 500 771 543 801 q 424 701 457 742 q 367 612 390 661 q 332 510 345 564 q 320 399 320 455 q 380 212 320 277 q 553 148 439 148 q 633 156 591 148 q 716 178 675 163 q 798 215 758 193 q 872 265 838 237 l 862 84 z "},"D":{"ha":994,"x_min":61,"x_max":1021,"o":"m 303 155 q 360 151 323 153 q 439 149 398 149 q 569 165 511 149 q 673 217 628 182 q 750 307 718 252 q 801 439 783 362 q 817 519 811 481 q 822 591 822 557 q 805 696 822 650 q 758 773 789 742 q 684 821 728 804 q 586 837 640 837 q 526 836 557 837 q 472 833 494 835 l 303 155 m 243 694 q 266 784 255 741 q 284 865 276 827 q 298 931 293 902 q 305 980 304 961 q 366 983 328 981 q 448 985 404 984 q 537 986 492 986 q 618 987 582 987 q 709 979 663 987 q 801 953 756 971 q 886 907 846 935 q 956 837 926 878 q 1003 739 985 795 q 1021 612 1021 684 q 998 439 1021 534 q 915 240 970 324 q 782 101 861 156 q 604 20 704 46 q 384 -7 503 -7 q 343 -6 366 -7 q 294 -6 320 -6 q 241 -5 269 -5 q 188 -3 214 -4 q 61 0 127 -2 q 80 52 70 20 q 100 122 90 83 q 122 208 111 161 q 147 305 134 254 l 243 694 z "},"E":{"ha":808,"x_min":61,"x_max":930,"o":"m 781 587 l 744 437 l 373 437 l 302 155 l 477 155 q 641 156 575 155 q 747 165 706 157 l 707 0 l 61 0 q 98 117 78 41 q 144 292 119 193 l 243 688 q 284 864 267 788 q 305 980 302 939 l 930 980 l 892 825 l 470 825 l 410 587 l 781 587 z "},"F":{"ha":800,"x_min":61,"x_max":943,"o":"m 785 577 l 747 427 l 370 427 l 332 274 q 310 185 321 227 q 292 109 300 144 q 280 46 285 73 q 275 0 275 18 l 61 0 q 98 117 78 41 q 144 292 119 193 l 241 685 q 284 862 267 785 q 305 980 302 939 l 943 980 l 904 825 l 470 825 l 408 577 l 785 577 z "},"G":{"ha":985,"x_min":132,"x_max":1081,"o":"m 899 90 q 793 38 842 59 q 697 5 743 18 q 608 -12 652 -7 q 521 -17 564 -17 q 360 8 432 -17 q 237 81 288 33 q 159 200 186 130 q 132 362 132 271 q 154 531 132 440 q 243 740 184 652 q 380 885 302 827 q 551 969 458 942 q 742 997 644 997 q 833 992 788 997 q 920 977 878 987 q 1003 948 963 966 q 1081 903 1044 930 l 983 743 q 924 785 954 768 q 863 813 895 802 q 797 829 831 824 q 724 834 762 834 q 596 815 656 834 q 485 759 535 796 q 398 665 435 721 q 342 535 361 609 q 327 456 332 494 q 322 385 322 418 q 337 286 322 330 q 380 212 351 242 q 450 164 408 181 q 546 148 492 148 q 653 156 603 148 q 749 184 703 163 l 793 369 l 580 369 l 617 520 l 1004 520 l 899 90 z "},"H":{"ha":1014,"x_min":61,"x_max":1112,"o":"m 1112 980 q 1075 865 1095 939 q 1030 692 1055 791 l 930 289 q 887 115 905 189 q 868 0 870 41 l 665 0 l 770 427 l 370 427 l 264 0 l 61 0 q 98 115 79 41 q 143 289 118 189 l 243 692 q 286 865 269 791 q 305 980 302 939 l 509 980 l 408 577 l 808 577 l 909 980 l 1112 980 z "},"I":{"ha":695,"x_min":47,"x_max":810,"o":"m 810 980 l 776 842 l 613 842 l 437 138 l 600 138 l 566 0 l 47 0 l 81 138 l 244 138 l 420 842 l 257 842 l 292 980 l 810 980 z "},"J":{"ha":685,"x_min":-5,"x_max":783,"o":"m 783 980 q 711 690 743 821 q 683 580 696 635 q 658 479 669 525 q 639 402 647 434 q 629 359 631 370 q 563 185 603 257 q 472 69 524 114 q 357 3 420 24 q 221 -17 294 -17 q 153 -12 186 -17 q 89 4 119 -6 q 34 28 58 14 q -5 60 9 43 l 71 233 q 104 199 85 214 q 144 174 123 184 q 188 158 165 163 q 231 153 211 153 q 310 170 276 153 q 368 217 343 187 q 410 288 393 247 q 439 374 427 328 l 509 658 q 533 753 522 707 q 553 841 544 800 q 570 918 563 883 q 580 980 576 954 l 783 980 z "},"K":{"ha":956,"x_min":61,"x_max":1072,"o":"m 1072 980 l 528 503 l 882 0 l 644 0 l 374 443 l 264 0 l 61 0 q 98 117 78 41 q 144 292 119 193 l 243 688 q 284 864 267 788 q 305 980 302 939 l 509 980 l 404 559 l 844 980 l 1072 980 z "},"L":{"ha":753,"x_min":61,"x_max":736,"o":"m 449 155 q 540 155 497 155 q 620 156 583 155 q 686 159 656 157 q 736 165 715 161 l 695 0 l 61 0 q 98 117 78 41 q 144 292 119 193 l 243 688 q 284 864 267 788 q 305 980 302 939 l 509 980 l 302 155 l 449 155 z "},"M":{"ha":1244,"x_min":61,"x_max":1295,"o":"m 587 980 l 623 184 l 1051 980 l 1295 980 q 1205 540 1246 741 q 1182 425 1194 483 q 1160 313 1171 368 q 1140 209 1149 258 q 1124 119 1131 159 q 1112 47 1116 78 q 1105 0 1107 16 l 922 0 l 1090 762 l 682 0 l 481 0 l 451 758 l 244 0 l 61 0 q 77 47 67 16 q 100 119 87 78 q 128 209 113 159 q 159 313 143 258 q 192 425 176 368 q 226 540 209 483 q 353 980 284 741 l 587 980 z "},"N":{"ha":1034,"x_min":54,"x_max":1139,"o":"m 420 692 l 248 0 l 54 0 q 92 117 71 41 q 137 292 112 193 l 236 688 q 278 864 260 788 q 298 980 295 939 l 492 980 l 773 288 l 946 980 l 1139 980 q 1101 864 1122 939 q 1057 688 1081 788 l 885 0 l 702 0 l 420 692 z "},"O":{"ha":1004,"x_min":130,"x_max":1030,"o":"m 1030 618 q 1009 435 1030 520 q 949 280 987 351 q 859 154 911 210 q 744 61 806 99 q 612 3 682 23 q 470 -17 543 -17 q 333 11 395 -17 q 225 88 271 38 q 155 208 180 138 q 130 366 130 279 q 147 523 130 446 q 199 671 165 601 q 281 801 233 741 q 393 904 330 861 q 532 972 456 947 q 696 997 608 997 q 841 970 778 997 q 945 893 903 943 q 1009 774 987 844 q 1030 618 1030 704 m 511 148 q 608 165 563 148 q 689 213 652 182 q 753 287 725 244 q 800 380 781 330 q 829 488 819 431 q 839 604 839 545 q 826 702 839 659 q 790 773 814 744 q 732 818 766 802 q 655 833 698 833 q 516 797 578 833 q 411 699 454 760 q 343 556 367 637 q 319 385 319 475 q 333 284 319 328 q 371 210 346 240 q 432 164 396 180 q 511 148 467 148 z "},"P":{"ha":851,"x_min":61,"x_max":945,"o":"m 388 497 q 414 494 399 495 q 446 492 429 493 q 481 491 463 491 q 514 490 498 490 q 610 504 567 490 q 684 542 653 517 q 731 605 714 568 q 748 692 748 643 q 738 747 748 721 q 706 793 727 773 q 652 825 684 813 q 576 836 619 836 q 545 836 558 836 q 521 835 532 836 q 498 834 509 835 q 472 833 486 833 l 388 497 m 337 292 q 314 198 325 242 q 295 116 303 153 q 281 49 286 79 q 275 0 276 20 l 61 0 q 99 117 79 41 q 144 292 119 193 l 238 671 q 262 768 250 721 q 282 855 273 814 q 298 927 292 895 q 305 980 304 960 q 417 983 360 981 q 469 984 441 984 q 524 985 496 985 q 582 986 553 986 q 637 987 610 987 q 764 968 707 987 q 861 917 821 950 q 923 836 901 883 q 945 730 945 788 q 911 567 945 639 q 819 446 878 496 q 677 371 760 397 q 498 345 595 345 q 422 346 460 345 q 352 351 385 348 l 337 292 z "},"Q":{"ha":1009,"x_min":130,"x_max":1036,"o":"m 513 148 q 608 166 564 148 q 689 216 652 184 q 754 292 726 248 q 804 386 783 336 q 834 492 824 437 q 845 604 845 548 q 797 773 845 714 q 657 833 748 833 q 563 816 608 833 q 481 768 519 799 q 414 695 444 738 q 363 603 384 653 q 331 495 342 553 q 319 378 319 438 q 331 284 319 327 q 367 212 343 242 q 428 164 391 181 q 513 148 464 148 m 1036 625 q 1011 450 1036 534 q 946 295 986 366 q 856 171 906 224 q 756 91 806 118 q 812 55 785 72 q 869 23 840 37 q 930 -1 899 9 q 996 -15 961 -11 q 977 -37 987 -24 q 952 -66 966 -51 q 925 -96 939 -81 q 897 -123 911 -111 q 869 -142 882 -135 q 845 -150 856 -150 q 808 -139 831 -150 q 759 -114 785 -129 q 703 -80 732 -98 q 648 -46 674 -62 q 601 -21 622 -31 q 568 -10 580 -10 q 519 -16 543 -14 q 472 -17 496 -17 q 337 9 399 -17 q 228 83 274 35 q 156 201 182 132 q 130 357 130 270 q 150 512 130 429 q 234 724 180 633 q 361 875 289 814 q 519 966 433 936 q 698 997 605 997 q 835 971 773 997 q 942 897 897 945 q 1011 780 986 848 q 1036 625 1036 711 z "},"R":{"ha":922,"x_min":61,"x_max":935,"o":"m 398 537 l 530 537 q 612 550 574 537 q 679 587 650 563 q 723 645 707 611 q 739 719 739 678 q 694 805 739 774 q 571 836 649 836 q 538 836 551 836 q 515 835 526 836 q 495 834 505 835 q 472 833 486 833 l 398 537 m 337 292 q 314 198 325 243 q 295 116 303 154 q 281 49 286 79 q 275 0 276 20 l 61 0 q 99 117 79 41 q 144 292 119 193 l 238 671 q 262 768 250 721 q 282 855 273 814 q 298 927 292 895 q 305 980 304 960 q 409 983 355 981 q 514 986 456 985 q 632 987 572 987 q 756 971 700 987 q 851 927 812 956 q 913 855 891 897 q 935 758 935 812 q 913 632 935 688 q 854 532 892 576 q 766 459 817 489 q 657 413 715 429 q 688 346 670 385 q 727 265 707 307 q 768 179 747 222 q 808 100 789 136 q 840 37 826 63 q 861 0 854 10 l 621 0 l 456 393 l 362 393 l 337 292 z "},"S":{"ha":829,"x_min":45,"x_max":908,"o":"m 833 745 q 778 785 805 768 q 722 812 751 802 q 662 829 693 823 q 595 834 631 834 q 543 829 572 834 q 488 813 514 825 q 444 783 462 802 q 426 734 426 763 q 438 697 426 715 q 473 660 450 680 q 527 616 495 640 q 597 564 559 593 q 685 493 647 526 q 749 428 724 460 q 788 361 775 395 q 802 284 802 326 q 770 153 802 209 q 684 59 739 96 q 553 2 629 21 q 389 -17 477 -17 q 291 -4 343 -17 q 192 31 239 9 q 105 77 144 52 q 45 128 66 103 l 125 313 q 181 252 146 282 q 255 199 215 222 q 339 162 295 176 q 423 148 382 148 q 493 155 460 148 q 549 176 526 162 q 587 209 573 189 q 600 254 600 229 q 592 291 600 273 q 564 332 584 310 q 509 382 543 355 q 421 446 474 410 q 331 513 368 482 q 270 575 294 544 q 236 639 247 606 q 225 714 225 672 q 257 839 225 785 q 343 927 289 892 q 469 979 397 962 q 621 997 541 997 q 781 978 708 997 q 908 923 853 958 l 833 745 z "},"T":{"ha":851,"x_min":192,"x_max":1031,"o":"m 1031 980 l 989 812 q 916 824 954 821 q 836 826 877 826 l 689 826 l 552 277 q 513 111 528 182 q 497 0 498 39 l 277 0 q 315 111 294 39 q 359 277 335 182 l 496 826 l 352 826 q 271 824 311 826 q 192 812 231 821 l 234 980 l 1031 980 z "},"U":{"ha":997,"x_min":155,"x_max":1095,"o":"m 1095 980 q 1058 866 1078 939 q 1013 688 1038 793 l 920 319 q 769 69 878 155 q 473 -17 659 -17 q 334 5 394 -17 q 234 65 274 26 q 175 157 195 104 q 155 274 155 211 q 169 387 155 328 l 243 688 q 284 864 267 788 q 305 980 302 939 l 509 980 l 363 395 q 353 344 357 370 q 349 295 349 319 q 357 233 349 262 q 382 183 365 204 q 429 149 400 161 q 498 137 457 137 q 593 154 553 137 q 662 202 633 171 q 709 277 690 233 q 741 376 728 321 l 892 980 l 1095 980 z "},"V":{"ha":980,"x_min":220,"x_max":1166,"o":"m 1166 980 q 1137 937 1152 960 q 1103 886 1122 914 q 1062 821 1085 857 q 1010 735 1040 784 l 563 0 l 336 0 l 254 735 q 244 821 249 784 q 235 886 239 857 q 228 937 231 914 q 220 980 224 960 l 420 980 l 489 174 l 953 980 l 1166 980 z "},"W":{"ha":1434,"x_min":224,"x_max":1607,"o":"m 410 171 l 821 980 l 997 980 l 1010 171 l 1390 980 l 1607 980 q 1580 937 1594 960 q 1550 886 1567 914 q 1514 821 1534 857 q 1468 735 1494 784 l 1082 0 l 868 0 l 854 735 l 478 0 l 264 0 l 241 735 q 237 820 239 783 q 233 886 235 857 q 229 938 231 915 q 224 980 227 960 l 427 980 l 410 171 z "},"X":{"ha":912,"x_min":-27,"x_max":1068,"o":"m 498 363 l 197 0 l -27 0 q 13 40 -6 22 q 55 82 32 58 q 107 141 77 106 q 182 229 138 175 l 436 534 l 359 745 q 325 833 340 798 q 298 894 311 868 q 276 939 286 920 q 254 980 265 959 l 468 980 l 580 673 l 841 980 l 1068 980 q 1026 941 1047 960 q 981 895 1006 921 q 924 833 956 869 q 848 745 892 797 l 642 503 l 743 226 q 776 139 762 173 q 801 81 790 104 q 821 39 812 57 q 841 0 831 20 l 631 0 l 498 363 z "},"Y":{"ha":911,"x_min":220,"x_max":1098,"o":"m 309 0 q 346 117 326 41 q 391 292 366 193 l 425 428 l 327 715 q 304 780 315 748 q 281 843 294 811 q 254 909 269 876 q 220 980 239 943 l 432 980 l 551 577 l 869 980 l 1098 980 q 1026 903 1057 937 q 967 838 994 869 q 914 777 939 807 q 862 715 889 747 l 618 427 l 585 292 q 542 117 559 193 q 522 0 524 41 l 309 0 z "},"Z":{"ha":834,"x_min":3,"x_max":980,"o":"m 951 863 l 286 155 l 513 155 q 691 158 613 155 q 811 168 768 161 l 770 0 l 3 0 l 37 107 l 709 825 l 545 825 q 353 823 433 825 q 226 812 273 821 l 268 980 l 980 980 l 951 863 z "},"[":{"ha":563,"x_min":22,"x_max":708,"o":"m 22 -275 l 355 1074 l 708 1074 l 673 933 l 511 933 l 248 -134 l 410 -134 l 375 -275 l 22 -275 z "},"\\":{"ha":719,"x_min":233,"x_max":644,"o":"m 389 1074 l 644 -165 l 488 -165 l 233 1074 l 389 1074 z "},"]":{"ha":563,"x_min":-12,"x_max":674,"o":"m -12 -275 l 24 -134 l 186 -134 l 450 933 l 287 933 l 321 1074 l 674 1074 l 341 -275 l -12 -275 z "},"^":{"ha":583,"x_min":120,"x_max":716,"o":"m 554 806 l 457 960 l 283 806 l 120 806 l 370 1074 l 573 1074 l 716 806 l 554 806 z "},"_":{"ha":850,"x_min":-99,"x_max":800,"o":"m -64 -94 l 800 -94 l 764 -235 l -99 -235 l -64 -94 z "},"`":{"ha":420,"x_min":180,"x_max":554,"o":"m 404 1074 l 554 806 l 398 806 l 180 1074 l 404 1074 z "},"a":{"ha":848,"x_min":85,"x_max":876,"o":"m 648 534 q 606 543 635 538 q 533 548 576 548 q 441 524 482 548 q 368 463 399 500 q 317 379 337 426 q 288 288 297 333 q 282 230 282 257 q 295 167 282 191 q 334 142 307 142 q 389 160 359 142 q 451 207 420 178 q 513 272 483 235 q 569 347 543 309 q 612 422 594 385 q 637 487 631 458 l 648 534 m 573 0 q 574 36 573 15 q 576 82 574 58 q 579 132 577 106 q 586 182 582 157 l 594 235 q 521 146 562 191 q 434 65 481 102 q 337 6 388 29 q 233 -17 286 -17 q 172 -4 199 -17 q 126 34 145 9 q 96 94 106 58 q 85 175 85 130 q 89 230 85 201 q 100 291 92 258 q 161 445 120 371 q 263 575 201 518 q 407 665 325 631 q 592 699 489 699 q 667 696 629 699 q 743 690 706 694 q 814 680 781 686 q 876 668 848 675 l 798 356 q 775 251 784 302 q 762 153 767 199 q 755 67 758 106 q 753 0 753 28 l 573 0 z "},"b":{"ha":833,"x_min":75,"x_max":833,"o":"m 492 1075 q 487 1006 492 1046 q 475 921 483 966 q 458 830 467 876 q 438 743 448 783 l 381 513 q 446 585 412 551 q 514 644 479 618 q 588 684 550 669 q 668 699 627 699 q 790 637 746 699 q 833 456 833 576 q 820 344 833 400 q 782 237 807 288 q 721 140 757 185 q 639 62 684 96 q 530 4 589 25 q 402 -17 471 -17 q 310 -12 353 -17 q 225 1 266 -7 q 148 20 185 9 q 75 43 111 31 l 249 743 q 268 823 258 780 q 285 909 277 865 q 297 995 292 953 q 302 1075 302 1038 l 492 1075 m 294 161 q 361 135 329 143 q 428 127 393 127 q 497 143 465 127 q 558 186 530 159 q 619 281 596 225 q 642 400 642 336 q 637 454 642 429 q 623 496 632 478 q 598 524 613 514 q 562 534 583 534 q 505 513 536 534 q 443 458 474 492 q 381 381 411 425 q 327 293 351 338 l 294 161 z "},"c":{"ha":691,"x_min":102,"x_max":745,"o":"m 673 488 q 636 514 654 504 q 600 532 618 525 q 559 541 581 538 q 511 544 538 544 q 428 526 469 544 q 355 475 387 509 q 303 393 323 441 q 283 282 283 345 q 292 227 283 253 q 320 181 302 201 q 365 149 338 161 q 424 138 391 138 q 485 142 457 138 q 538 156 513 146 q 587 179 564 165 q 635 211 611 193 l 629 47 q 522 0 582 17 q 386 -17 462 -17 q 276 3 328 -17 q 186 59 224 22 q 124 147 147 96 q 102 262 102 199 q 137 441 102 360 q 232 579 172 522 q 371 667 292 636 q 540 699 451 699 q 660 684 608 699 q 745 650 713 670 l 673 488 z "},"d":{"ha":858,"x_min":98,"x_max":960,"o":"m 960 1075 q 947 962 960 1026 q 912 807 934 897 l 804 353 q 772 190 782 260 q 763 68 763 119 q 764 30 763 49 q 766 0 764 12 l 580 0 l 580 41 q 581 87 580 63 q 583 135 582 111 q 588 181 585 159 q 534 115 567 150 q 463 51 502 81 q 383 2 425 22 q 304 -17 342 -17 q 217 2 256 -17 q 153 54 179 20 q 112 132 126 87 q 98 231 98 178 q 111 340 98 285 q 149 447 124 395 q 209 543 174 498 q 289 622 244 588 q 392 678 336 658 q 513 699 448 699 q 559 693 535 699 q 607 680 583 688 q 652 660 630 671 q 692 634 673 648 l 732 797 q 763 946 751 875 q 776 1075 776 1017 l 960 1075 m 649 496 q 610 515 629 507 q 574 528 592 523 q 536 535 556 532 q 493 537 517 537 q 428 523 457 537 q 376 484 399 508 q 338 433 354 462 q 311 373 321 404 q 295 310 300 342 q 290 249 290 277 q 312 166 290 196 q 380 136 334 136 q 420 148 397 136 q 466 180 442 160 q 513 227 490 201 q 557 279 537 252 q 594 332 578 307 q 619 378 610 358 l 649 496 z "},"e":{"ha":737,"x_min":100,"x_max":763,"o":"m 484 557 q 422 547 452 557 q 366 517 392 537 q 320 467 340 496 q 288 397 300 437 q 361 393 327 393 q 467 400 423 393 q 537 419 510 407 q 577 449 565 431 q 589 488 589 467 q 562 539 589 520 q 484 557 534 557 m 676 50 q 598 19 635 32 q 525 -2 561 6 q 453 -13 489 -9 q 377 -17 416 -17 q 270 3 320 -17 q 181 59 219 22 q 122 147 144 95 q 100 263 100 199 q 134 442 100 361 q 226 579 168 522 q 360 667 283 636 q 522 699 437 699 q 623 686 578 699 q 699 649 668 673 q 747 594 730 626 q 763 525 763 562 q 739 432 763 476 q 667 354 715 388 q 549 300 620 320 q 386 280 479 280 q 332 281 362 280 q 272 286 302 283 q 280 225 273 253 q 305 177 288 197 q 349 146 322 157 q 412 134 375 134 q 547 151 479 134 q 687 205 614 168 l 676 50 z "},"f":{"ha":583,"x_min":122,"x_max":806,"o":"m 730 888 q 685 919 713 907 q 632 931 657 931 q 551 896 583 931 q 498 778 518 860 l 473 675 l 654 675 l 621 541 l 442 541 q 420 446 431 496 q 394 332 408 395 q 380 263 386 298 q 370 195 374 229 q 363 132 366 162 q 361 75 361 101 q 368 0 361 28 l 157 0 q 170 119 161 53 q 193 256 180 184 q 221 401 206 328 q 252 541 237 474 l 122 541 l 156 675 l 284 675 l 312 785 q 440 1013 351 937 q 655 1088 529 1088 q 695 1084 674 1088 q 737 1074 716 1080 q 775 1059 758 1067 q 806 1040 793 1050 l 730 888 z "},"g":{"ha":802,"x_min":24,"x_max":843,"o":"m 618 511 q 569 531 597 524 q 507 538 540 538 q 439 525 470 538 q 385 490 409 512 q 345 442 362 469 q 317 384 328 414 q 299 320 305 353 q 294 256 294 287 q 310 181 294 205 q 351 156 327 156 q 381 166 363 156 q 422 194 400 176 q 467 235 444 212 q 513 285 491 258 q 556 339 536 311 q 590 394 576 368 l 618 511 m 699 17 q 635 -133 680 -70 q 533 -236 591 -195 q 410 -296 475 -277 q 284 -315 345 -315 q 213 -309 249 -315 q 144 -291 178 -302 q 79 -264 110 -280 q 24 -229 48 -248 l 117 -88 q 200 -144 156 -123 q 294 -165 243 -165 q 354 -155 321 -165 q 416 -125 386 -145 q 470 -75 446 -105 q 503 -7 494 -45 l 556 203 q 487 125 527 163 q 405 60 448 88 q 321 14 363 31 q 245 -3 279 -3 q 189 11 216 -3 q 141 51 162 24 q 109 117 121 77 q 96 207 96 156 q 111 328 96 268 q 154 442 126 388 q 222 542 182 496 q 313 623 262 588 q 429 679 366 659 q 564 699 492 699 q 635 694 597 699 q 709 682 672 690 q 781 666 746 675 q 843 648 815 656 l 699 17 z "},"h":{"ha":863,"x_min":71,"x_max":850,"o":"m 583 0 q 579 32 580 16 q 578 64 578 48 q 580 104 578 84 q 585 144 582 125 q 602 225 592 185 q 622 301 612 264 q 639 368 632 337 q 646 424 646 399 q 644 469 646 448 q 633 504 641 489 q 612 526 626 518 q 576 534 599 534 q 517 511 550 534 q 450 452 484 489 q 385 368 416 416 q 329 271 353 321 l 261 0 l 71 0 l 256 743 q 274 823 264 780 q 291 909 283 865 q 304 995 299 953 q 309 1075 309 1038 l 498 1075 q 494 1006 498 1046 q 482 921 490 966 q 465 830 474 876 q 445 743 455 783 l 384 502 q 452 579 416 543 q 524 642 488 615 q 598 683 561 668 q 671 699 635 699 q 754 683 720 699 q 810 640 789 667 q 840 574 831 612 q 850 492 850 536 q 841 416 850 457 q 819 331 831 376 q 794 240 807 287 q 774 146 781 193 q 768 103 770 123 q 766 61 766 84 q 768 30 766 45 q 773 0 770 15 l 583 0 z "},"i":{"ha":424,"x_min":115,"x_max":515,"o":"m 274 909 q 285 962 274 937 q 315 1006 296 987 q 360 1036 334 1025 q 416 1047 387 1047 q 457 1040 439 1047 q 488 1020 475 1032 q 508 989 500 1007 q 515 951 515 972 q 504 898 515 923 q 474 853 493 873 q 428 823 454 834 q 372 812 402 812 q 332 819 350 812 q 301 840 314 827 q 281 871 288 853 q 274 909 274 888 m 424 685 q 416 613 422 650 q 401 537 410 576 q 381 456 392 498 q 360 370 370 414 l 330 243 q 323 213 327 231 q 317 175 320 196 q 313 132 315 155 q 311 85 311 109 q 313 41 311 63 q 320 0 315 20 l 120 0 q 116 29 117 14 q 115 60 115 44 q 118 114 115 86 q 125 168 121 141 q 134 219 129 195 q 144 264 139 244 l 171 371 q 191 451 180 410 q 211 532 202 492 q 225 612 220 573 q 231 685 231 651 l 424 685 z "},"j":{"ha":471,"x_min":-241,"x_max":509,"o":"m 268 909 q 279 962 268 937 q 309 1006 290 987 q 354 1036 328 1025 q 410 1047 380 1047 q 451 1040 433 1047 q 481 1020 469 1032 q 502 989 494 1007 q 509 951 509 972 q 498 898 509 923 q 468 853 487 873 q 422 823 448 834 q 366 812 396 812 q 326 819 344 812 q 295 840 308 827 q 275 871 282 853 q 268 909 268 888 m 438 685 q 434 635 438 669 q 422 557 429 602 q 407 461 416 513 q 387 356 397 409 q 368 253 377 303 q 350 161 358 203 q 335 91 341 120 q 326 51 329 61 q 264 -112 302 -43 q 176 -226 225 -181 q 68 -293 127 -271 q -54 -315 9 -315 q -106 -310 -77 -315 q -162 -296 -135 -304 q -211 -279 -189 -288 q -241 -261 -232 -269 l -171 -102 q -148 -120 -162 -111 q -116 -135 -134 -129 q -78 -146 -98 -142 q -38 -150 -58 -150 q 16 -138 -10 -150 q 64 -102 41 -127 q 106 -38 87 -77 q 139 59 125 2 q 165 171 153 111 q 190 293 178 231 q 212 414 202 354 q 229 526 222 473 q 241 619 237 578 q 245 685 245 661 l 438 685 z "},"k":{"ha":820,"x_min":78,"x_max":874,"o":"m 78 0 q 160 331 122 178 q 193 462 176 396 q 223 586 209 528 q 249 690 237 644 l 267 761 q 284 843 276 800 q 299 928 293 886 q 310 1008 306 970 q 313 1075 313 1046 l 505 1075 q 501 1016 505 1053 q 490 934 497 979 q 474 842 484 890 q 454 749 465 794 l 372 418 q 465 482 418 449 q 549 549 511 515 q 616 617 588 583 q 654 685 644 652 l 874 685 q 859 640 874 664 q 818 591 844 616 q 758 541 792 566 q 685 489 724 515 q 604 438 646 463 q 524 390 563 413 q 595 323 561 365 q 661 230 629 281 q 725 119 693 178 q 792 0 758 60 l 564 0 q 516 107 541 54 q 467 208 492 161 q 412 290 441 254 q 353 344 384 326 l 267 0 l 78 0 z "},"l":{"ha":435,"x_min":119,"x_max":503,"o":"m 503 1075 q 498 1006 503 1046 q 486 921 494 966 q 469 830 478 876 q 449 743 459 783 l 351 349 q 339 299 346 329 q 327 235 333 270 q 317 160 321 199 q 313 82 313 121 q 319 0 313 39 l 122 0 q 121 18 121 7 q 120 40 120 29 q 119 62 119 52 q 119 79 119 72 q 132 220 119 157 q 157 331 145 283 l 260 743 q 279 823 269 780 q 296 909 288 865 q 308 995 303 953 q 313 1075 313 1038 l 503 1075 z "},"m":{"ha":1200,"x_min":75,"x_max":1185,"o":"m 901 0 q 897 32 898 16 q 896 64 896 48 q 902 139 896 101 q 913 188 905 160 q 929 248 920 216 q 948 312 938 279 q 965 375 958 345 q 978 433 973 406 q 983 479 983 460 q 974 520 983 507 q 937 534 964 534 q 887 507 916 534 q 828 439 858 481 q 770 348 798 398 q 724 251 742 298 l 661 0 l 471 0 l 555 328 q 563 358 559 340 q 572 394 568 376 q 578 432 576 413 q 581 467 581 450 q 579 492 581 480 q 572 514 577 505 q 558 528 567 523 q 536 534 549 534 q 505 522 523 534 q 467 488 487 509 q 426 438 447 467 q 387 379 406 410 q 351 315 368 348 q 325 251 335 282 l 264 0 l 75 0 l 177 413 q 188 469 183 439 q 195 530 192 499 q 198 588 197 560 q 199 639 199 616 q 197 685 199 673 l 374 685 q 376 670 375 679 q 377 648 377 661 q 375 587 377 625 q 364 485 372 549 q 431 574 397 534 q 501 642 466 614 q 571 684 536 669 q 638 699 606 699 q 733 657 703 699 q 764 541 764 616 q 763 511 764 526 q 760 478 762 495 q 821 562 787 522 q 892 632 854 602 q 969 681 930 663 q 1049 699 1009 699 q 1151 663 1118 699 q 1185 557 1185 627 q 1179 497 1185 532 q 1163 423 1173 462 q 1143 344 1154 385 q 1122 268 1132 304 q 1104 202 1112 232 q 1094 155 1097 172 q 1088 108 1090 131 q 1086 61 1086 85 q 1087 30 1086 45 q 1091 0 1088 15 l 901 0 z "},"n":{"ha":869,"x_min":75,"x_max":853,"o":"m 587 0 q 582 32 583 16 q 581 64 581 48 q 587 139 581 101 q 604 221 593 180 q 625 298 614 262 q 642 367 635 335 q 650 424 650 399 q 630 506 650 479 q 566 534 611 534 q 530 522 550 534 q 489 491 511 511 q 445 446 467 472 q 402 391 423 420 q 364 332 382 362 q 332 275 346 302 l 263 0 l 75 0 l 177 413 q 185 462 182 432 q 192 526 189 492 q 195 593 194 559 q 197 652 197 626 l 197 685 l 383 685 q 385 661 385 673 q 386 633 386 648 q 384 598 386 618 q 380 558 382 578 q 375 518 378 538 q 370 485 372 499 q 443 572 406 532 q 519 640 481 612 q 597 683 558 667 q 675 699 636 699 q 758 682 724 699 q 813 637 792 665 q 844 571 834 609 q 853 492 853 534 q 844 414 853 458 q 822 324 835 370 q 798 234 810 278 q 779 155 785 190 q 773 108 775 131 q 772 61 772 85 q 773 30 772 45 q 777 0 774 15 l 587 0 z "},"o":{"ha":772,"x_min":95,"x_max":776,"o":"m 487 547 q 395 520 435 547 q 328 451 355 493 q 288 359 301 410 q 274 261 274 308 q 303 167 274 199 q 384 134 332 134 q 474 159 434 134 q 541 224 513 184 q 582 314 568 264 q 596 415 596 364 q 569 513 596 479 q 487 547 542 547 m 95 251 q 109 366 95 310 q 149 472 123 422 q 212 563 174 522 q 297 635 250 605 q 402 682 345 665 q 524 699 459 699 q 629 680 583 699 q 709 628 676 662 q 759 545 741 593 q 776 435 776 496 q 747 265 776 347 q 663 121 718 184 q 529 21 608 58 q 353 -17 451 -17 q 246 2 294 -17 q 165 55 199 20 q 113 140 132 90 q 95 251 95 189 z "},"p":{"ha":863,"x_min":17,"x_max":859,"o":"m 390 685 q 392 661 391 673 q 393 633 393 648 q 390 571 393 603 q 383 510 388 538 q 447 582 412 548 q 521 642 482 616 q 601 683 560 668 q 681 699 642 699 q 758 681 724 699 q 814 632 791 663 q 848 558 836 601 q 859 465 859 515 q 841 325 859 391 q 789 201 822 258 q 712 100 757 144 q 616 27 668 56 q 536 -6 578 5 q 452 -17 495 -17 q 404 -13 426 -17 q 361 0 381 -8 q 321 19 340 7 q 281 43 302 30 l 245 -101 q 220 -227 228 -172 q 213 -329 213 -282 l 17 -329 q 20 -283 17 -308 q 27 -232 22 -258 q 38 -177 32 -205 q 51 -122 44 -149 l 184 413 q 192 462 189 432 q 198 526 196 492 q 202 593 201 559 q 203 652 203 626 l 203 685 l 390 685 m 321 201 q 377 156 343 174 q 446 138 411 138 q 507 148 479 138 q 558 175 535 157 q 603 221 584 194 q 635 280 623 248 q 655 346 648 311 q 661 413 661 380 q 640 504 661 469 q 579 538 619 538 q 527 522 557 538 q 465 477 496 505 q 405 413 434 449 q 355 339 376 377 l 321 201 z "},"q":{"ha":818,"x_min":98,"x_max":855,"o":"m 448 -329 q 450 -289 448 -312 q 455 -239 452 -266 q 465 -184 459 -213 q 479 -125 471 -155 l 568 203 q 503 122 541 161 q 424 51 465 82 q 342 2 383 20 q 265 -17 300 -17 q 206 -1 235 -17 q 152 46 176 16 q 113 122 128 77 q 98 224 98 167 q 111 327 98 276 q 145 426 123 378 q 200 516 168 473 q 273 593 233 558 q 336 636 302 617 q 407 670 370 656 q 482 691 444 684 q 555 699 519 699 q 634 694 594 699 q 712 682 673 690 q 786 666 750 675 q 855 648 823 656 l 663 -129 q 642 -234 650 -184 q 635 -329 635 -283 l 448 -329 m 633 517 q 608 526 623 522 q 577 532 593 530 q 545 537 561 535 q 519 538 529 538 q 437 522 473 538 q 374 476 401 505 q 337 427 353 454 q 311 370 321 400 q 296 308 301 340 q 291 245 291 277 q 306 169 291 195 q 353 143 320 143 q 391 156 369 143 q 437 191 413 170 q 487 240 462 212 q 535 295 513 267 q 575 349 557 323 q 603 395 593 376 l 633 517 z "},"r":{"ha":692,"x_min":75,"x_max":770,"o":"m 75 0 l 177 413 q 186 467 182 433 q 194 536 191 500 q 198 603 197 571 q 200 652 200 635 l 200 685 l 387 685 q 385 646 387 672 q 380 591 383 621 q 375 532 378 561 q 369 486 372 504 q 436 567 401 528 q 509 634 472 605 q 582 681 545 664 q 653 699 618 699 q 706 687 684 699 q 743 653 728 675 q 764 603 757 632 q 770 538 770 573 q 765 494 770 517 q 755 446 760 471 l 598 423 q 601 443 600 433 q 602 460 602 452 q 589 507 602 490 q 549 524 577 524 q 517 513 535 524 q 478 483 498 502 q 437 439 458 464 q 396 388 416 415 q 361 335 377 361 q 335 285 345 308 l 264 0 l 75 0 z "},"s":{"ha":688,"x_min":49,"x_max":718,"o":"m 652 486 q 564 529 618 510 q 438 548 509 548 q 392 545 413 548 q 356 536 371 542 q 332 523 340 531 q 323 504 323 515 q 336 478 323 490 q 368 455 348 466 q 415 432 389 444 q 471 407 442 420 q 555 363 519 385 q 615 320 591 342 q 652 271 640 297 q 664 214 664 245 q 638 117 664 160 q 569 45 613 75 q 466 -1 525 15 q 338 -17 406 -17 q 248 -6 292 -17 q 166 20 204 4 q 97 54 127 35 q 49 87 67 72 l 134 252 q 179 207 154 229 q 233 170 203 186 q 298 143 263 153 q 372 134 332 134 q 452 148 423 134 q 481 195 481 163 q 473 220 481 210 q 448 241 465 231 q 404 263 431 252 q 340 292 377 275 q 254 335 290 314 q 194 380 218 357 q 159 430 170 404 q 147 490 147 457 q 175 584 147 544 q 248 649 203 623 q 351 686 294 674 q 469 699 409 699 q 548 694 510 699 q 617 682 585 689 q 674 665 649 674 q 718 646 700 655 l 652 486 z "},"t":{"ha":610,"x_min":115,"x_max":675,"o":"m 431 541 q 410 458 420 498 q 392 385 400 419 q 378 325 384 351 q 370 281 372 298 q 363 216 363 245 q 376 160 363 181 q 420 138 388 138 q 481 151 446 138 q 564 189 517 164 l 551 37 q 495 12 523 22 q 441 -5 467 1 q 393 -14 416 -12 q 351 -17 370 -17 q 274 -5 309 -17 q 214 32 239 7 q 175 91 189 56 q 161 172 161 125 q 165 222 161 196 q 175 274 168 241 q 192 349 182 307 q 214 440 202 391 q 240 541 227 489 l 115 541 l 149 675 l 275 675 q 305 789 291 735 q 330 886 319 844 l 520 886 l 466 675 l 675 675 l 641 541 l 431 541 z "},"u":{"ha":852,"x_min":112,"x_max":869,"o":"m 571 0 q 572 40 571 14 q 575 96 573 66 q 578 154 576 126 q 583 200 581 182 q 545 152 568 177 q 496 103 523 127 q 439 57 469 79 q 378 19 409 35 q 317 -7 347 3 q 258 -17 286 -17 q 199 -7 226 -17 q 152 24 172 3 q 122 74 133 44 q 112 145 112 104 q 116 204 112 172 q 130 272 120 235 l 179 470 q 193 528 187 502 q 204 579 199 555 q 213 629 209 604 q 219 685 216 654 l 414 685 q 400 599 411 647 q 372 483 389 551 q 365 456 370 475 q 353 412 359 437 q 339 358 347 387 q 327 302 332 330 q 317 250 321 274 q 313 209 313 225 q 327 156 313 172 q 364 139 340 139 q 398 151 378 139 q 443 182 419 162 q 492 229 467 202 q 541 284 517 255 q 585 345 565 314 q 617 404 604 375 q 640 495 631 458 q 655 555 649 531 q 663 595 661 580 q 668 624 666 611 q 670 651 669 637 q 673 685 671 665 l 869 685 q 859 618 867 659 q 839 530 851 578 q 813 425 827 481 q 785 309 799 368 q 763 186 771 250 q 754 68 754 122 q 755 32 754 48 q 758 0 755 15 l 571 0 z "},"v":{"ha":711,"x_min":132,"x_max":786,"o":"m 786 685 q 768 592 786 644 q 720 481 751 540 q 648 360 689 422 q 559 235 606 298 q 462 113 512 173 q 363 0 412 53 l 186 0 q 190 89 189 45 q 191 178 191 133 q 178 430 191 304 q 132 685 165 556 l 320 685 q 335 623 329 658 q 346 549 342 588 q 352 467 350 509 q 353 382 353 425 q 351 277 353 328 q 344 183 349 226 q 444 316 397 250 q 525 445 490 382 q 578 568 559 508 q 597 685 597 629 l 786 685 z "},"w":{"ha":1099,"x_min":129,"x_max":1160,"o":"m 726 685 q 737 600 732 647 q 745 501 742 553 q 750 393 748 449 q 751 279 751 336 l 751 221 q 750 164 751 193 q 799 238 774 197 q 849 325 825 279 q 896 418 874 370 q 935 512 918 466 q 961 600 951 557 q 971 675 971 642 l 971 685 l 1160 685 q 1145 594 1160 645 q 1104 486 1130 543 q 1043 366 1078 429 q 968 241 1008 304 q 885 117 928 178 q 800 0 842 56 l 623 0 q 623 113 623 54 q 622 234 623 173 q 618 354 621 294 q 611 468 616 414 q 582 411 600 446 q 540 335 564 376 q 490 247 517 293 q 437 156 464 201 q 385 71 410 112 q 338 0 359 31 l 142 0 q 150 100 146 54 q 156 188 153 147 q 159 266 158 229 q 160 335 160 302 q 159 425 160 382 q 155 511 158 469 q 145 597 151 554 q 129 685 139 640 l 304 685 q 318 574 314 633 q 323 454 323 515 q 321 373 323 413 q 315 296 319 333 q 307 225 312 259 q 297 164 302 192 q 376 297 336 229 q 452 434 416 366 q 521 566 489 502 q 576 685 553 630 l 726 685 z "},"x":{"ha":749,"x_min":24,"x_max":817,"o":"m 484 0 q 457 42 471 15 q 428 103 443 68 q 396 180 412 138 q 361 266 379 221 q 306 204 331 238 q 264 135 281 170 q 237 65 247 100 q 227 0 227 30 l 24 0 q 57 109 30 55 q 125 212 85 163 q 216 302 165 260 q 318 373 266 343 q 275 469 298 422 q 229 557 253 516 q 179 632 205 599 q 126 685 153 665 l 355 685 q 383 647 368 672 q 414 590 398 623 q 446 517 429 557 q 481 435 463 477 q 532 491 509 460 q 571 553 555 521 q 597 620 588 586 q 606 685 606 653 l 817 685 q 802 617 815 651 q 766 550 788 583 q 714 485 743 517 q 654 425 686 454 q 589 370 622 396 q 526 324 556 345 q 570 219 547 271 q 615 125 593 168 q 661 49 638 81 q 705 0 684 16 l 484 0 z "},"y":{"ha":706,"x_min":-132,"x_max":757,"o":"m 753 685 q 757 651 757 669 q 733 530 757 602 q 670 373 710 458 q 577 192 630 288 q 464 0 524 97 q 349 -159 404 -98 q 244 -256 295 -221 q 146 -303 194 -290 q 53 -315 99 -315 q 4 -312 30 -315 q -48 -301 -22 -308 q -95 -283 -73 -294 q -132 -258 -117 -272 l -43 -112 q -22 -131 -35 -121 q 8 -150 -8 -141 q 42 -164 24 -159 q 77 -170 60 -170 q 116 -163 95 -170 q 163 -139 138 -157 q 217 -91 188 -121 q 277 -12 245 -60 q 258 198 275 94 q 213 392 240 301 q 151 559 185 484 q 81 685 117 634 l 273 685 q 307 626 290 663 q 337 546 323 590 q 364 452 352 502 q 385 354 376 403 q 399 259 394 305 q 404 176 404 213 q 445 253 424 212 q 485 337 465 294 q 521 424 504 380 q 550 507 538 467 q 570 584 563 548 q 578 650 578 621 q 577 668 578 659 q 574 685 576 677 l 753 685 z "},"z":{"ha":712,"x_min":20,"x_max":753,"o":"m 753 685 l 729 588 l 306 169 q 349 173 329 173 q 407 166 380 173 q 461 151 433 159 q 517 136 488 142 q 583 129 547 129 q 629 132 605 129 q 683 144 653 136 l 647 0 q 597 -13 621 -9 q 550 -17 574 -17 q 465 -6 506 -17 q 384 17 423 4 q 306 40 345 30 q 230 51 268 51 q 153 36 191 51 q 75 -17 115 22 l 20 47 l 496 541 l 242 541 q 183 536 212 541 q 134 524 155 531 l 173 685 l 753 685 z "},"{":{"ha":692,"x_min":176,"x_max":790,"o":"m 463 -275 q 392 -259 431 -269 q 318 -239 353 -250 q 256 -216 283 -228 q 220 -191 229 -203 q 211 -146 211 -180 q 216 -80 211 -119 q 229 2 221 -41 q 245 88 236 45 q 262 169 254 132 q 274 233 269 205 q 279 271 279 260 q 272 286 279 277 q 253 308 264 296 q 228 333 241 319 q 203 359 214 346 q 184 385 192 372 q 176 408 176 397 q 187 430 176 417 q 215 456 198 442 q 252 483 231 469 q 291 510 272 497 q 325 533 310 522 q 347 551 340 543 q 358 575 351 555 q 374 626 365 595 q 395 695 384 656 q 418 773 406 733 q 444 853 431 814 q 470 927 457 893 q 496 984 484 960 q 521 1017 509 1008 q 567 1041 536 1029 q 636 1064 598 1053 q 715 1085 675 1076 q 790 1101 756 1095 l 785 946 q 746 934 768 941 q 704 920 724 927 q 668 905 684 912 q 646 893 652 898 q 628 858 639 886 q 606 791 618 830 q 582 708 594 752 q 559 626 570 665 q 539 561 548 588 q 526 527 531 533 q 508 510 520 519 q 480 489 496 500 q 449 468 465 479 q 419 446 433 456 q 398 426 406 435 q 389 410 389 417 q 402 386 389 401 q 430 354 415 370 q 458 321 446 337 q 471 295 471 305 q 466 260 471 286 q 454 202 461 235 q 438 130 447 168 q 422 57 429 92 q 410 -8 415 21 q 405 -54 405 -37 q 418 -76 405 -66 q 452 -92 432 -85 q 494 -106 471 -100 q 536 -120 517 -113 l 463 -275 z "},"|":{"ha":454,"x_min":56,"x_max":532,"o":"m 532 1081 l 199 -269 l 56 -269 l 389 1081 l 532 1081 z "},"}":{"ha":692,"x_min":12,"x_max":642,"o":"m 372 1101 q 455 1081 413 1093 q 531 1054 496 1069 q 586 1022 565 1040 q 608 985 608 1004 q 603 918 608 958 q 590 833 597 878 q 574 744 583 789 q 557 661 565 699 q 545 594 550 622 q 540 555 540 566 q 547 539 540 549 q 566 518 555 530 q 591 493 578 506 q 616 466 604 479 q 635 440 627 453 q 642 418 642 428 q 631 396 642 408 q 604 370 621 383 q 567 342 587 356 q 528 316 547 328 q 493 293 509 303 q 472 275 478 282 q 461 251 468 271 q 445 200 454 231 q 425 131 436 170 q 401 52 413 92 q 375 -28 389 12 q 349 -101 362 -68 q 322 -158 336 -134 q 298 -191 309 -182 q 249 -216 282 -203 q 175 -239 216 -228 q 91 -259 134 -250 q 12 -275 48 -269 l 17 -120 q 60 -109 35 -115 q 107 -94 84 -102 q 149 -80 130 -87 q 173 -67 167 -73 q 186 -45 178 -62 q 202 -2 193 -27 q 219 55 210 24 q 237 117 228 85 q 254 180 245 149 q 270 236 262 211 q 282 278 277 261 q 291 299 288 295 q 310 316 297 307 q 338 337 322 326 q 369 358 353 347 q 399 380 385 370 q 421 400 412 391 q 429 416 429 409 q 417 440 429 425 q 389 472 404 456 q 362 505 374 489 q 349 530 349 520 q 354 565 349 540 q 366 623 359 589 q 382 694 374 656 q 397 768 390 732 q 410 833 405 804 q 414 879 414 863 q 403 900 414 891 q 375 917 392 909 q 338 932 358 925 q 300 946 318 939 l 372 1101 z "},"~":{"ha":783,"x_min":31,"x_max":840,"o":"m 31 232 q 57 298 38 262 q 105 363 77 333 q 168 413 133 393 q 243 433 203 433 q 314 428 281 433 q 378 415 347 423 q 439 398 409 407 q 502 381 469 389 q 568 368 534 373 q 643 363 603 363 q 680 369 664 363 q 708 385 696 375 q 728 406 720 394 q 741 430 736 418 l 840 430 q 810 361 831 397 q 759 294 789 325 q 692 242 729 262 q 614 222 655 222 q 504 233 556 222 q 404 257 452 243 q 311 281 356 270 q 222 292 267 292 q 160 274 182 292 q 129 232 138 256 l 31 232 z "},"":{"ha":994,"x_min":-12,"x_max":1048,"o":"m 411 382 l 689 382 l 660 825 l 411 382 m 699 238 l 330 238 l 197 0 l -12 0 q 16 42 2 20 q 47 92 31 64 q 86 155 64 119 q 135 238 107 191 l 571 980 l 812 980 l 878 238 q 886 156 882 191 q 893 92 890 120 q 900 42 897 64 q 907 0 903 20 l 715 0 l 699 238 m 472 1199 q 483 1252 472 1227 q 514 1297 494 1278 q 560 1328 534 1316 q 616 1339 587 1339 q 657 1332 639 1339 q 689 1312 675 1324 q 709 1281 702 1299 q 716 1244 716 1264 q 705 1190 716 1215 q 674 1146 694 1165 q 628 1115 654 1126 q 572 1104 602 1104 q 532 1111 550 1104 q 500 1131 513 1118 q 479 1161 487 1143 q 472 1199 472 1178 m 804 1199 q 815 1252 804 1227 q 846 1296 827 1277 q 892 1327 865 1316 q 948 1339 918 1339 q 989 1332 970 1339 q 1020 1312 1007 1324 q 1041 1281 1034 1299 q 1048 1244 1048 1264 q 1037 1191 1048 1216 q 1006 1146 1025 1165 q 960 1115 987 1126 q 904 1104 934 1104 q 864 1111 882 1104 q 832 1131 846 1118 q 812 1161 819 1143 q 804 1199 804 1178 z "},"":{"ha":994,"x_min":-12,"x_max":907,"o":"m 411 382 l 689 382 l 660 825 l 411 382 m 699 238 l 330 238 l 197 0 l -12 0 q 16 42 2 20 q 47 92 31 64 q 86 155 64 119 q 135 238 107 191 l 571 980 l 812 980 l 878 238 q 886 156 882 191 q 893 92 890 120 q 900 42 897 64 q 907 0 903 20 l 715 0 l 699 238 m 551 1206 q 567 1279 551 1244 q 609 1338 583 1313 q 672 1378 636 1364 q 749 1393 709 1393 q 806 1382 780 1393 q 852 1353 833 1371 q 883 1310 872 1335 q 895 1257 895 1285 q 879 1184 895 1219 q 837 1125 863 1150 q 773 1085 810 1099 q 696 1070 737 1070 q 640 1081 666 1070 q 593 1110 613 1092 q 563 1153 574 1128 q 551 1206 551 1178 m 714 1168 q 742 1173 728 1168 q 766 1187 755 1178 q 783 1210 777 1197 q 789 1240 789 1223 q 773 1279 789 1263 q 732 1295 757 1295 q 705 1290 719 1295 q 681 1276 692 1285 q 664 1254 670 1267 q 657 1224 657 1240 q 673 1184 657 1201 q 714 1168 690 1168 z "},"":{"ha":920,"x_min":130,"x_max":1027,"o":"m 862 84 q 781 41 825 60 q 691 9 737 22 q 599 -11 646 -4 q 509 -17 552 -17 l 500 -17 l 488 -71 q 503 -68 495 -69 q 522 -67 510 -67 q 559 -74 543 -67 q 587 -93 576 -81 q 605 -121 599 -105 q 610 -156 610 -138 q 591 -226 610 -195 q 542 -281 572 -258 q 473 -316 511 -304 q 397 -329 435 -329 q 369 -327 383 -329 q 340 -321 354 -325 q 313 -313 326 -318 q 291 -302 300 -308 l 319 -215 q 355 -232 332 -227 q 402 -238 378 -238 q 431 -234 416 -238 q 460 -222 447 -230 q 483 -201 474 -214 q 492 -172 492 -189 q 478 -142 492 -154 q 442 -131 464 -131 q 403 -135 423 -131 q 371 -144 383 -139 l 405 -5 q 350 12 376 1 q 231 91 280 40 q 156 213 182 142 q 130 369 130 284 q 149 530 130 452 q 205 679 168 609 q 294 807 241 749 q 414 908 347 865 q 559 974 480 950 q 728 997 638 997 q 895 972 817 997 q 1027 903 972 947 l 939 741 q 833 812 895 790 q 705 834 772 834 q 594 818 646 834 q 500 771 543 801 q 424 701 457 742 q 367 612 390 661 q 332 510 345 564 q 320 399 320 455 q 380 212 320 277 q 553 148 439 148 q 633 156 591 148 q 716 178 675 163 q 798 215 758 193 q 872 265 838 237 l 862 84 z "},"":{"ha":808,"x_min":61,"x_max":991,"o":"m 781 587 l 744 437 l 373 437 l 302 155 l 477 155 q 641 156 575 155 q 747 165 706 157 l 707 0 l 61 0 q 98 117 78 41 q 144 292 119 193 l 243 688 q 284 864 267 788 q 305 980 302 939 l 930 980 l 892 825 l 470 825 l 410 587 l 781 587 m 991 1366 l 661 1097 l 498 1097 l 741 1366 l 991 1366 z "},"":{"ha":1034,"x_min":54,"x_max":1139,"o":"m 420 692 l 248 0 l 54 0 q 92 117 71 41 q 137 292 112 193 l 236 688 q 278 864 260 788 q 298 980 295 939 l 492 980 l 773 288 l 946 980 l 1139 980 q 1101 864 1122 939 q 1057 688 1081 788 l 885 0 l 702 0 l 420 692 m 431 1090 q 459 1167 441 1131 q 502 1232 477 1204 q 556 1276 526 1259 q 620 1292 586 1292 q 685 1282 653 1292 q 753 1257 717 1272 q 804 1234 784 1244 q 842 1223 823 1223 q 866 1228 854 1223 q 888 1241 878 1233 q 906 1261 898 1250 q 917 1285 913 1272 l 1022 1285 q 991 1205 1011 1242 q 946 1141 972 1168 q 888 1099 920 1114 q 822 1084 857 1084 q 764 1093 790 1084 q 705 1117 737 1101 q 650 1143 674 1133 q 606 1154 625 1154 q 583 1149 594 1154 q 563 1136 572 1144 q 546 1116 553 1127 q 536 1090 539 1104 l 431 1090 z "},"":{"ha":1004,"x_min":130,"x_max":1053,"o":"m 1030 618 q 1009 435 1030 520 q 949 280 987 351 q 859 154 911 210 q 744 61 806 99 q 612 3 682 23 q 470 -17 543 -17 q 333 11 395 -17 q 225 88 271 38 q 155 208 180 138 q 130 366 130 279 q 147 523 130 446 q 199 671 165 601 q 281 801 233 741 q 393 904 330 861 q 532 972 456 947 q 696 997 608 997 q 841 970 778 997 q 945 893 903 943 q 1009 774 987 844 q 1030 618 1030 704 m 511 148 q 608 165 563 148 q 689 213 652 182 q 753 287 725 244 q 800 380 781 330 q 829 488 819 431 q 839 604 839 545 q 826 702 839 659 q 790 773 814 744 q 732 818 766 802 q 655 833 698 833 q 516 797 578 833 q 411 699 454 760 q 343 556 367 637 q 319 385 319 475 q 333 284 319 328 q 371 210 346 240 q 432 164 396 180 q 511 148 467 148 m 477 1199 q 489 1252 477 1227 q 519 1297 500 1278 q 566 1328 539 1316 q 622 1339 592 1339 q 663 1332 644 1339 q 694 1312 681 1324 q 714 1281 707 1299 q 722 1244 722 1264 q 710 1190 722 1215 q 680 1146 699 1165 q 634 1115 660 1126 q 577 1104 608 1104 q 537 1111 555 1104 q 506 1131 519 1118 q 485 1161 492 1143 q 477 1199 477 1178 m 810 1199 q 821 1252 810 1227 q 851 1296 832 1277 q 897 1327 871 1316 q 954 1339 924 1339 q 994 1332 976 1339 q 1026 1312 1013 1324 q 1046 1281 1039 1299 q 1053 1244 1053 1264 q 1042 1191 1053 1216 q 1011 1146 1031 1165 q 966 1115 992 1126 q 909 1104 939 1104 q 869 1111 888 1104 q 838 1131 851 1118 q 817 1161 825 1143 q 810 1199 810 1178 z "},"":{"ha":997,"x_min":155,"x_max":1095,"o":"m 1095 980 q 1058 866 1078 939 q 1013 688 1038 793 l 920 319 q 769 69 878 155 q 473 -17 659 -17 q 334 5 394 -17 q 234 65 274 26 q 175 157 195 104 q 155 274 155 211 q 169 387 155 328 l 243 688 q 284 864 267 788 q 305 980 302 939 l 509 980 l 363 395 q 353 344 357 370 q 349 295 349 319 q 357 233 349 262 q 382 183 365 204 q 429 149 400 161 q 498 137 457 137 q 593 154 553 137 q 662 202 633 171 q 709 277 690 233 q 741 376 728 321 l 892 980 l 1095 980 m 472 1199 q 483 1252 472 1227 q 514 1297 494 1278 q 560 1328 534 1316 q 616 1339 587 1339 q 657 1332 639 1339 q 689 1312 675 1324 q 709 1281 702 1299 q 716 1244 716 1264 q 705 1190 716 1215 q 674 1146 694 1165 q 628 1115 654 1126 q 572 1104 602 1104 q 532 1111 550 1104 q 500 1131 513 1118 q 479 1161 487 1143 q 472 1199 472 1178 m 804 1199 q 815 1252 804 1227 q 846 1296 827 1277 q 892 1327 865 1316 q 948 1339 918 1339 q 989 1332 970 1339 q 1020 1312 1007 1324 q 1041 1281 1034 1299 q 1048 1244 1048 1264 q 1037 1191 1048 1216 q 1006 1146 1025 1165 q 960 1115 987 1126 q 904 1104 934 1104 q 864 1111 882 1104 q 832 1131 846 1118 q 812 1161 819 1143 q 804 1199 804 1178 z "},"":{"ha":691,"x_min":102,"x_max":745,"o":"m 673 488 q 636 514 654 504 q 600 532 618 525 q 559 541 581 538 q 511 544 538 544 q 428 526 469 544 q 355 475 387 509 q 303 393 323 441 q 283 282 283 345 q 292 227 283 253 q 320 181 302 201 q 365 149 338 161 q 424 138 391 138 q 485 142 457 138 q 538 156 513 146 q 587 179 564 165 q 635 211 611 193 l 629 47 q 522 0 582 17 q 386 -17 462 -17 q 372 -16 378 -17 l 359 -71 q 374 -68 366 -69 q 393 -67 381 -67 q 430 -74 414 -67 q 458 -93 447 -81 q 476 -121 470 -105 q 481 -156 481 -138 q 463 -226 481 -195 q 413 -281 444 -258 q 344 -316 382 -304 q 268 -329 306 -329 q 240 -327 254 -329 q 211 -321 225 -325 q 184 -313 197 -318 q 162 -302 171 -308 l 191 -215 q 226 -232 203 -227 q 273 -238 250 -238 q 302 -234 287 -238 q 332 -222 318 -230 q 354 -201 345 -214 q 363 -172 363 -189 q 349 -142 363 -154 q 313 -131 335 -131 q 274 -135 294 -131 q 242 -144 254 -139 l 277 2 q 276 3 277 2 q 186 59 224 22 q 124 147 147 96 q 102 262 102 199 q 137 441 102 360 q 232 579 172 522 q 371 667 292 636 q 540 699 451 699 q 660 684 608 699 q 745 650 713 670 l 673 488 z "},"":{"ha":737,"x_min":100,"x_max":869,"o":"m 484 557 q 422 547 452 557 q 366 517 392 537 q 320 467 340 496 q 288 397 300 437 q 361 393 327 393 q 467 400 423 393 q 537 419 510 407 q 577 449 565 431 q 589 488 589 467 q 562 539 589 520 q 484 557 534 557 m 676 50 q 598 19 635 32 q 525 -2 561 6 q 453 -13 489 -9 q 377 -17 416 -17 q 270 3 320 -17 q 181 59 219 22 q 122 147 144 95 q 100 263 100 199 q 134 442 100 361 q 226 579 168 522 q 360 667 283 636 q 522 699 437 699 q 623 686 578 699 q 699 649 668 673 q 747 594 730 626 q 763 525 763 562 q 739 432 763 476 q 667 354 715 388 q 549 300 620 320 q 386 280 479 280 q 332 281 362 280 q 272 286 302 283 q 280 225 273 253 q 305 177 288 197 q 349 146 322 157 q 412 134 375 134 q 547 151 479 134 q 687 205 614 168 l 676 50 m 869 1074 l 538 806 l 376 806 l 618 1074 l 869 1074 z "},"":{"ha":737,"x_min":100,"x_max":763,"o":"m 484 557 q 422 547 452 557 q 366 517 392 537 q 320 467 340 496 q 288 397 300 437 q 361 393 327 393 q 467 400 423 393 q 537 419 510 407 q 577 449 565 431 q 589 488 589 467 q 562 539 589 520 q 484 557 534 557 m 676 50 q 598 19 635 32 q 525 -2 561 6 q 453 -13 489 -9 q 377 -17 416 -17 q 270 3 320 -17 q 181 59 219 22 q 122 147 144 95 q 100 263 100 199 q 134 442 100 361 q 226 579 168 522 q 360 667 283 636 q 522 699 437 699 q 623 686 578 699 q 699 649 668 673 q 747 594 730 626 q 763 525 763 562 q 739 432 763 476 q 667 354 715 388 q 549 300 620 320 q 386 280 479 280 q 332 281 362 280 q 272 286 302 283 q 280 225 273 253 q 305 177 288 197 q 349 146 322 157 q 412 134 375 134 q 547 151 479 134 q 687 205 614 168 l 676 50 m 524 1074 l 674 806 l 518 806 l 300 1074 l 524 1074 z "},"":{"ha":737,"x_min":100,"x_max":793,"o":"m 484 557 q 422 547 452 557 q 366 517 392 537 q 320 467 340 496 q 288 397 300 437 q 361 393 327 393 q 467 400 423 393 q 537 419 510 407 q 577 449 565 431 q 589 488 589 467 q 562 539 589 520 q 484 557 534 557 m 676 50 q 598 19 635 32 q 525 -2 561 6 q 453 -13 489 -9 q 377 -17 416 -17 q 270 3 320 -17 q 181 59 219 22 q 122 147 144 95 q 100 263 100 199 q 134 442 100 361 q 226 579 168 522 q 360 667 283 636 q 522 699 437 699 q 623 686 578 699 q 699 649 668 673 q 747 594 730 626 q 763 525 763 562 q 739 432 763 476 q 667 354 715 388 q 549 300 620 320 q 386 280 479 280 q 332 281 362 280 q 272 286 302 283 q 280 225 273 253 q 305 177 288 197 q 349 146 322 157 q 412 134 375 134 q 547 151 479 134 q 687 205 614 168 l 676 50 m 631 806 l 534 960 l 360 806 l 197 806 l 447 1074 l 650 1074 l 793 806 l 631 806 z "},"":{"ha":737,"x_min":100,"x_max":843,"o":"m 484 557 q 422 547 452 557 q 366 517 392 537 q 320 467 340 496 q 288 397 300 437 q 361 393 327 393 q 467 400 423 393 q 537 419 510 407 q 577 449 565 431 q 589 488 589 467 q 562 539 589 520 q 484 557 534 557 m 676 50 q 598 19 635 32 q 525 -2 561 6 q 453 -13 489 -9 q 377 -17 416 -17 q 270 3 320 -17 q 181 59 219 22 q 122 147 144 95 q 100 263 100 199 q 134 442 100 361 q 226 579 168 522 q 360 667 283 636 q 522 699 437 699 q 623 686 578 699 q 699 649 668 673 q 747 594 730 626 q 763 525 763 562 q 739 432 763 476 q 667 354 715 388 q 549 300 620 320 q 386 280 479 280 q 332 281 362 280 q 272 286 302 283 q 280 225 273 253 q 305 177 288 197 q 349 146 322 157 q 412 134 375 134 q 547 151 479 134 q 687 205 614 168 l 676 50 m 267 907 q 278 961 267 935 q 309 1005 290 986 q 355 1036 329 1025 q 412 1047 382 1047 q 452 1040 434 1047 q 484 1020 471 1033 q 504 990 497 1007 q 511 952 511 972 q 500 899 511 924 q 469 854 489 873 q 424 824 450 835 q 367 812 397 812 q 327 820 345 812 q 295 839 309 827 q 275 869 282 852 q 267 907 267 886 m 600 907 q 611 960 600 935 q 641 1005 622 985 q 687 1036 661 1024 q 743 1047 713 1047 q 784 1040 766 1047 q 815 1020 802 1033 q 836 990 829 1007 q 843 952 843 972 q 832 899 843 924 q 801 854 821 873 q 755 824 782 835 q 699 812 729 812 q 659 820 677 812 q 628 839 641 827 q 607 869 614 852 q 600 907 600 886 z "},"":{"ha":424,"x_min":115,"x_max":722,"o":"m 424 685 q 416 613 422 650 q 401 537 410 576 q 381 456 392 498 q 360 370 370 414 l 330 243 q 323 213 327 231 q 317 175 320 196 q 313 132 315 155 q 311 85 311 109 q 313 41 311 63 q 320 0 315 20 l 120 0 q 116 29 117 14 q 115 60 115 44 q 118 114 115 86 q 125 168 121 141 q 134 219 129 195 q 144 264 139 244 l 171 371 q 191 451 180 410 q 211 532 202 492 q 225 612 220 573 q 231 685 231 651 l 424 685 m 722 1074 l 391 806 l 229 806 l 471 1074 l 722 1074 z "},"":{"ha":424,"x_min":115,"x_max":527,"o":"m 424 685 q 416 613 422 650 q 401 537 410 576 q 381 456 392 498 q 360 370 370 414 l 330 243 q 323 213 327 231 q 317 175 320 196 q 313 132 315 155 q 311 85 311 109 q 313 41 311 63 q 320 0 315 20 l 120 0 q 116 29 117 14 q 115 60 115 44 q 118 114 115 86 q 125 168 121 141 q 134 219 129 195 q 144 264 139 244 l 171 371 q 191 451 180 410 q 211 532 202 492 q 225 612 220 573 q 231 685 231 651 l 424 685 m 376 1074 l 527 806 l 371 806 l 153 1074 l 376 1074 z "},"":{"ha":424,"x_min":50,"x_max":646,"o":"m 424 685 q 416 613 422 650 q 401 537 410 576 q 381 456 392 498 q 360 370 370 414 l 330 243 q 323 213 327 231 q 317 175 320 196 q 313 132 315 155 q 311 85 311 109 q 313 41 311 63 q 320 0 315 20 l 120 0 q 116 29 117 14 q 115 60 115 44 q 118 114 115 86 q 125 168 121 141 q 134 219 129 195 q 144 264 139 244 l 171 371 q 191 451 180 410 q 211 532 202 492 q 225 612 220 573 q 231 685 231 651 l 424 685 m 484 806 l 387 960 l 213 806 l 50 806 l 300 1074 l 503 1074 l 646 806 l 484 806 z "},"":{"ha":424,"x_min":115,"x_max":696,"o":"m 424 685 q 416 613 422 650 q 401 537 410 576 q 381 456 392 498 q 360 370 370 414 l 330 243 q 323 213 327 231 q 317 175 320 196 q 313 132 315 155 q 311 85 311 109 q 313 41 311 63 q 320 0 315 20 l 120 0 q 116 29 117 14 q 115 60 115 44 q 118 114 115 86 q 125 168 121 141 q 134 219 129 195 q 144 264 139 244 l 171 371 q 191 451 180 410 q 211 532 202 492 q 225 612 220 573 q 231 685 231 651 l 424 685 m 120 907 q 131 961 120 935 q 162 1005 142 986 q 208 1036 182 1025 q 264 1047 235 1047 q 305 1040 287 1047 q 337 1020 323 1033 q 357 990 350 1007 q 364 952 364 972 q 353 899 364 924 q 322 854 342 873 q 276 824 302 835 q 220 812 250 812 q 180 820 198 812 q 148 839 161 827 q 127 869 135 852 q 120 907 120 886 m 452 907 q 464 960 452 935 q 494 1005 475 985 q 540 1036 513 1024 q 596 1047 566 1047 q 637 1040 618 1047 q 668 1020 655 1033 q 689 990 682 1007 q 696 952 696 972 q 685 899 696 924 q 654 854 673 873 q 608 824 635 835 q 552 812 582 812 q 512 820 530 812 q 480 839 494 827 q 460 869 467 852 q 452 907 452 886 z "},"":{"ha":869,"x_min":75,"x_max":853,"o":"m 587 0 q 582 32 583 16 q 581 64 581 48 q 587 139 581 101 q 604 221 593 180 q 625 298 614 262 q 642 367 635 335 q 650 424 650 399 q 630 506 650 479 q 566 534 611 534 q 530 522 550 534 q 489 491 511 511 q 445 446 467 472 q 402 391 423 420 q 364 332 382 362 q 332 275 346 302 l 263 0 l 75 0 l 177 413 q 185 462 182 432 q 192 526 189 492 q 195 593 194 559 q 197 652 197 626 l 197 685 l 383 685 q 385 661 385 673 q 386 633 386 648 q 384 598 386 618 q 380 558 382 578 q 375 518 378 538 q 370 485 372 499 q 443 572 406 532 q 519 640 481 612 q 597 683 558 667 q 675 699 636 699 q 758 682 724 699 q 813 637 792 665 q 844 571 834 609 q 853 492 853 534 q 844 414 853 458 q 822 324 835 370 q 798 234 810 278 q 779 155 785 190 q 773 108 775 131 q 772 61 772 85 q 773 30 772 45 q 777 0 774 15 l 587 0 m 260 799 q 288 876 270 839 q 331 940 307 912 q 385 984 355 968 q 449 1000 415 1000 q 514 990 482 1000 q 583 965 546 980 q 633 942 613 953 q 671 931 652 931 q 695 936 683 931 q 717 950 707 941 q 735 969 727 958 q 746 994 743 981 l 851 994 q 821 913 840 950 q 775 849 801 876 q 717 807 749 823 q 651 792 686 792 q 593 801 619 792 q 534 825 566 810 q 479 851 503 841 q 435 862 454 862 q 412 857 423 862 q 392 844 401 852 q 375 824 382 836 q 365 799 368 812 l 260 799 z "},"":{"ha":772,"x_min":95,"x_max":898,"o":"m 487 547 q 395 520 435 547 q 328 451 355 493 q 288 359 301 410 q 274 261 274 308 q 303 167 274 199 q 384 134 332 134 q 474 159 434 134 q 541 224 513 184 q 582 314 568 264 q 596 415 596 364 q 569 513 596 479 q 487 547 542 547 m 95 251 q 109 366 95 310 q 149 472 123 422 q 212 563 174 522 q 297 635 250 605 q 402 682 345 665 q 524 699 459 699 q 629 680 583 699 q 709 628 676 662 q 759 545 741 593 q 776 435 776 496 q 747 265 776 347 q 663 121 718 184 q 529 21 608 58 q 353 -17 451 -17 q 246 2 294 -17 q 165 55 199 20 q 113 140 132 90 q 95 251 95 189 m 898 1074 l 568 806 l 405 806 l 648 1074 l 898 1074 z "},"":{"ha":772,"x_min":95,"x_max":776,"o":"m 487 547 q 395 520 435 547 q 328 451 355 493 q 288 359 301 410 q 274 261 274 308 q 303 167 274 199 q 384 134 332 134 q 474 159 434 134 q 541 224 513 184 q 582 314 568 264 q 596 415 596 364 q 569 513 596 479 q 487 547 542 547 m 95 251 q 109 366 95 310 q 149 472 123 422 q 212 563 174 522 q 297 635 250 605 q 402 682 345 665 q 524 699 459 699 q 629 680 583 699 q 709 628 676 662 q 759 545 741 593 q 776 435 776 496 q 747 265 776 347 q 663 121 718 184 q 529 21 608 58 q 353 -17 451 -17 q 246 2 294 -17 q 165 55 199 20 q 113 140 132 90 q 95 251 95 189 m 553 1074 l 703 806 l 547 806 l 329 1074 l 553 1074 z "},"":{"ha":772,"x_min":95,"x_max":823,"o":"m 487 547 q 395 520 435 547 q 328 451 355 493 q 288 359 301 410 q 274 261 274 308 q 303 167 274 199 q 384 134 332 134 q 474 159 434 134 q 541 224 513 184 q 582 314 568 264 q 596 415 596 364 q 569 513 596 479 q 487 547 542 547 m 95 251 q 109 366 95 310 q 149 472 123 422 q 212 563 174 522 q 297 635 250 605 q 402 682 345 665 q 524 699 459 699 q 629 680 583 699 q 709 628 676 662 q 759 545 741 593 q 776 435 776 496 q 747 265 776 347 q 663 121 718 184 q 529 21 608 58 q 353 -17 451 -17 q 246 2 294 -17 q 165 55 199 20 q 113 140 132 90 q 95 251 95 189 m 661 806 l 564 960 l 389 806 l 227 806 l 476 1074 l 680 1074 l 823 806 l 661 806 z "},"":{"ha":772,"x_min":95,"x_max":872,"o":"m 487 547 q 395 520 435 547 q 328 451 355 493 q 288 359 301 410 q 274 261 274 308 q 303 167 274 199 q 384 134 332 134 q 474 159 434 134 q 541 224 513 184 q 582 314 568 264 q 596 415 596 364 q 569 513 596 479 q 487 547 542 547 m 95 251 q 109 366 95 310 q 149 472 123 422 q 212 563 174 522 q 297 635 250 605 q 402 682 345 665 q 524 699 459 699 q 629 680 583 699 q 709 628 676 662 q 759 545 741 593 q 776 435 776 496 q 747 265 776 347 q 663 121 718 184 q 529 21 608 58 q 353 -17 451 -17 q 246 2 294 -17 q 165 55 199 20 q 113 140 132 90 q 95 251 95 189 m 296 907 q 308 961 296 935 q 338 1005 319 986 q 385 1036 358 1025 q 441 1047 411 1047 q 481 1040 463 1047 q 513 1020 500 1033 q 533 990 526 1007 q 541 952 541 972 q 529 899 541 924 q 498 854 518 873 q 453 824 479 835 q 396 812 427 812 q 356 820 374 812 q 325 839 338 827 q 304 869 311 852 q 296 907 296 886 m 629 907 q 640 960 629 935 q 670 1005 651 985 q 716 1036 690 1024 q 772 1047 743 1047 q 813 1040 795 1047 q 845 1020 831 1033 q 865 990 858 1007 q 872 952 872 972 q 861 899 872 924 q 830 854 850 873 q 785 824 811 835 q 728 812 758 812 q 688 820 707 812 q 657 839 670 827 q 636 869 644 852 q 629 907 629 886 z "},"":{"ha":772,"x_min":95,"x_max":824,"o":"m 487 547 q 395 520 435 547 q 328 451 355 493 q 288 359 301 410 q 274 261 274 308 q 303 167 274 199 q 384 134 332 134 q 474 159 434 134 q 541 224 513 184 q 582 314 568 264 q 596 415 596 364 q 569 513 596 479 q 487 547 542 547 m 95 251 q 109 366 95 310 q 149 472 123 422 q 212 563 174 522 q 297 635 250 605 q 402 682 345 665 q 524 699 459 699 q 629 680 583 699 q 709 628 676 662 q 759 545 741 593 q 776 435 776 496 q 747 265 776 347 q 663 121 718 184 q 529 21 608 58 q 353 -17 451 -17 q 246 2 294 -17 q 165 55 199 20 q 113 140 132 90 q 95 251 95 189 m 233 799 q 261 876 243 839 q 304 940 279 912 q 358 984 328 968 q 422 1000 388 1000 q 487 990 455 1000 q 555 965 519 980 q 606 942 586 953 q 644 931 625 931 q 668 936 656 931 q 690 950 680 941 q 708 969 700 958 q 719 994 715 981 l 824 994 q 793 913 813 950 q 748 849 774 876 q 690 807 722 823 q 624 792 659 792 q 566 801 592 792 q 507 825 539 810 q 452 851 476 841 q 408 862 427 862 q 385 857 396 862 q 365 844 374 852 q 348 824 355 836 q 338 799 341 812 l 233 799 z "},"":{"ha":852,"x_min":112,"x_max":922,"o":"m 571 0 q 572 40 571 14 q 575 96 573 66 q 578 154 576 126 q 583 200 581 182 q 545 152 568 177 q 496 103 523 127 q 439 57 469 79 q 378 19 409 35 q 317 -7 347 3 q 258 -17 286 -17 q 199 -7 226 -17 q 152 24 172 3 q 122 74 133 44 q 112 145 112 104 q 116 204 112 172 q 130 272 120 235 l 179 470 q 193 528 187 502 q 204 579 199 555 q 213 629 209 604 q 219 685 216 654 l 414 685 q 400 599 411 647 q 372 483 389 551 q 365 456 370 475 q 353 412 359 437 q 339 358 347 387 q 327 302 332 330 q 317 250 321 274 q 313 209 313 225 q 327 156 313 172 q 364 139 340 139 q 398 151 378 139 q 443 182 419 162 q 492 229 467 202 q 541 284 517 255 q 585 345 565 314 q 617 404 604 375 q 640 495 631 458 q 655 555 649 531 q 663 595 661 580 q 668 624 666 611 q 670 651 669 637 q 673 685 671 665 l 869 685 q 859 618 867 659 q 839 530 851 578 q 813 425 827 481 q 785 309 799 368 q 763 186 771 250 q 754 68 754 122 q 755 32 754 48 q 758 0 755 15 l 571 0 m 922 1074 l 591 806 l 429 806 l 671 1074 l 922 1074 z "},"":{"ha":852,"x_min":112,"x_max":869,"o":"m 571 0 q 572 40 571 14 q 575 96 573 66 q 578 154 576 126 q 583 200 581 182 q 545 152 568 177 q 496 103 523 127 q 439 57 469 79 q 378 19 409 35 q 317 -7 347 3 q 258 -17 286 -17 q 199 -7 226 -17 q 152 24 172 3 q 122 74 133 44 q 112 145 112 104 q 116 204 112 172 q 130 272 120 235 l 179 470 q 193 528 187 502 q 204 579 199 555 q 213 629 209 604 q 219 685 216 654 l 414 685 q 400 599 411 647 q 372 483 389 551 q 365 456 370 475 q 353 412 359 437 q 339 358 347 387 q 327 302 332 330 q 317 250 321 274 q 313 209 313 225 q 327 156 313 172 q 364 139 340 139 q 398 151 378 139 q 443 182 419 162 q 492 229 467 202 q 541 284 517 255 q 585 345 565 314 q 617 404 604 375 q 640 495 631 458 q 655 555 649 531 q 663 595 661 580 q 668 624 666 611 q 670 651 669 637 q 673 685 671 665 l 869 685 q 859 618 867 659 q 839 530 851 578 q 813 425 827 481 q 785 309 799 368 q 763 186 771 250 q 754 68 754 122 q 755 32 754 48 q 758 0 755 15 l 571 0 m 576 1074 l 727 806 l 571 806 l 353 1074 l 576 1074 z "},"":{"ha":852,"x_min":112,"x_max":869,"o":"m 571 0 q 572 40 571 14 q 575 96 573 66 q 578 154 576 126 q 583 200 581 182 q 545 152 568 177 q 496 103 523 127 q 439 57 469 79 q 378 19 409 35 q 317 -7 347 3 q 258 -17 286 -17 q 199 -7 226 -17 q 152 24 172 3 q 122 74 133 44 q 112 145 112 104 q 116 204 112 172 q 130 272 120 235 l 179 470 q 193 528 187 502 q 204 579 199 555 q 213 629 209 604 q 219 685 216 654 l 414 685 q 400 599 411 647 q 372 483 389 551 q 365 456 370 475 q 353 412 359 437 q 339 358 347 387 q 327 302 332 330 q 317 250 321 274 q 313 209 313 225 q 327 156 313 172 q 364 139 340 139 q 398 151 378 139 q 443 182 419 162 q 492 229 467 202 q 541 284 517 255 q 585 345 565 314 q 617 404 604 375 q 640 495 631 458 q 655 555 649 531 q 663 595 661 580 q 668 624 666 611 q 670 651 669 637 q 673 685 671 665 l 869 685 q 859 618 867 659 q 839 530 851 578 q 813 425 827 481 q 785 309 799 368 q 763 186 771 250 q 754 68 754 122 q 755 32 754 48 q 758 0 755 15 l 571 0 m 684 806 l 587 960 l 413 806 l 250 806 l 500 1074 l 703 1074 l 846 806 l 684 806 z "},"":{"ha":852,"x_min":112,"x_max":896,"o":"m 571 0 q 572 40 571 14 q 575 96 573 66 q 578 154 576 126 q 583 200 581 182 q 545 152 568 177 q 496 103 523 127 q 439 57 469 79 q 378 19 409 35 q 317 -7 347 3 q 258 -17 286 -17 q 199 -7 226 -17 q 152 24 172 3 q 122 74 133 44 q 112 145 112 104 q 116 204 112 172 q 130 272 120 235 l 179 470 q 193 528 187 502 q 204 579 199 555 q 213 629 209 604 q 219 685 216 654 l 414 685 q 400 599 411 647 q 372 483 389 551 q 365 456 370 475 q 353 412 359 437 q 339 358 347 387 q 327 302 332 330 q 317 250 321 274 q 313 209 313 225 q 327 156 313 172 q 364 139 340 139 q 398 151 378 139 q 443 182 419 162 q 492 229 467 202 q 541 284 517 255 q 585 345 565 314 q 617 404 604 375 q 640 495 631 458 q 655 555 649 531 q 663 595 661 580 q 668 624 666 611 q 670 651 669 637 q 673 685 671 665 l 869 685 q 859 618 867 659 q 839 530 851 578 q 813 425 827 481 q 785 309 799 368 q 763 186 771 250 q 754 68 754 122 q 755 32 754 48 q 758 0 755 15 l 571 0 m 320 907 q 331 961 320 935 q 362 1005 342 986 q 408 1036 382 1025 q 465 1047 435 1047 q 505 1040 487 1047 q 537 1020 524 1033 q 557 990 550 1007 q 564 952 564 972 q 553 899 564 924 q 522 854 542 873 q 476 824 503 835 q 420 812 450 812 q 380 820 398 812 q 348 839 361 827 q 328 869 335 852 q 320 907 320 886 m 652 907 q 664 960 652 935 q 694 1005 675 985 q 740 1036 713 1024 q 796 1047 766 1047 q 837 1040 819 1047 q 868 1020 855 1033 q 889 990 882 1007 q 896 952 896 972 q 885 899 896 924 q 854 854 873 873 q 808 824 835 835 q 752 812 782 812 q 712 820 730 812 q 681 839 694 827 q 660 869 667 852 q 652 907 652 886 z "},"":{"ha":680,"x_min":125,"x_max":817,"o":"m 779 587 q 705 590 739 589 q 640 592 670 591 q 581 593 609 593 q 527 594 553 594 l 519 561 q 440 238 482 415 q 353 -158 397 60 l 180 -158 q 290 238 244 60 q 373 561 336 415 l 381 594 q 326 593 354 594 q 267 592 298 593 q 200 590 235 591 q 125 587 165 589 l 163 739 q 237 735 202 736 q 302 733 271 734 q 360 732 332 732 q 414 732 388 732 q 447 876 431 803 q 472 1014 462 948 l 645 1014 q 602 876 623 948 q 562 732 581 803 q 620 732 593 732 q 677 733 648 732 q 740 735 707 734 q 817 739 774 736 l 779 587 z "},"":{"ha":471,"x_min":195,"x_max":607,"o":"m 195 760 q 216 850 195 808 q 270 926 236 893 q 350 978 304 958 q 445 997 395 997 q 511 985 481 997 q 563 953 541 974 q 595 903 584 932 q 607 842 607 875 q 587 751 607 795 q 534 672 568 707 q 455 618 500 638 q 359 597 410 597 q 292 610 322 597 q 240 645 262 623 q 207 696 219 667 q 195 760 195 726 m 384 699 q 427 708 406 699 q 465 732 448 717 q 491 769 481 748 q 501 814 501 791 q 495 846 501 831 q 478 872 489 861 q 452 890 467 884 q 420 897 437 897 q 376 888 398 897 q 337 865 355 880 q 310 829 320 850 q 299 785 299 809 q 306 751 299 767 q 323 724 312 736 q 351 706 335 713 q 384 699 366 699 z "},"":{"ha":800,"x_min":139,"x_max":757,"o":"m 322 312 q 336 240 322 271 q 382 193 350 209 l 473 559 q 388 505 425 545 q 333 392 351 465 q 325 351 328 371 q 322 312 322 331 m 684 886 l 639 707 q 709 691 680 701 q 757 668 739 680 l 688 507 q 648 537 669 525 q 602 557 627 550 l 509 186 q 576 210 545 194 q 640 250 607 227 l 620 87 q 551 58 587 70 q 472 39 515 45 l 427 -141 l 299 -141 l 343 37 q 258 65 296 43 q 193 120 220 87 q 153 196 167 153 q 139 292 139 240 q 153 396 139 340 q 204 520 170 465 q 285 616 238 576 q 389 680 332 656 q 511 711 446 705 l 555 886 l 684 886 z "},"":{"ha":800,"x_min":47,"x_max":840,"o":"m 198 584 l 266 584 q 273 636 269 610 q 284 688 277 663 q 338 824 303 766 q 421 920 372 882 q 530 978 469 958 q 663 997 591 997 q 709 994 684 997 q 758 985 734 991 q 804 970 783 979 q 840 950 825 961 l 771 802 q 742 819 760 812 q 706 832 725 827 q 667 840 686 837 q 631 842 647 842 q 539 811 578 842 q 481 708 500 781 q 469 647 474 677 q 461 584 465 616 l 669 584 l 636 450 l 446 450 q 440 417 444 433 q 434 386 437 401 q 388 257 416 313 q 309 155 359 201 l 441 155 q 605 156 533 155 q 715 165 676 157 l 674 0 l 47 0 l 79 127 q 127 167 103 144 q 172 216 151 189 q 208 273 192 243 q 232 337 224 304 q 244 393 239 366 q 252 450 248 421 l 165 450 l 198 584 z "},"":{"ha":729,"x_min":-33,"x_max":808,"o":"m 308 392 q 331 338 308 367 q 389 279 353 310 q 443 289 418 282 q 487 309 469 296 q 516 338 506 321 q 527 380 527 356 q 509 425 527 399 q 447 484 491 450 q 401 477 425 482 q 356 461 377 472 q 321 434 335 451 q 308 392 308 417 m 741 783 q 704 804 725 793 q 656 825 682 815 q 599 840 630 834 q 533 846 568 846 q 439 829 471 846 q 407 783 407 812 q 415 753 407 768 q 441 719 423 739 q 490 673 460 700 q 566 607 521 646 q 625 551 599 577 q 668 499 650 525 q 694 449 685 474 q 703 395 703 423 q 657 251 703 311 q 524 160 612 192 q 575 79 555 123 q 595 -17 595 35 q 568 -142 595 -87 q 494 -236 541 -197 q 384 -295 447 -275 q 250 -315 321 -315 q 162 -309 205 -315 q 82 -293 119 -303 q 15 -268 45 -282 q -33 -238 -14 -254 l 45 -75 q 93 -112 66 -95 q 152 -140 121 -128 q 215 -159 182 -153 q 277 -165 248 -165 q 327 -157 302 -165 q 371 -132 351 -148 q 404 -93 391 -116 q 416 -43 416 -71 q 384 36 416 -5 q 284 128 352 77 q 169 253 205 189 q 132 375 132 317 q 174 505 132 447 q 301 599 216 564 q 248 681 265 639 q 231 764 231 722 q 260 862 231 819 q 335 936 288 905 q 441 981 381 966 q 564 997 500 997 q 642 992 605 997 q 710 980 679 987 q 765 962 741 972 q 808 943 790 953 l 741 783 z "},"":{"ha":624,"x_min":222,"x_max":585,"o":"m 222 475 q 238 553 222 516 q 284 618 255 590 q 351 662 313 646 q 433 678 390 678 q 494 667 466 678 q 542 635 522 655 q 574 588 562 615 q 585 530 585 562 q 568 453 585 490 q 522 389 551 416 q 455 345 493 361 q 373 329 416 329 q 313 340 340 329 q 264 371 285 351 q 233 418 244 391 q 222 475 222 445 z "},"":{"ha":736,"x_min":169,"x_max":912,"o":"m 810 883 l 590 0 l 478 0 l 698 883 l 589 883 l 370 0 l 258 0 l 382 500 q 310 510 348 500 q 241 542 273 519 q 189 599 210 564 q 169 687 169 635 q 197 810 169 756 q 273 902 225 865 q 384 960 321 940 q 515 980 446 980 l 912 980 l 888 883 l 810 883 z "},"":{"ha":972,"x_min":61,"x_max":1015,"o":"m 462 197 q 493 171 475 182 q 532 151 511 159 q 576 139 553 143 q 623 134 600 134 q 667 139 644 134 q 709 154 690 143 q 740 182 728 164 q 752 227 752 199 q 744 267 752 250 q 721 300 736 283 q 683 335 705 316 q 631 380 660 353 q 599 409 614 394 q 572 442 584 425 q 553 479 560 459 q 546 524 546 499 q 567 609 546 573 q 620 672 588 645 q 689 720 652 699 q 758 762 726 741 q 810 804 789 782 q 831 855 831 826 q 820 889 831 873 q 789 915 808 904 q 746 932 770 926 q 700 938 723 938 q 611 925 651 938 q 542 889 572 912 q 491 834 511 866 q 462 766 471 803 l 271 0 l 61 0 q 86 63 73 26 q 112 143 99 100 q 138 235 125 186 q 163 332 151 283 l 269 752 q 336 906 291 842 q 441 1010 382 970 q 571 1069 501 1050 q 711 1088 640 1088 q 844 1068 787 1088 q 939 1018 901 1049 q 996 947 977 987 q 1015 866 1015 907 q 994 782 1015 817 q 942 721 973 747 q 874 675 911 694 q 806 637 838 655 q 754 602 775 620 q 734 560 734 583 q 742 523 734 539 q 763 492 750 506 q 793 464 777 477 q 828 434 810 450 q 877 388 857 410 q 912 344 898 366 q 932 300 926 323 q 939 253 939 278 q 910 133 939 184 q 832 49 881 82 q 721 -1 784 16 q 590 -17 658 -17 q 533 -12 562 -17 q 478 1 505 -7 q 429 20 452 9 q 390 45 406 32 l 462 197 z "},"":{"ha":1034,"x_min":100,"x_max":1112,"o":"m 720 997 q 867 970 796 997 q 992 894 938 944 q 1080 770 1047 844 q 1112 604 1112 697 q 1094 463 1112 538 q 1036 308 1072 377 q 954 186 1000 239 q 852 95 907 133 q 737 32 797 56 q 616 -5 677 7 q 494 -17 554 -17 q 343 9 414 -17 q 217 84 271 35 q 132 206 163 134 q 100 372 100 279 q 105 444 100 407 q 120 522 110 481 q 176 674 141 606 q 257 794 211 742 q 357 885 302 847 q 471 948 411 924 q 593 985 530 973 q 720 997 656 997 m 692 889 q 547 867 618 889 q 413 799 475 845 q 304 683 351 753 q 233 514 257 612 q 218 399 218 454 q 242 270 218 327 q 307 173 266 213 q 403 113 348 134 q 521 92 458 92 q 664 113 593 92 q 795 179 734 134 q 903 294 856 224 q 974 461 949 363 q 985 522 981 492 q 989 578 989 551 q 965 708 989 650 q 902 806 942 766 q 807 868 861 846 q 692 889 753 889 m 481 376 q 456 271 467 317 q 444 202 446 226 l 317 202 q 340 272 328 227 q 366 376 351 317 l 422 601 q 436 658 429 630 q 448 710 443 686 q 457 753 454 734 q 462 785 461 772 q 521 787 490 785 q 581 788 547 787 q 650 789 615 789 q 724 779 690 789 q 783 751 758 770 q 821 706 807 733 q 834 645 834 680 q 828 597 834 622 q 804 538 819 562 q 768 498 789 514 q 723 471 748 481 q 669 451 698 460 q 687 413 676 435 q 708 365 697 390 q 731 313 720 339 q 754 264 743 286 q 772 225 764 241 q 784 202 780 208 l 642 202 l 553 436 l 496 436 l 481 376 m 519 524 l 581 524 q 627 528 606 524 q 664 541 648 532 q 693 567 681 551 q 711 609 705 583 q 714 633 714 624 q 689 681 714 666 q 619 696 664 696 l 600 696 q 587 695 593 696 l 576 694 q 562 694 570 694 l 519 524 z "},"":{"ha":1128,"x_min":136,"x_max":1134,"o":"m 774 244 q 727 219 752 229 q 676 203 702 210 q 625 195 650 197 q 577 192 600 192 q 487 210 527 192 q 420 261 448 229 q 377 337 392 293 q 363 432 363 380 q 375 526 363 477 q 431 656 395 604 q 514 741 468 709 q 611 786 559 772 q 713 800 663 800 q 800 784 758 800 q 876 737 841 769 l 823 634 q 762 680 791 664 q 694 696 732 696 q 634 688 664 696 q 577 658 604 679 q 529 603 551 637 q 495 519 507 569 q 485 441 485 477 q 493 382 485 409 q 518 337 502 356 q 555 308 534 319 q 604 298 577 298 q 695 314 648 298 q 783 365 742 330 l 774 244 m 725 998 q 881 969 806 998 q 1011 889 955 941 q 1100 763 1067 838 q 1134 597 1134 689 q 1129 527 1134 563 q 1115 452 1124 490 q 1025 237 1084 326 q 891 92 966 149 q 729 9 816 36 q 554 -17 642 -17 q 392 9 468 -17 q 258 87 315 36 q 169 211 201 138 q 136 379 136 285 q 140 449 136 413 q 155 524 145 486 q 244 735 185 646 q 379 883 302 825 q 545 969 456 941 q 725 998 634 998 m 699 890 q 562 867 629 890 q 436 798 494 844 q 333 683 378 752 q 265 519 288 613 q 251 410 251 460 q 276 282 251 340 q 347 181 302 224 q 453 115 392 138 q 586 91 515 91 q 721 113 656 91 q 842 180 787 135 q 939 294 897 225 q 1005 456 981 363 q 1020 573 1020 517 q 997 699 1020 641 q 931 799 973 757 q 829 866 888 842 q 699 890 770 890 z "},"":{"ha":1120,"x_min":214,"x_max":1236,"o":"m 675 979 l 652 888 q 612 894 633 892 q 568 895 591 895 l 488 895 l 412 593 q 391 502 399 541 q 381 440 382 462 l 260 440 q 282 502 271 462 q 307 593 293 541 l 382 895 l 302 895 q 258 894 280 895 q 214 888 236 892 l 237 979 l 675 979 m 1236 979 q 1185 737 1208 848 q 1165 643 1175 690 q 1148 555 1156 596 q 1135 484 1140 515 q 1128 440 1129 454 l 1027 440 l 1122 858 l 898 440 l 788 440 l 772 859 l 658 440 l 557 440 q 572 484 562 454 q 594 555 582 515 q 621 643 606 596 q 648 737 635 690 q 718 979 681 848 l 844 979 l 862 543 l 1099 979 l 1236 979 z "},"":{"ha":420,"x_min":120,"x_max":613,"o":"m 613 1074 l 283 806 l 120 806 l 363 1074 l 613 1074 z "},"":{"ha":570,"x_min":181,"x_max":757,"o":"m 181 907 q 192 961 181 935 q 223 1005 203 986 q 269 1036 243 1025 q 326 1047 296 1047 q 366 1040 348 1047 q 398 1020 385 1033 q 418 990 411 1007 q 425 952 425 972 q 414 899 425 924 q 383 854 403 873 q 337 824 363 835 q 281 812 311 812 q 241 820 259 812 q 209 839 222 827 q 189 869 196 852 q 181 907 181 886 m 513 907 q 525 960 513 935 q 555 1005 536 985 q 601 1036 574 1024 q 657 1047 627 1047 q 698 1040 680 1047 q 729 1020 716 1033 q 750 990 743 1007 q 757 952 757 972 q 746 899 757 924 q 715 854 734 873 q 669 824 696 835 q 613 812 643 812 q 573 820 591 812 q 542 839 555 827 q 521 869 528 852 q 513 907 513 886 z "},"":{"ha":800,"x_min":87,"x_max":871,"o":"m 871 816 l 751 685 l 862 685 l 827 544 l 623 544 l 525 436 l 800 436 l 765 296 l 397 296 l 250 134 l 87 134 l 234 296 l 114 296 l 149 436 l 362 436 l 460 544 l 176 544 l 211 685 l 589 685 l 708 816 l 871 816 z "},"":{"ha":1225,"x_min":-47,"x_max":1347,"o":"m 762 826 l 443 382 l 650 382 l 762 826 m 857 436 l 787 155 l 894 155 q 1057 156 991 155 q 1164 165 1122 157 l 1123 0 l 545 0 q 556 28 550 12 q 569 71 562 44 q 588 138 577 98 q 614 238 598 178 l 339 238 l 168 0 l -47 0 q -13 42 -31 20 q 27 92 5 64 q 76 155 49 119 q 138 238 102 191 l 689 980 l 1347 980 l 1308 826 l 954 826 l 895 587 l 1198 587 l 1160 436 l 857 436 z "},"":{"ha":1004,"x_min":58,"x_max":1101,"o":"m 511 148 q 608 165 563 148 q 689 213 652 182 q 753 287 725 244 q 800 380 781 330 q 829 488 819 431 q 839 604 839 545 q 828 694 839 655 l 408 176 q 511 148 451 148 m 319 385 q 333 284 319 329 l 755 804 q 709 825 734 818 q 655 833 684 833 q 516 797 578 833 q 411 699 454 760 q 343 556 367 637 q 319 385 319 475 m 1101 1029 l 967 864 q 1030 618 1030 767 q 1009 435 1030 520 q 949 280 987 351 q 859 154 911 210 q 744 61 806 99 q 612 3 682 23 q 470 -17 543 -17 q 374 -4 419 -17 q 291 33 330 9 l 221 -54 l 58 -54 l 199 120 q 148 230 166 168 q 130 366 130 292 q 147 523 130 446 q 199 671 165 601 q 281 801 233 741 q 393 904 330 861 q 532 972 456 947 q 696 997 608 997 q 794 985 749 997 q 876 952 839 974 l 939 1029 l 1101 1029 z "},"":{"ha":800,"x_min":99,"x_max":877,"o":"m 877 523 q 861 437 877 477 q 815 366 844 396 q 744 317 785 335 q 654 299 703 299 q 550 322 600 299 q 463 389 500 345 q 409 350 433 367 q 362 322 385 333 q 314 305 338 311 q 260 299 290 299 q 194 313 224 299 q 143 349 165 326 q 111 402 122 372 q 99 465 99 432 q 117 554 99 513 q 165 623 134 594 q 238 669 196 652 q 330 685 281 685 q 432 658 389 685 q 511 584 475 631 q 568 626 542 607 q 617 657 593 644 q 666 678 642 671 q 716 685 690 685 q 785 672 755 685 q 836 636 815 659 q 866 585 856 614 q 877 523 877 555 m 543 490 q 569 449 553 466 q 601 422 584 432 q 634 407 617 412 q 667 403 651 403 q 705 410 688 403 q 736 429 723 416 q 757 458 749 441 q 764 495 764 475 q 759 523 764 509 q 743 548 753 537 q 719 567 733 559 q 688 574 705 574 q 620 553 658 574 q 543 490 582 532 m 434 490 q 408 531 422 515 q 376 558 393 548 q 342 573 359 568 q 310 577 325 577 q 272 570 290 577 q 240 551 254 564 q 218 522 227 539 q 210 485 210 505 q 215 456 210 471 q 232 431 221 442 q 256 413 242 420 q 288 406 271 406 q 356 428 318 406 q 434 490 395 449 z "},"":{"ha":800,"x_min":91,"x_max":838,"o":"m 126 248 l 730 248 l 694 107 l 91 107 l 126 248 m 234 682 l 461 682 l 519 916 l 665 916 l 607 682 l 838 682 l 802 541 l 572 541 l 515 315 l 370 315 l 426 541 l 199 541 l 234 682 z "},"":{"ha":800,"x_min":24,"x_max":898,"o":"m 737 184 l 136 439 l 168 568 l 898 829 l 860 675 l 349 496 l 776 339 l 737 184 m 58 127 l 723 127 l 688 -14 l 24 -14 l 58 127 z "},"":{"ha":800,"x_min":37,"x_max":846,"o":"m 72 127 l 736 127 l 702 -14 l 37 -14 l 72 127 m 125 339 l 634 510 l 209 675 l 247 829 l 846 568 l 814 439 l 86 184 l 125 339 z "},"":{"ha":800,"x_min":100,"x_max":1027,"o":"m 188 591 l 342 591 l 300 715 q 277 780 288 748 q 254 843 267 811 q 227 909 242 876 q 193 980 212 943 l 405 980 l 510 608 l 800 980 l 1027 980 q 955 903 987 937 q 896 838 924 869 q 844 777 869 807 q 791 715 819 747 l 686 591 l 839 591 l 804 450 l 574 450 l 557 378 l 786 378 l 751 237 l 522 237 q 488 96 502 157 q 473 0 475 35 l 260 0 q 291 96 274 35 q 328 237 308 157 l 100 237 l 135 378 l 363 378 l 381 450 l 153 450 l 188 591 z "},"":{"ha":790,"x_min":-24,"x_max":872,"o":"m 566 0 q 560 39 563 16 q 557 87 557 61 q 559 124 557 106 q 500 63 530 90 q 443 19 471 37 q 391 -8 416 1 q 347 -17 366 -17 q 293 -11 317 -17 q 252 17 269 -5 l 222 -101 q 205 -174 212 -141 q 193 -234 198 -206 q 186 -284 189 -261 q 182 -329 183 -308 l -24 -329 l 174 470 q 189 528 182 502 q 199 579 195 555 q 208 629 204 604 q 214 685 212 654 l 418 685 q 381 537 399 608 q 366 475 374 507 q 350 414 357 444 q 336 357 342 384 q 325 312 330 331 q 314 261 318 284 q 311 220 311 238 q 332 158 311 177 q 400 138 353 138 q 445 152 419 138 q 496 186 470 165 q 545 233 522 208 q 582 281 568 258 l 629 470 q 643 529 637 503 q 654 580 650 555 q 662 629 659 604 q 669 685 665 654 l 872 685 q 836 539 853 610 q 820 476 828 509 q 804 413 812 444 l 789 353 q 777 302 782 325 q 750 172 759 230 q 742 65 742 114 q 746 0 742 31 l 566 0 z "},"":{"ha":747,"x_min":70,"x_max":831,"o":"m 597 397 q 574 420 589 408 q 539 443 559 433 q 491 460 518 453 q 431 467 465 467 q 365 455 396 467 q 309 421 334 443 q 266 370 284 400 q 239 304 248 340 q 236 285 237 294 q 235 265 235 275 q 241 217 235 241 q 261 173 248 193 q 295 142 275 154 q 343 130 315 130 q 414 152 379 130 q 482 210 450 173 q 544 295 515 246 q 597 397 573 343 m 329 926 q 368 945 347 936 q 414 961 390 954 q 462 972 437 968 q 511 977 487 977 q 665 951 604 977 q 764 884 727 926 q 815 789 800 842 q 831 678 831 735 q 826 607 831 642 q 812 538 821 571 q 765 394 793 464 q 701 262 737 323 q 621 149 665 200 q 527 60 577 97 q 422 2 477 23 q 307 -18 367 -18 q 207 2 251 -18 q 132 58 163 22 q 86 140 102 93 q 70 241 70 187 q 80 323 70 281 q 118 418 94 376 q 172 490 142 459 q 237 541 203 520 q 307 574 272 562 q 374 592 341 587 q 433 597 407 597 q 549 582 497 597 q 643 524 601 566 q 664 594 654 557 q 672 656 672 625 q 661 724 672 692 q 627 780 650 756 q 568 819 604 804 q 486 833 533 833 q 448 830 465 833 q 411 822 430 827 q 372 807 393 816 q 324 785 351 798 l 329 926 z "},"":{"ha":834,"x_min":3,"x_max":953,"o":"m 272 155 l 492 155 q 670 158 593 155 q 791 168 748 161 l 749 0 l 3 0 l 30 107 l 398 500 l 239 863 l 268 980 l 953 980 l 911 812 q 862 819 889 817 q 799 824 834 822 q 719 826 763 825 q 619 826 674 826 l 454 826 l 604 501 l 272 155 z "},"":{"ha":994,"x_min":61,"x_max":1092,"o":"m 471 829 l 264 0 l 61 0 q 98 115 79 41 q 143 289 118 189 l 243 688 q 284 864 267 788 q 305 980 302 939 l 1092 980 q 1054 864 1074 939 q 1009 688 1034 788 l 909 289 q 867 115 884 189 q 848 0 850 41 l 644 0 l 850 829 l 471 829 z "},"":{"ha":937,"x_min":134,"x_max":1033,"o":"m 861 551 l 786 252 q 763 145 770 189 q 755 64 755 101 q 757 32 755 48 q 761 0 758 16 l 564 0 q 560 42 560 19 q 564 92 560 65 q 574 149 567 118 q 598 258 583 193 q 631 393 614 323 l 671 551 l 463 551 l 326 0 l 136 0 l 273 551 l 134 551 l 167 685 l 1033 685 l 1000 551 l 861 551 z "},"":{"ha":699,"x_min":-91,"x_max":920,"o":"m 813 884 q 790 909 808 898 q 751 920 772 920 q 715 915 732 920 q 685 901 699 909 q 663 881 672 892 q 648 859 653 870 q 614 776 632 829 q 577 658 596 724 q 538 517 558 592 q 498 365 518 441 q 459 214 478 288 q 421 77 439 140 q 388 -34 404 14 q 359 -107 372 -82 q 291 -208 329 -168 q 212 -272 252 -248 q 132 -306 172 -296 q 57 -315 92 -315 q -31 -303 6 -315 q -91 -272 -68 -292 l 0 -121 q 24 -144 7 -136 q 64 -151 42 -151 q 91 -149 77 -151 q 120 -138 105 -146 q 149 -115 134 -130 q 178 -74 164 -100 q 205 -4 190 -52 q 239 106 221 43 q 276 244 256 170 q 315 396 295 319 q 354 549 335 473 q 392 688 374 624 q 427 802 410 753 q 456 876 443 851 q 515 965 481 926 q 590 1031 550 1004 q 672 1073 629 1059 q 755 1088 714 1088 q 804 1085 780 1088 q 849 1075 827 1082 q 888 1059 870 1069 q 920 1038 907 1050 l 813 884 z "},"":{"ha":536,"x_min":89,"x_max":662,"o":"m 464 463 l 464 492 q 465 527 464 509 q 467 562 465 545 q 471 590 469 578 l 483 636 q 433 571 461 604 q 375 512 406 538 q 311 469 344 486 q 246 452 278 452 q 206 461 224 452 q 175 489 188 471 q 154 532 161 507 q 147 587 147 557 q 149 623 147 604 q 157 661 151 642 q 197 760 170 713 q 264 841 224 806 q 359 896 305 876 q 479 916 412 916 q 527 915 503 916 q 576 911 552 913 q 622 905 600 908 q 662 898 644 902 l 611 695 q 595 618 601 653 q 586 555 589 584 q 582 504 583 526 q 581 463 581 481 l 464 463 m 114 404 l 582 404 l 557 302 l 89 302 l 114 404 m 513 810 q 484 816 505 813 q 436 819 464 819 q 381 806 406 819 q 337 773 357 794 q 304 722 318 751 q 281 659 290 692 q 275 616 275 635 q 283 573 275 591 q 304 556 290 556 q 341 570 320 556 q 384 606 362 584 q 427 656 406 629 q 465 710 448 683 q 494 759 482 736 q 509 795 506 782 l 513 810 z "},"":{"ha":529,"x_min":81,"x_max":626,"o":"m 106 404 l 564 404 l 538 302 l 81 302 l 106 404 m 363 546 q 420 562 396 546 q 461 602 445 577 q 485 657 477 627 q 493 718 493 688 q 474 785 493 760 q 417 810 454 810 q 359 794 384 810 q 319 753 335 779 q 295 698 303 728 q 288 637 288 667 q 307 571 288 595 q 363 546 326 546 m 340 446 q 265 458 299 446 q 206 494 231 471 q 168 551 181 517 q 154 625 154 584 q 175 734 154 682 q 235 825 197 785 q 326 887 273 864 q 439 910 378 910 q 515 897 480 910 q 574 861 549 884 q 612 804 599 838 q 626 729 626 770 q 605 618 626 669 q 545 530 583 568 q 455 470 507 492 q 340 446 403 448 z "},"":{"ha":1107,"x_min":10,"x_max":1137,"o":"m 667 151 q 768 240 720 193 q 855 344 817 288 q 915 463 892 399 q 937 597 937 526 q 923 691 937 648 q 882 766 909 734 q 812 815 854 798 q 716 833 771 833 q 609 817 659 833 q 517 774 559 802 q 444 707 476 746 q 390 623 412 669 q 357 524 368 576 q 345 417 345 472 q 368 268 345 338 q 431 151 391 199 l 393 0 l 10 0 l 50 161 q 85 158 62 159 q 138 155 109 156 q 202 153 168 153 q 274 151 237 152 q 231 211 252 177 q 194 285 210 245 q 169 369 178 325 q 160 460 160 414 q 183 617 160 544 q 247 749 206 690 q 344 855 288 809 q 466 933 400 901 q 604 981 531 964 q 750 997 676 997 q 907 972 836 997 q 1029 902 979 948 q 1108 790 1080 856 q 1137 642 1137 724 q 1113 489 1137 559 q 1047 359 1089 419 q 948 247 1005 298 q 825 151 891 195 q 896 153 861 152 q 961 155 931 153 q 1015 158 991 156 q 1053 161 1039 159 l 1013 0 l 629 0 l 667 151 z "},"":{"ha":1195,"x_min":74,"x_max":1221,"o":"m 1134 50 q 1056 19 1093 32 q 983 -2 1019 6 q 910 -13 947 -9 q 834 -17 873 -17 q 756 -6 794 -17 q 687 23 719 4 q 630 67 655 41 q 591 124 605 93 q 551 91 574 108 q 501 59 528 75 q 445 30 474 43 q 386 5 415 16 q 328 -11 356 -5 q 277 -17 300 -17 q 195 -3 233 -17 q 131 36 158 12 q 89 93 104 60 q 74 160 74 125 q 96 266 74 220 q 159 342 117 311 q 263 391 201 373 q 406 418 325 410 q 451 421 424 420 q 506 425 478 423 q 557 428 534 427 q 591 429 581 429 l 599 465 q 600 477 600 471 l 600 488 q 591 509 600 498 q 564 528 583 519 q 517 543 546 537 q 450 548 489 548 q 339 527 395 548 q 214 464 283 505 q 222 496 216 475 q 235 541 228 517 q 250 591 242 566 q 264 637 257 617 q 325 662 296 651 q 386 682 355 673 q 452 694 416 690 q 530 699 487 699 q 646 674 600 699 q 720 611 691 650 q 848 678 780 657 q 985 699 916 699 q 1084 686 1040 699 q 1158 649 1127 673 q 1204 594 1188 626 q 1221 525 1221 562 q 1197 432 1221 477 q 1125 354 1173 388 q 1007 300 1078 320 q 844 280 937 280 q 790 281 820 280 q 730 286 760 283 q 730 279 730 282 l 730 273 q 739 219 730 244 q 766 175 748 194 q 810 145 784 156 q 870 134 836 134 q 1005 151 937 134 q 1145 205 1072 168 l 1134 50 m 559 260 q 559 288 559 271 q 562 319 559 305 q 529 317 549 318 q 487 313 509 315 q 445 310 465 311 q 412 307 425 308 q 312 277 344 299 q 272 221 280 254 q 270 203 270 212 q 289 157 270 176 q 345 138 309 138 q 398 146 370 138 q 454 169 426 155 q 510 203 483 184 q 559 243 536 222 l 559 260 m 941 557 q 880 547 909 557 q 824 517 850 537 q 778 467 798 496 q 745 397 758 437 q 819 393 785 393 q 924 400 881 393 q 995 419 968 407 q 1035 449 1023 431 q 1047 488 1047 467 q 1019 539 1047 520 q 941 557 991 557 z "},"":{"ha":772,"x_min":51,"x_max":834,"o":"m 596 415 q 596 429 596 422 q 595 441 595 435 l 353 138 q 384 134 369 134 q 474 159 434 134 q 541 224 513 184 q 582 314 568 264 q 596 415 596 364 m 487 547 q 395 520 435 547 q 328 451 355 493 q 288 359 301 410 q 274 261 274 308 q 276 233 274 245 l 522 543 q 487 547 507 547 m 834 743 l 726 606 q 763 530 749 573 q 776 435 776 487 q 747 265 776 347 q 663 121 718 184 q 529 21 608 58 q 353 -17 451 -17 q 296 -12 323 -17 q 245 2 269 -7 l 203 -51 l 51 -51 l 149 73 q 109 152 123 107 q 95 251 95 197 q 109 366 95 310 q 149 472 123 422 q 212 563 174 522 q 297 635 250 605 q 402 682 345 665 q 524 699 459 699 q 581 694 554 699 q 631 680 607 689 l 682 743 l 834 743 z "},"":{"ha":726,"x_min":25,"x_max":597,"o":"m 597 651 q 586 597 597 623 q 555 552 574 572 q 509 522 535 533 q 452 510 482 510 q 412 517 430 510 q 380 537 393 524 q 360 568 367 550 q 353 606 353 585 q 364 659 353 634 q 395 704 375 684 q 441 734 414 723 q 498 745 467 745 q 538 738 519 745 q 569 719 556 731 q 590 689 583 706 q 597 651 597 671 m 508 393 q 470 276 490 327 q 429 188 450 226 q 387 121 408 149 q 346 71 366 92 q 301 22 322 45 q 263 -20 279 -1 q 237 -58 247 -40 q 228 -92 228 -75 q 316 -141 228 -141 q 421 -118 367 -141 q 525 -56 476 -96 l 515 -216 q 467 -248 495 -232 q 405 -277 438 -264 q 336 -297 372 -290 q 262 -305 299 -305 q 161 -292 205 -305 q 87 -255 117 -279 q 41 -200 57 -232 q 25 -131 25 -168 q 37 -66 25 -94 q 70 -14 50 -39 q 115 35 90 11 q 165 87 140 58 q 226 161 200 125 q 271 235 252 197 q 304 311 290 272 q 328 393 317 350 l 508 393 z "},"":{"ha":515,"x_min":27,"x_max":492,"o":"m 248 606 q 259 660 248 635 q 290 704 271 685 q 336 734 310 723 q 393 745 363 745 q 433 738 415 745 q 465 719 452 731 q 485 689 478 706 q 492 651 492 671 q 481 597 492 623 q 450 552 469 572 q 404 522 430 533 q 347 510 377 510 q 307 517 326 510 q 276 538 289 525 q 255 568 262 551 q 248 606 248 586 m 396 393 q 361 245 379 319 q 326 90 344 172 q 290 -84 308 8 q 254 -286 271 -176 l 27 -286 q 92 -84 64 -176 q 142 90 119 8 q 183 245 164 172 q 223 393 203 319 l 396 393 z "},"":{"ha":800,"x_min":127,"x_max":830,"o":"m 606 229 l 653 416 l 127 416 l 162 557 l 830 557 l 749 229 l 606 229 z "},"":{"ha":800,"x_min":101,"x_max":1132,"o":"m 1024 1007 l 451 0 l 366 0 l 205 526 l 124 485 l 101 570 l 293 671 l 438 195 l 952 1101 l 1132 1101 l 1109 1007 l 1024 1007 z "},"":{"ha":542,"x_min":-214,"x_max":778,"o":"m 701 888 q 656 919 684 907 q 604 931 629 931 q 524 896 555 931 q 471 778 492 860 q 460 731 466 756 q 449 675 455 705 l 633 675 l 599 541 l 422 541 q 374 300 402 433 q 307 10 347 167 q 255 -134 286 -73 q 180 -236 224 -195 q 78 -296 136 -276 q -54 -315 20 -315 q -102 -310 -77 -315 q -149 -296 -127 -304 q -188 -279 -170 -288 q -214 -261 -205 -269 l -133 -104 q -113 -120 -124 -112 q -89 -136 -102 -129 q -60 -148 -75 -143 q -26 -152 -44 -152 q 21 -140 -1 -152 q 62 -107 43 -128 q 94 -58 80 -86 q 117 5 107 -29 q 128 51 121 20 q 144 124 135 82 q 164 218 153 167 q 186 323 175 269 q 209 433 197 378 q 231 541 220 489 l 100 541 l 134 675 l 259 675 q 274 745 268 716 q 283 785 280 774 q 335 918 302 861 q 411 1012 367 975 q 509 1069 455 1050 q 627 1088 564 1088 q 667 1084 646 1088 q 708 1074 688 1080 q 747 1059 729 1067 q 778 1040 765 1050 l 701 888 z "},"":{"ha":800,"x_min":92,"x_max":882,"o":"m 847 597 q 800 562 825 578 q 746 534 774 545 q 689 516 718 522 q 635 510 661 510 q 562 524 600 510 q 489 554 525 537 q 419 584 453 570 q 359 597 386 597 q 264 572 316 597 q 157 497 212 547 l 192 635 q 237 670 211 654 q 292 698 263 686 q 349 715 320 709 q 404 722 378 722 q 476 708 439 722 q 550 678 514 694 q 619 648 586 662 q 680 635 652 635 q 775 660 723 635 q 882 735 827 685 l 847 597 m 782 336 q 734 300 760 316 q 680 272 708 283 q 624 254 652 260 q 570 248 596 248 q 497 262 534 248 q 424 292 460 275 q 354 322 388 309 q 294 336 321 336 q 199 311 251 336 q 92 235 147 286 l 126 372 q 172 408 146 392 q 226 436 197 425 q 283 454 254 448 q 338 460 313 460 q 411 446 374 460 q 485 416 448 433 q 554 386 521 399 q 614 372 587 372 q 709 398 657 372 q 817 473 762 423 l 782 336 z "},"":{"ha":960,"x_min":0,"x_max":902,"o":"m 214 141 l 747 141 l 652 836 l 214 141 m 878 0 l 0 0 l 24 98 l 590 980 l 777 980 l 902 98 l 878 0 z "},"":{"ha":868,"x_min":96,"x_max":974,"o":"m 644 0 l 428 344 l 794 685 l 974 685 l 625 344 l 804 0 l 644 0 m 312 0 l 96 344 l 462 685 l 642 685 l 292 344 l 471 0 l 312 0 z "},"":{"ha":868,"x_min":37,"x_max":916,"o":"m 37 0 l 387 344 l 208 685 l 367 685 l 584 344 l 215 0 l 37 0 m 370 0 l 720 344 l 540 685 l 699 685 l 916 344 l 547 0 l 370 0 z "},"":{"ha":1112,"x_min":55,"x_max":1004,"o":"m 760 79 q 772 132 760 106 q 803 177 783 157 q 849 207 823 196 q 905 218 876 218 q 946 211 928 218 q 977 191 964 203 q 997 161 990 178 q 1004 123 1004 143 q 993 70 1004 95 q 962 25 982 44 q 916 -6 943 5 q 860 -17 890 -17 q 820 -10 838 -17 q 788 10 802 -3 q 768 41 775 23 q 760 79 760 58 m 408 79 q 419 132 408 106 q 450 177 431 157 q 496 207 470 196 q 553 218 523 218 q 593 211 575 218 q 624 191 611 203 q 645 161 637 178 q 652 123 652 143 q 641 70 652 95 q 610 25 629 44 q 564 -6 590 5 q 507 -17 537 -17 q 467 -10 486 -17 q 436 10 449 -3 q 415 41 422 23 q 408 79 408 58 m 55 79 q 66 132 55 106 q 98 177 78 157 q 144 207 117 196 q 200 218 170 218 q 240 211 222 218 q 272 191 258 203 q 292 161 285 178 q 299 123 299 143 q 288 70 299 95 q 257 25 277 44 q 211 -6 237 5 q 155 -17 184 -17 q 115 -10 133 -17 q 83 10 96 -3 q 62 41 70 23 q 55 79 55 58 z "},"":{"ha":359,"x_min":0,"x_max":0,"o":""},"":{"ha":994,"x_min":-12,"x_max":907,"o":"m 411 382 l 689 382 l 660 825 l 411 382 m 699 238 l 330 238 l 197 0 l -12 0 q 16 42 2 20 q 47 92 31 64 q 86 155 64 119 q 135 238 107 191 l 571 980 l 812 980 l 878 238 q 886 156 882 191 q 893 92 890 120 q 900 42 897 64 q 907 0 903 20 l 715 0 l 699 238 m 728 1366 l 879 1097 l 723 1097 l 505 1366 l 728 1366 z "},"":{"ha":994,"x_min":-12,"x_max":1000,"o":"m 411 382 l 689 382 l 660 825 l 411 382 m 699 238 l 330 238 l 197 0 l -12 0 q 16 42 2 20 q 47 92 31 64 q 86 155 64 119 q 135 238 107 191 l 571 980 l 812 980 l 878 238 q 886 156 882 191 q 893 92 890 120 q 900 42 897 64 q 907 0 903 20 l 715 0 l 699 238 m 408 1090 q 437 1167 418 1131 q 479 1232 455 1204 q 534 1276 504 1259 q 597 1292 564 1292 q 663 1282 631 1292 q 731 1257 694 1272 q 781 1234 762 1244 q 820 1223 801 1223 q 843 1228 831 1223 q 865 1241 855 1233 q 883 1261 876 1250 q 895 1285 891 1272 l 1000 1285 q 969 1205 989 1242 q 923 1141 949 1168 q 866 1099 897 1114 q 800 1084 834 1084 q 741 1093 768 1084 q 683 1117 715 1101 q 627 1143 652 1133 q 583 1154 603 1154 q 561 1149 572 1154 q 541 1136 550 1144 q 524 1116 531 1127 q 513 1090 517 1104 l 408 1090 z "},"":{"ha":1004,"x_min":130,"x_max":1030,"o":"m 1030 618 q 1009 435 1030 520 q 949 280 987 351 q 859 154 911 210 q 744 61 806 99 q 612 3 682 23 q 470 -17 543 -17 q 333 11 395 -17 q 225 88 271 38 q 155 208 180 138 q 130 366 130 279 q 147 523 130 446 q 199 671 165 601 q 281 801 233 741 q 393 904 330 861 q 532 972 456 947 q 696 997 608 997 q 841 970 778 997 q 945 893 903 943 q 1009 774 987 844 q 1030 618 1030 704 m 511 148 q 608 165 563 148 q 689 213 652 182 q 753 287 725 244 q 800 380 781 330 q 829 488 819 431 q 839 604 839 545 q 826 702 839 659 q 790 773 814 744 q 732 818 766 802 q 655 833 698 833 q 516 797 578 833 q 411 699 454 760 q 343 556 367 637 q 319 385 319 475 q 333 284 319 328 q 371 210 346 240 q 432 164 396 180 q 511 148 467 148 m 414 1090 q 442 1167 424 1131 q 485 1232 460 1204 q 539 1276 509 1259 q 603 1292 569 1292 q 668 1282 636 1292 q 736 1257 700 1272 q 787 1234 767 1244 q 825 1223 806 1223 q 849 1228 837 1223 q 871 1241 861 1233 q 889 1261 881 1250 q 900 1285 897 1272 l 1005 1285 q 975 1205 994 1242 q 929 1141 955 1168 q 871 1099 903 1114 q 805 1084 840 1084 q 747 1093 773 1084 q 688 1117 720 1101 q 633 1143 657 1133 q 589 1154 608 1154 q 566 1149 577 1154 q 546 1136 555 1144 q 529 1116 536 1127 q 519 1090 522 1104 l 414 1090 z "},"":{"ha":1329,"x_min":130,"x_max":1451,"o":"m 480 148 q 577 169 534 148 q 656 227 621 191 q 716 310 690 262 q 758 408 741 357 q 783 510 774 458 q 791 608 791 562 q 780 700 791 659 q 750 771 770 742 q 702 817 730 801 q 637 833 673 833 q 539 812 583 833 q 460 755 495 791 q 399 673 425 720 q 357 576 374 627 q 332 473 340 525 q 323 375 323 421 q 334 282 323 323 q 365 210 345 240 q 414 164 385 180 q 480 148 443 148 m 1412 826 l 1051 826 l 991 587 l 1301 587 l 1264 436 l 954 436 l 884 155 l 991 155 q 1157 156 1088 155 q 1267 165 1226 157 l 1227 0 l 649 0 l 674 100 q 635 60 661 81 q 577 22 610 39 q 508 -6 545 5 q 439 -17 472 -17 q 315 10 372 -17 q 217 87 258 37 q 153 207 176 137 q 130 363 130 277 q 150 537 130 454 q 205 690 170 619 q 290 817 241 760 q 397 913 339 873 q 520 975 456 954 q 652 997 585 997 q 727 987 691 997 q 791 963 762 978 q 842 930 821 948 q 873 895 863 911 l 893 980 l 1451 980 l 1412 826 z "},"":{"ha":1230,"x_min":95,"x_max":1256,"o":"m 1169 50 q 1091 19 1128 32 q 1018 -2 1054 6 q 945 -13 982 -9 q 869 -17 909 -17 q 794 -7 829 -17 q 729 20 758 3 q 677 57 700 36 q 642 98 655 77 q 514 14 589 44 q 353 -17 439 -17 q 246 2 294 -17 q 165 55 199 20 q 113 140 132 90 q 95 251 95 189 q 109 366 95 310 q 149 472 123 422 q 212 563 174 522 q 297 635 250 605 q 402 682 345 665 q 524 699 459 699 q 651 670 596 699 q 735 593 705 642 q 1021 699 848 699 q 1119 686 1076 699 q 1193 649 1162 673 q 1240 594 1223 626 q 1256 525 1256 562 q 1232 432 1256 477 q 1160 354 1208 388 q 1042 300 1113 320 q 879 280 972 280 q 825 281 855 280 q 766 286 795 283 q 765 279 765 282 l 765 273 q 774 219 765 244 q 801 175 783 194 q 845 145 819 156 q 905 134 871 134 q 1040 151 972 134 q 1180 205 1107 168 l 1169 50 m 487 547 q 395 520 435 547 q 328 451 355 493 q 288 359 301 410 q 274 261 274 308 q 303 167 274 199 q 384 134 332 134 q 474 159 434 134 q 541 224 513 184 q 582 314 568 264 q 596 415 596 364 q 569 513 596 479 q 487 547 542 547 m 976 557 q 915 547 945 557 q 859 517 885 537 q 813 467 833 496 q 781 397 793 437 q 854 393 820 393 q 960 400 916 393 q 1030 419 1003 407 q 1070 449 1058 431 q 1082 488 1082 467 q 1055 539 1082 520 q 976 557 1027 557 z "},"":{"ha":736,"x_min":118,"x_max":760,"o":"m 153 494 l 760 494 l 725 353 l 118 353 l 153 494 z "},"":{"ha":1197,"x_min":118,"x_max":1221,"o":"m 153 494 l 1221 494 l 1186 353 l 118 353 l 153 494 z "},"":{"ha":878,"x_min":296,"x_max":991,"o":"m 917 779 q 900 741 912 760 q 870 706 888 722 q 827 681 852 690 q 774 671 803 671 q 724 680 745 671 q 691 704 704 688 q 672 742 677 720 q 666 787 666 763 q 676 849 666 817 q 705 911 687 880 q 747 973 724 943 q 798 1030 771 1003 q 852 1082 824 1058 q 905 1124 880 1105 l 991 1077 q 882 964 924 1020 q 830 866 841 909 l 939 866 l 917 779 m 547 779 q 530 741 542 760 q 500 706 518 722 q 457 681 481 690 q 404 671 433 671 q 354 680 374 671 q 320 704 334 688 q 301 742 307 720 q 296 787 296 763 q 306 849 296 817 q 335 911 317 880 q 377 973 353 943 q 427 1030 401 1003 q 481 1082 454 1058 q 534 1124 509 1105 l 621 1077 q 512 964 553 1020 q 460 866 471 909 l 568 866 l 547 779 z "},"":{"ha":848,"x_min":309,"x_max":1004,"o":"m 383 1017 q 400 1055 388 1036 q 430 1090 412 1074 q 473 1115 448 1105 q 526 1125 497 1125 q 575 1116 555 1125 q 609 1092 596 1107 q 628 1054 623 1076 q 634 1008 634 1033 q 624 947 634 979 q 595 884 613 916 q 553 823 576 853 q 503 765 529 793 q 448 714 476 738 q 395 671 420 690 l 309 719 q 418 831 376 776 q 470 930 459 887 l 361 930 l 383 1017 m 753 1017 q 770 1055 758 1036 q 800 1090 782 1074 q 843 1115 819 1105 q 896 1125 867 1125 q 946 1116 925 1125 q 980 1092 966 1107 q 999 1054 993 1076 q 1004 1008 1004 1033 q 994 947 1004 979 q 965 884 983 916 q 923 823 947 853 q 873 765 899 793 q 819 714 846 738 q 766 671 791 690 l 679 719 q 788 831 747 776 q 840 930 829 887 l 732 930 l 753 1017 z "},"":{"ha":505,"x_min":296,"x_max":621,"o":"m 547 779 q 530 741 542 760 q 500 706 518 722 q 457 681 481 690 q 404 671 433 671 q 354 680 374 671 q 320 704 334 688 q 301 742 307 720 q 296 787 296 763 q 306 849 296 817 q 335 911 317 880 q 377 973 353 943 q 427 1030 401 1003 q 481 1082 454 1058 q 534 1124 509 1105 l 621 1077 q 512 964 553 1020 q 460 866 471 909 l 568 866 l 547 779 z "},"":{"ha":512,"x_min":307,"x_max":633,"o":"m 382 1017 q 398 1055 387 1036 q 429 1090 410 1074 q 471 1115 447 1105 q 524 1125 496 1125 q 574 1116 553 1125 q 608 1092 595 1107 q 627 1054 621 1076 q 633 1008 633 1033 q 622 947 633 979 q 593 884 612 916 q 551 823 575 853 q 501 765 528 793 q 447 714 475 738 q 394 671 419 690 l 307 719 q 416 831 375 776 q 469 930 458 887 l 360 930 l 382 1017 z "},"":{"ha":800,"x_min":168,"x_max":806,"o":"m 433 736 q 444 790 433 764 q 475 834 456 815 q 522 865 495 854 q 578 876 548 876 q 618 869 600 876 q 649 849 636 862 q 670 819 663 836 q 677 781 677 802 q 666 727 677 753 q 635 683 654 702 q 589 652 615 663 q 532 641 563 641 q 492 648 511 641 q 461 668 474 655 q 440 698 448 680 q 433 736 433 715 m 297 192 q 309 245 297 220 q 340 290 320 271 q 386 321 359 309 q 442 332 412 332 q 483 325 465 332 q 514 305 501 318 q 535 275 528 292 q 542 237 542 258 q 531 184 542 209 q 500 139 519 159 q 454 109 480 120 q 397 98 427 98 q 357 105 375 98 q 325 124 338 112 q 304 154 312 137 q 297 192 297 172 m 203 557 l 806 557 l 772 416 l 168 416 l 203 557 z "},"":{"ha":695,"x_min":114,"x_max":792,"o":"m 553 957 l 246 547 l 345 117 l 656 561 l 553 957 m 370 0 l 258 0 l 114 554 l 525 1074 l 637 1074 l 792 554 l 370 0 z "},"":{"ha":706,"x_min":-132,"x_max":767,"o":"m 753 685 q 757 651 757 669 q 733 530 757 602 q 670 373 710 458 q 577 192 630 288 q 464 0 524 97 q 349 -159 404 -98 q 244 -256 295 -221 q 146 -303 194 -290 q 53 -315 99 -315 q 4 -312 30 -315 q -48 -301 -22 -308 q -95 -283 -73 -294 q -132 -258 -117 -272 l -43 -112 q -22 -131 -35 -121 q 8 -150 -8 -141 q 42 -164 24 -159 q 77 -170 60 -170 q 116 -163 95 -170 q 163 -139 138 -157 q 217 -91 188 -121 q 277 -12 245 -60 q 258 198 275 94 q 213 392 240 301 q 151 559 185 484 q 81 685 117 634 l 273 685 q 307 626 290 663 q 337 546 323 590 q 364 452 352 502 q 385 354 376 403 q 399 259 394 305 q 404 176 404 213 q 445 253 424 212 q 485 337 465 294 q 521 424 504 380 q 550 507 538 467 q 570 584 563 548 q 578 650 578 621 q 577 668 578 659 q 574 685 576 677 l 753 685 m 191 907 q 202 961 191 935 q 233 1005 214 986 q 279 1036 253 1025 q 336 1047 306 1047 q 376 1040 358 1047 q 408 1020 395 1033 q 428 990 421 1007 q 435 952 435 972 q 424 899 435 924 q 393 854 413 873 q 348 824 374 835 q 291 812 321 812 q 251 820 269 812 q 219 839 233 827 q 199 869 206 852 q 191 907 191 886 m 524 907 q 535 960 524 935 q 565 1005 546 985 q 611 1036 585 1024 q 667 1047 637 1047 q 708 1040 690 1047 q 740 1020 726 1033 q 760 990 753 1007 q 767 952 767 972 q 756 899 767 924 q 725 854 745 873 q 680 824 706 835 q 623 812 653 812 q 583 820 602 812 q 552 839 565 827 q 531 869 538 852 q 524 907 524 886 z "},"":{"ha":911,"x_min":220,"x_max":1098,"o":"m 309 0 q 346 117 326 41 q 391 292 366 193 l 425 428 l 327 715 q 304 780 315 748 q 281 843 294 811 q 254 909 269 876 q 220 980 239 943 l 432 980 l 551 577 l 869 980 l 1098 980 q 1026 903 1057 937 q 967 838 994 869 q 914 777 939 807 q 862 715 889 747 l 618 427 l 585 292 q 542 117 559 193 q 522 0 524 41 l 309 0 m 431 1199 q 443 1252 431 1227 q 473 1297 454 1278 q 519 1328 493 1316 q 576 1339 546 1339 q 616 1332 598 1339 q 648 1312 635 1324 q 668 1281 661 1299 q 675 1244 675 1264 q 664 1190 675 1215 q 633 1146 653 1165 q 588 1115 614 1126 q 531 1104 562 1104 q 491 1111 509 1104 q 459 1131 473 1118 q 439 1161 446 1143 q 431 1199 431 1178 m 764 1199 q 775 1252 764 1227 q 805 1296 786 1277 q 851 1327 825 1316 q 907 1339 878 1339 q 948 1332 930 1339 q 980 1312 966 1324 q 1000 1281 993 1299 q 1007 1244 1007 1264 q 996 1191 1007 1216 q 965 1146 985 1165 q 920 1115 946 1126 q 863 1104 893 1104 q 823 1111 842 1104 q 792 1131 805 1118 q 771 1161 779 1143 q 764 1199 764 1178 z "},"":{"ha":854,"x_min":-81,"x_max":1095,"o":"m 1095 1074 l 87 -165 l -81 -165 l 925 1074 l 1095 1074 z "},"":{"ha":800,"x_min":59,"x_max":968,"o":"m 481 395 q 567 413 526 395 q 640 463 608 431 q 689 535 671 494 q 708 623 708 576 q 696 684 708 655 q 664 734 685 713 q 614 768 643 755 q 549 780 585 780 q 461 763 503 780 q 386 715 418 746 q 334 643 353 685 q 315 551 315 601 q 327 489 315 517 q 361 440 339 460 q 414 407 383 419 q 481 395 444 395 m 749 207 l 637 351 q 551 307 592 321 q 462 294 510 294 q 367 306 410 294 q 292 350 323 319 l 122 214 l 59 296 l 229 431 q 215 481 220 453 q 210 537 210 509 q 219 605 210 570 q 242 671 228 640 q 276 729 257 703 q 314 770 294 755 l 200 919 l 279 981 l 391 834 q 477 872 435 861 q 568 882 519 882 q 660 868 621 882 q 726 827 698 854 l 906 967 l 968 886 l 793 749 q 808 698 802 726 q 815 639 815 669 q 790 518 815 574 q 718 414 766 463 l 827 270 l 749 207 z "},"":{"ha":522,"x_min":96,"x_max":642,"o":"m 312 0 l 96 344 l 462 685 l 642 685 l 292 344 l 471 0 l 312 0 z "},"":{"ha":522,"x_min":10,"x_max":557,"o":"m 10 0 l 360 344 l 180 685 l 340 685 l 557 344 l 190 0 l 10 0 z "},"":{"ha":996,"x_min":122,"x_max":1087,"o":"m 853 906 q 863 955 853 931 q 891 995 873 978 q 934 1023 909 1013 q 989 1034 959 1034 q 1029 1026 1011 1034 q 1060 1005 1047 1018 q 1080 976 1073 992 q 1087 941 1087 959 q 1077 892 1087 916 q 1049 851 1067 869 q 1006 822 1031 833 q 951 812 981 812 q 911 820 929 812 q 880 841 893 827 q 860 871 867 854 q 853 906 853 888 m 739 888 q 694 919 722 907 q 642 931 667 931 q 560 896 593 931 q 508 778 528 860 l 481 668 l 996 668 q 989 605 995 639 q 974 534 983 572 q 954 455 964 496 q 932 370 943 414 l 902 243 q 896 213 899 231 q 890 175 892 196 q 885 132 887 155 q 884 85 884 109 q 886 41 884 63 q 892 0 888 20 l 692 0 q 689 29 690 14 q 688 60 688 44 q 690 114 688 86 q 697 168 693 141 q 706 219 701 195 q 717 264 711 244 l 743 371 q 760 435 753 410 q 771 479 766 461 q 778 510 775 498 q 784 534 781 522 l 450 534 q 429 441 440 490 q 404 332 417 393 q 389 263 395 298 q 379 195 383 229 q 373 132 375 162 q 371 75 371 101 q 377 0 371 28 l 167 0 q 180 117 170 52 q 202 253 189 182 q 230 395 215 323 q 260 534 245 467 l 122 534 l 155 668 l 292 668 q 309 736 302 706 q 321 785 316 766 q 449 1013 360 937 q 665 1088 538 1088 q 705 1084 684 1088 q 746 1074 726 1080 q 785 1059 767 1067 q 816 1040 803 1050 l 739 888 z "},"":{"ha":948,"x_min":122,"x_max":1016,"o":"m 635 0 q 634 18 635 7 q 633 40 633 29 q 632 62 633 52 q 632 79 632 72 q 645 220 632 157 q 671 331 659 283 l 773 743 q 792 821 783 779 q 808 906 801 863 q 779 917 795 912 q 746 925 763 922 q 711 929 728 928 q 680 931 694 931 q 619 923 648 931 q 567 896 590 914 q 526 848 543 878 q 498 778 509 819 l 473 675 l 654 675 l 621 541 l 442 541 q 420 446 431 496 q 394 332 408 395 q 380 263 386 298 q 370 195 374 229 q 363 132 366 162 q 361 75 361 101 q 368 0 361 28 l 157 0 q 170 119 161 53 q 193 256 180 184 q 221 401 206 328 q 252 541 237 474 l 122 541 l 156 675 l 284 675 l 312 785 q 446 1013 351 937 q 682 1088 541 1088 q 750 1085 712 1088 q 826 1075 788 1082 l 1016 1075 q 1011 1006 1016 1046 q 999 921 1007 966 q 982 830 991 876 q 962 743 972 783 l 865 349 q 853 299 859 329 q 840 235 846 270 q 830 160 834 199 q 826 82 826 121 q 832 0 826 39 l 635 0 z "},"":{"ha":681,"x_min":2,"x_max":819,"o":"m 177 -158 q 216 -35 197 -101 q 253 98 235 31 q 141 95 200 97 q 2 91 81 94 l 41 248 q 115 245 81 246 q 179 243 149 244 q 236 242 209 243 q 290 241 264 241 l 309 315 l 365 541 l 377 591 q 323 590 351 591 q 264 589 295 589 q 199 587 234 588 q 125 584 165 585 l 164 742 q 301 737 242 739 q 412 735 360 736 q 445 880 429 807 q 469 1014 460 952 l 649 1014 q 607 880 628 952 q 567 735 587 807 q 624 735 597 735 q 680 737 651 736 q 743 739 709 738 q 819 742 776 740 l 779 584 q 705 587 739 585 q 641 589 671 588 q 584 590 611 589 q 530 591 556 591 q 523 565 526 577 q 517 541 520 552 l 461 315 q 452 280 457 298 q 443 241 448 261 q 500 242 473 241 q 557 243 528 242 q 620 245 586 244 q 696 248 653 246 l 656 91 q 519 95 578 94 q 408 98 460 97 q 379 -35 393 31 q 357 -158 366 -101 l 177 -158 z "},"":{"ha":488,"x_min":237,"x_max":481,"o":"m 237 454 q 249 508 237 482 q 280 552 260 533 q 326 583 300 572 q 382 594 352 594 q 422 587 404 594 q 454 567 441 580 q 474 536 467 554 q 481 498 481 519 q 470 445 481 470 q 439 400 459 420 q 394 370 420 381 q 337 359 368 359 q 297 366 315 359 q 266 386 279 373 q 245 416 252 399 q 237 454 237 434 z "},"":{"ha":522,"x_min":108,"x_max":433,"o":"m 182 121 q 199 159 187 140 q 229 193 211 178 q 272 219 248 209 q 325 229 296 229 q 375 220 354 229 q 409 195 395 211 q 428 158 422 179 q 433 112 433 136 q 423 51 433 82 q 394 -12 412 19 q 352 -74 376 -43 q 302 -131 328 -104 q 248 -183 275 -159 q 195 -225 220 -207 l 108 -178 q 217 -65 176 -121 q 269 33 258 -9 l 161 33 l 182 121 z "},"":{"ha":884,"x_min":54,"x_max":752,"o":"m 501 121 q 518 159 506 140 q 548 193 530 178 q 591 219 566 209 q 644 229 615 229 q 693 220 673 229 q 727 195 714 211 q 746 158 741 179 q 752 112 752 136 q 742 51 752 82 q 713 -12 731 19 q 671 -74 694 -43 q 621 -131 647 -104 q 566 -183 594 -159 q 513 -225 538 -207 l 427 -178 q 536 -65 494 -121 q 588 33 577 -9 l 479 33 l 501 121 m 128 121 q 145 159 133 140 q 175 193 157 178 q 218 219 193 209 q 271 229 242 229 q 320 220 300 229 q 354 195 341 211 q 373 158 368 179 q 379 112 379 136 q 369 51 379 82 q 340 -12 358 19 q 298 -74 321 -43 q 248 -131 274 -104 q 193 -183 221 -159 q 140 -225 165 -207 l 54 -178 q 163 -65 121 -121 q 215 33 204 -9 l 106 33 l 128 121 z "},"":{"ha":1547,"x_min":150,"x_max":1537,"o":"m 1523 237 q 1476 114 1505 163 q 1410 36 1447 65 q 1330 -5 1373 7 q 1240 -17 1286 -17 q 1171 -6 1202 -17 q 1117 27 1139 5 q 1081 82 1094 49 q 1069 161 1069 116 q 1072 208 1069 183 q 1082 262 1075 233 q 1130 381 1100 333 q 1198 460 1160 430 q 1281 504 1236 490 q 1372 517 1325 517 q 1440 506 1409 517 q 1492 472 1470 494 q 1525 416 1513 450 q 1537 340 1537 383 q 1534 291 1537 317 q 1523 237 1531 266 m 1379 229 q 1398 353 1398 304 q 1348 430 1398 430 q 1311 422 1328 430 q 1280 396 1295 414 q 1252 347 1265 378 q 1227 270 1239 316 q 1211 154 1211 201 q 1264 71 1211 71 q 1299 78 1283 71 q 1330 103 1316 85 q 1356 152 1343 121 q 1379 229 1368 182 m 1035 237 q 987 114 1017 163 q 922 36 958 65 q 842 -5 885 7 q 751 -17 798 -17 q 682 -6 713 -17 q 628 27 651 5 q 593 82 606 49 q 581 161 581 116 q 584 208 581 183 q 594 262 587 233 q 642 381 612 333 q 710 460 671 430 q 792 504 748 490 q 884 517 837 517 q 951 506 921 517 q 1003 472 982 494 q 1037 416 1025 450 q 1048 340 1048 383 q 1045 291 1048 317 q 1035 237 1042 266 m 891 229 q 910 353 910 304 q 859 430 910 430 q 823 422 840 430 q 791 396 806 414 q 764 347 777 378 q 739 270 751 316 q 722 154 722 201 q 776 71 722 71 q 811 78 795 71 q 841 103 827 85 q 867 152 855 121 q 891 229 880 182 m 628 715 q 579 591 610 640 q 512 513 549 543 q 430 472 474 484 q 338 460 385 460 q 271 470 301 460 q 218 503 240 481 q 185 556 197 524 q 173 633 173 589 q 188 739 173 680 q 234 859 205 810 q 300 937 263 907 q 380 980 337 967 q 471 994 424 994 q 539 982 508 994 q 594 948 571 970 q 629 891 616 925 q 642 813 642 858 q 628 715 642 770 m 484 707 q 497 771 493 742 q 501 822 501 800 q 446 906 501 906 q 410 898 426 906 q 381 872 394 890 q 356 822 368 853 q 332 745 344 791 q 318 676 323 707 q 313 622 313 646 q 363 547 313 547 q 399 555 382 547 q 431 581 416 563 q 459 630 446 600 q 484 707 473 661 m 1076 994 l 295 -17 l 150 -17 l 932 994 l 1076 994 z "},"":{"ha":994,"x_min":-12,"x_max":998,"o":"m 411 382 l 689 382 l 660 825 l 411 382 m 699 238 l 330 238 l 197 0 l -12 0 q 16 42 2 20 q 47 92 31 64 q 86 155 64 119 q 135 238 107 191 l 571 980 l 812 980 l 878 238 q 886 156 882 191 q 893 92 890 120 q 900 42 897 64 q 907 0 903 20 l 715 0 l 699 238 m 836 1097 l 739 1252 l 565 1097 l 402 1097 l 652 1366 l 855 1366 l 998 1097 l 836 1097 z "},"":{"ha":808,"x_min":61,"x_max":930,"o":"m 781 587 l 744 437 l 373 437 l 302 155 l 477 155 q 641 156 575 155 q 747 165 706 157 l 707 0 l 61 0 q 98 117 78 41 q 144 292 119 193 l 243 688 q 284 864 267 788 q 305 980 302 939 l 930 980 l 892 825 l 470 825 l 410 587 l 781 587 m 753 1097 l 656 1252 l 482 1097 l 319 1097 l 569 1366 l 772 1366 l 916 1097 l 753 1097 z "},"":{"ha":994,"x_min":-12,"x_max":1074,"o":"m 411 382 l 689 382 l 660 825 l 411 382 m 699 238 l 330 238 l 197 0 l -12 0 q 16 42 2 20 q 47 92 31 64 q 86 155 64 119 q 135 238 107 191 l 571 980 l 812 980 l 878 238 q 886 156 882 191 q 893 92 890 120 q 900 42 897 64 q 907 0 903 20 l 715 0 l 699 238 m 1074 1366 l 743 1097 l 581 1097 l 823 1366 l 1074 1366 z "},"":{"ha":808,"x_min":61,"x_max":965,"o":"m 781 587 l 744 437 l 373 437 l 302 155 l 477 155 q 641 156 575 155 q 747 165 706 157 l 707 0 l 61 0 q 98 117 78 41 q 144 292 119 193 l 243 688 q 284 864 267 788 q 305 980 302 939 l 930 980 l 892 825 l 470 825 l 410 587 l 781 587 m 389 1199 q 400 1252 389 1227 q 431 1297 412 1278 q 477 1328 451 1316 q 534 1339 504 1339 q 574 1332 556 1339 q 606 1312 593 1324 q 626 1281 619 1299 q 633 1244 633 1264 q 622 1190 633 1215 q 591 1146 611 1165 q 546 1115 572 1126 q 489 1104 519 1104 q 449 1111 467 1104 q 417 1131 431 1118 q 397 1161 404 1143 q 389 1199 389 1178 m 722 1199 q 733 1252 722 1227 q 763 1296 744 1277 q 809 1327 783 1316 q 865 1339 836 1339 q 906 1332 888 1339 q 938 1312 924 1324 q 958 1281 951 1299 q 965 1244 965 1264 q 954 1191 965 1216 q 923 1146 943 1165 q 878 1115 904 1126 q 821 1104 851 1104 q 781 1111 800 1104 q 750 1131 763 1118 q 729 1161 736 1143 q 722 1199 722 1178 z "},"":{"ha":808,"x_min":61,"x_max":930,"o":"m 781 587 l 744 437 l 373 437 l 302 155 l 477 155 q 641 156 575 155 q 747 165 706 157 l 707 0 l 61 0 q 98 117 78 41 q 144 292 119 193 l 243 688 q 284 864 267 788 q 305 980 302 939 l 930 980 l 892 825 l 470 825 l 410 587 l 781 587 m 646 1366 l 796 1097 l 640 1097 l 422 1366 l 646 1366 z "},"":{"ha":695,"x_min":47,"x_max":930,"o":"m 810 980 l 776 842 l 613 842 l 437 138 l 600 138 l 566 0 l 47 0 l 81 138 l 244 138 l 420 842 l 257 842 l 292 980 l 810 980 m 930 1366 l 600 1097 l 437 1097 l 680 1366 l 930 1366 z "},"":{"ha":695,"x_min":47,"x_max":854,"o":"m 810 980 l 776 842 l 613 842 l 437 138 l 600 138 l 566 0 l 47 0 l 81 138 l 244 138 l 420 842 l 257 842 l 292 980 l 810 980 m 692 1097 l 595 1252 l 421 1097 l 258 1097 l 508 1366 l 711 1366 l 854 1097 l 692 1097 z "},"":{"ha":695,"x_min":47,"x_max":904,"o":"m 810 980 l 776 842 l 613 842 l 437 138 l 600 138 l 566 0 l 47 0 l 81 138 l 244 138 l 420 842 l 257 842 l 292 980 l 810 980 m 328 1199 q 339 1252 328 1227 q 370 1297 351 1278 q 416 1328 390 1316 q 473 1339 443 1339 q 513 1332 495 1339 q 545 1312 532 1324 q 565 1281 558 1299 q 572 1244 572 1264 q 561 1190 572 1215 q 530 1146 550 1165 q 485 1115 511 1126 q 428 1104 458 1104 q 388 1111 406 1104 q 356 1131 370 1118 q 336 1161 343 1143 q 328 1199 328 1178 m 661 1199 q 672 1252 661 1227 q 702 1296 683 1277 q 748 1327 722 1316 q 804 1339 774 1339 q 845 1332 827 1339 q 877 1312 863 1324 q 897 1281 890 1299 q 904 1244 904 1264 q 893 1191 904 1216 q 862 1146 882 1165 q 817 1115 843 1126 q 760 1104 790 1104 q 720 1111 739 1104 q 689 1131 702 1118 q 668 1161 675 1143 q 661 1199 661 1178 z "},"":{"ha":695,"x_min":47,"x_max":810,"o":"m 810 980 l 776 842 l 613 842 l 437 138 l 600 138 l 566 0 l 47 0 l 81 138 l 244 138 l 420 842 l 257 842 l 292 980 l 810 980 m 585 1366 l 735 1097 l 579 1097 l 361 1366 l 585 1366 z "},"":{"ha":1004,"x_min":130,"x_max":1079,"o":"m 1030 618 q 1009 435 1030 520 q 949 280 987 351 q 859 154 911 210 q 744 61 806 99 q 612 3 682 23 q 470 -17 543 -17 q 333 11 395 -17 q 225 88 271 38 q 155 208 180 138 q 130 366 130 279 q 147 523 130 446 q 199 671 165 601 q 281 801 233 741 q 393 904 330 861 q 532 972 456 947 q 696 997 608 997 q 841 970 778 997 q 945 893 903 943 q 1009 774 987 844 q 1030 618 1030 704 m 511 148 q 608 165 563 148 q 689 213 652 182 q 753 287 725 244 q 800 380 781 330 q 829 488 819 431 q 839 604 839 545 q 826 702 839 659 q 790 773 814 744 q 732 818 766 802 q 655 833 698 833 q 516 797 578 833 q 411 699 454 760 q 343 556 367 637 q 319 385 319 475 q 333 284 319 328 q 371 210 346 240 q 432 164 396 180 q 511 148 467 148 m 1079 1366 l 749 1097 l 586 1097 l 829 1366 l 1079 1366 z "},"":{"ha":1004,"x_min":130,"x_max":1030,"o":"m 1030 618 q 1009 435 1030 520 q 949 280 987 351 q 859 154 911 210 q 744 61 806 99 q 612 3 682 23 q 470 -17 543 -17 q 333 11 395 -17 q 225 88 271 38 q 155 208 180 138 q 130 366 130 279 q 147 523 130 446 q 199 671 165 601 q 281 801 233 741 q 393 904 330 861 q 532 972 456 947 q 696 997 608 997 q 841 970 778 997 q 945 893 903 943 q 1009 774 987 844 q 1030 618 1030 704 m 511 148 q 608 165 563 148 q 689 213 652 182 q 753 287 725 244 q 800 380 781 330 q 829 488 819 431 q 839 604 839 545 q 826 702 839 659 q 790 773 814 744 q 732 818 766 802 q 655 833 698 833 q 516 797 578 833 q 411 699 454 760 q 343 556 367 637 q 319 385 319 475 q 333 284 319 328 q 371 210 346 240 q 432 164 396 180 q 511 148 467 148 m 842 1097 l 745 1252 l 570 1097 l 408 1097 l 657 1366 l 861 1366 l 1004 1097 l 842 1097 z "},"":{"ha":736,"x_min":64,"x_max":686,"o":"m 408 589 q 398 566 408 575 q 375 557 389 557 q 352 566 361 557 q 343 589 343 575 q 352 612 343 602 q 375 621 361 621 q 398 612 389 621 q 408 589 408 602 m 408 32 q 398 9 408 18 q 375 0 389 0 q 352 9 361 0 q 343 32 343 18 q 352 55 343 45 q 375 64 361 64 q 398 55 389 64 q 408 32 408 45 m 514 567 q 504 544 514 553 q 481 535 494 535 q 459 546 468 535 q 450 568 450 556 q 459 590 450 581 q 481 600 468 600 q 505 590 495 600 q 514 567 514 580 m 301 53 q 291 30 301 39 q 269 21 281 21 q 245 31 255 21 q 236 53 236 41 q 245 75 236 65 q 269 85 255 85 q 292 75 282 85 q 301 53 301 65 m 604 507 q 594 484 604 494 q 572 475 585 475 q 549 485 558 475 q 540 507 540 495 q 549 530 540 520 q 572 540 557 540 q 594 530 585 540 q 604 507 604 521 m 210 114 q 201 91 210 101 q 178 81 192 81 q 156 91 165 81 q 146 114 146 101 q 156 136 146 125 q 178 146 165 146 q 201 137 193 146 q 210 114 210 127 m 665 417 q 655 395 665 405 q 631 385 646 385 q 610 394 619 385 q 600 416 600 403 q 609 439 600 429 q 631 450 618 450 q 654 440 644 450 q 665 417 665 431 m 151 205 q 141 182 151 192 q 118 172 132 172 q 95 181 105 172 q 85 205 85 191 q 95 227 85 217 q 118 236 104 236 q 141 227 132 236 q 151 205 151 218 m 686 311 q 676 288 686 298 q 654 279 667 279 q 630 288 640 279 q 621 310 621 298 q 631 333 621 323 q 654 343 642 343 q 676 334 667 343 q 686 311 686 324 m 130 311 q 119 288 130 298 q 97 278 109 278 q 74 288 83 278 q 64 311 64 298 q 74 333 64 324 q 97 342 83 342 q 120 333 110 342 q 130 311 130 324 m 665 204 q 655 181 665 191 q 632 172 645 172 q 608 182 616 172 q 600 204 600 192 q 610 228 600 220 q 632 236 620 236 q 655 227 645 236 q 665 204 665 218 m 151 416 q 140 393 151 402 q 117 385 130 385 q 94 395 103 385 q 85 417 85 405 q 95 440 85 431 q 117 450 105 450 q 141 439 131 450 q 151 416 151 429 m 604 114 q 595 92 604 101 q 572 82 586 82 q 549 92 558 82 q 539 114 539 101 q 549 137 539 127 q 572 146 558 146 q 595 137 585 146 q 604 114 604 129 m 210 508 q 201 484 210 493 q 178 475 193 475 q 155 485 165 475 q 146 507 146 494 q 156 530 146 520 q 178 540 165 540 q 201 531 191 540 q 210 508 210 522 m 514 54 q 505 31 514 41 q 481 21 495 21 q 459 31 469 21 q 449 54 449 40 q 459 76 449 66 q 481 86 469 86 q 505 77 495 86 q 514 54 514 67 m 300 568 q 292 545 300 555 q 270 535 283 535 q 246 544 256 535 q 236 568 236 553 q 246 590 236 580 q 270 600 256 600 q 292 591 283 600 q 300 568 300 581 z "},"":{"ha":1004,"x_min":130,"x_max":1030,"o":"m 1030 618 q 1009 435 1030 520 q 949 280 987 351 q 859 154 911 210 q 744 61 806 99 q 612 3 682 23 q 470 -17 543 -17 q 333 11 395 -17 q 225 88 271 38 q 155 208 180 138 q 130 366 130 279 q 147 523 130 446 q 199 671 165 601 q 281 801 233 741 q 393 904 330 861 q 532 972 456 947 q 696 997 608 997 q 841 970 778 997 q 945 893 903 943 q 1009 774 987 844 q 1030 618 1030 704 m 511 148 q 608 165 563 148 q 689 213 652 182 q 753 287 725 244 q 800 380 781 330 q 829 488 819 431 q 839 604 839 545 q 826 702 839 659 q 790 773 814 744 q 732 818 766 802 q 655 833 698 833 q 516 797 578 833 q 411 699 454 760 q 343 556 367 637 q 319 385 319 475 q 333 284 319 328 q 371 210 346 240 q 432 164 396 180 q 511 148 467 148 m 734 1366 l 884 1097 l 728 1097 l 510 1366 l 734 1366 z "},"":{"ha":997,"x_min":155,"x_max":1095,"o":"m 1095 980 q 1058 866 1078 939 q 1013 688 1038 793 l 920 319 q 769 69 878 155 q 473 -17 659 -17 q 334 5 394 -17 q 234 65 274 26 q 175 157 195 104 q 155 274 155 211 q 169 387 155 328 l 243 688 q 284 864 267 788 q 305 980 302 939 l 509 980 l 363 395 q 353 344 357 370 q 349 295 349 319 q 357 233 349 262 q 382 183 365 204 q 429 149 400 161 q 498 137 457 137 q 593 154 553 137 q 662 202 633 171 q 709 277 690 233 q 741 376 728 321 l 892 980 l 1095 980 m 1074 1366 l 743 1097 l 581 1097 l 823 1366 l 1074 1366 z "},"":{"ha":997,"x_min":155,"x_max":1095,"o":"m 1095 980 q 1058 866 1078 939 q 1013 688 1038 793 l 920 319 q 769 69 878 155 q 473 -17 659 -17 q 334 5 394 -17 q 234 65 274 26 q 175 157 195 104 q 155 274 155 211 q 169 387 155 328 l 243 688 q 284 864 267 788 q 305 980 302 939 l 509 980 l 363 395 q 353 344 357 370 q 349 295 349 319 q 357 233 349 262 q 382 183 365 204 q 429 149 400 161 q 498 137 457 137 q 593 154 553 137 q 662 202 633 171 q 709 277 690 233 q 741 376 728 321 l 892 980 l 1095 980 m 836 1097 l 739 1252 l 565 1097 l 402 1097 l 652 1366 l 855 1366 l 998 1097 l 836 1097 z "},"":{"ha":997,"x_min":155,"x_max":1095,"o":"m 1095 980 q 1058 866 1078 939 q 1013 688 1038 793 l 920 319 q 769 69 878 155 q 473 -17 659 -17 q 334 5 394 -17 q 234 65 274 26 q 175 157 195 104 q 155 274 155 211 q 169 387 155 328 l 243 688 q 284 864 267 788 q 305 980 302 939 l 509 980 l 363 395 q 353 344 357 370 q 349 295 349 319 q 357 233 349 262 q 382 183 365 204 q 429 149 400 161 q 498 137 457 137 q 593 154 553 137 q 662 202 633 171 q 709 277 690 233 q 741 376 728 321 l 892 980 l 1095 980 m 728 1366 l 879 1097 l 723 1097 l 505 1366 l 728 1366 z "},"":{"ha":424,"x_min":115,"x_max":424,"o":"m 424 685 q 416 613 422 650 q 401 537 410 576 q 381 456 392 498 q 360 370 370 414 l 330 243 q 323 213 327 231 q 317 175 320 196 q 313 132 315 155 q 311 85 311 109 q 313 41 311 63 q 320 0 315 20 l 120 0 q 116 29 117 14 q 115 60 115 44 q 118 114 115 86 q 125 168 121 141 q 134 219 129 195 q 144 264 139 244 l 171 371 q 191 451 180 410 q 211 532 202 492 q 225 612 220 573 q 231 685 231 651 l 424 685 z "},"":{"ha":583,"x_min":160,"x_max":757,"o":"m 594 806 l 497 960 l 323 806 l 160 806 l 410 1074 l 613 1074 l 757 806 l 594 806 z "},"":{"ha":549,"x_min":138,"x_max":729,"o":"m 138 799 q 166 876 148 839 q 209 940 184 912 q 263 984 233 968 q 327 1000 293 1000 q 392 990 360 1000 q 460 965 424 980 q 511 942 491 953 q 549 931 530 931 q 573 936 561 931 q 595 950 585 941 q 613 969 605 958 q 624 994 621 981 l 729 994 q 699 913 718 950 q 653 849 679 876 q 595 807 627 823 q 529 792 564 792 q 471 801 497 792 q 412 825 444 810 q 357 851 381 841 q 313 862 332 862 q 290 857 301 862 q 270 844 279 852 q 253 824 260 836 q 243 799 246 812 l 138 799 z "},"":{"ha":549,"x_min":167,"x_max":764,"o":"m 201 973 l 764 973 l 730 833 l 167 833 l 201 973 z "},"":{"ha":536,"x_min":171,"x_max":727,"o":"m 727 1040 q 684 942 715 991 q 609 854 653 893 q 509 790 564 815 q 391 766 453 766 q 297 784 338 766 q 228 832 256 802 q 185 901 200 862 q 171 982 171 940 q 178 1040 171 1010 l 300 1040 q 300 1032 300 1036 l 300 1024 q 308 974 300 997 q 330 935 315 951 q 365 909 344 918 q 411 900 385 900 q 468 910 439 900 q 523 940 497 921 q 570 984 549 959 q 605 1040 591 1010 l 727 1040 z "},"":{"ha":224,"x_min":188,"x_max":432,"o":"m 188 907 q 199 961 188 935 q 231 1005 211 986 q 276 1036 250 1025 q 332 1047 302 1047 q 373 1040 355 1047 q 405 1020 391 1033 q 425 989 418 1007 q 432 951 432 972 q 421 898 432 923 q 390 853 410 873 q 344 823 370 834 q 288 812 318 812 q 248 819 266 812 q 216 839 229 826 q 195 869 203 852 q 188 907 188 887 z "},"":{"ha":319,"x_min":188,"x_max":531,"o":"m 188 914 q 203 987 188 953 q 246 1047 219 1021 q 309 1087 273 1072 q 386 1101 345 1101 q 443 1090 416 1101 q 489 1061 469 1080 q 520 1018 509 1043 q 531 966 531 994 q 515 893 531 927 q 473 833 500 859 q 410 793 446 808 q 333 779 374 779 q 276 789 302 779 q 230 819 250 800 q 199 862 210 837 q 188 914 188 886 m 351 876 q 378 881 365 876 q 402 896 392 886 q 419 919 413 905 q 426 948 426 932 q 410 987 426 971 q 369 1004 393 1004 q 342 999 355 1004 q 317 984 328 994 q 300 962 307 975 q 294 932 294 949 q 310 893 294 909 q 351 876 326 876 z "},"":{"ha":271,"x_min":-116,"x_max":203,"o":"m 106 34 l 81 -71 q 96 -68 88 -69 q 115 -67 103 -67 q 152 -74 136 -67 q 180 -93 169 -81 q 198 -121 192 -105 q 203 -156 203 -138 q 184 -226 203 -195 q 135 -281 165 -258 q 66 -316 104 -304 q -10 -329 28 -329 q -38 -327 -24 -329 q -67 -321 -53 -325 q -94 -313 -81 -318 q -116 -302 -107 -308 l -87 -215 q -52 -232 -75 -227 q -5 -238 -28 -238 q 24 -234 9 -238 q 54 -222 40 -230 q 76 -201 67 -214 q 85 -172 85 -189 q 71 -142 85 -154 q 35 -131 57 -131 q -4 -135 16 -131 q -36 -144 -24 -139 l 7 34 l 106 34 z "},"":{"ha":610,"x_min":160,"x_max":844,"o":"m 844 1074 l 587 806 l 438 806 l 627 1074 l 844 1074 m 566 1074 l 309 806 l 160 806 l 349 1074 l 566 1074 z "},"":{"ha":315,"x_min":-122,"x_max":193,"o":"m 142 0 q 99 -25 123 -9 q 54 -60 75 -41 q 19 -101 33 -79 q 4 -145 4 -123 q 19 -180 4 -168 q 61 -191 34 -191 q 89 -188 72 -191 q 125 -177 106 -184 q 162 -161 144 -170 q 193 -141 180 -152 l 189 -235 q 110 -280 153 -264 q 28 -296 66 -296 q -31 -287 -3 -296 q -79 -262 -58 -278 q -111 -225 -99 -246 q -122 -178 -122 -203 q -111 -120 -122 -147 q -79 -71 -99 -94 q -34 -31 -60 -49 q 20 0 -8 -13 l 142 0 z "},"":{"ha":583,"x_min":227,"x_max":823,"o":"m 823 1074 l 574 806 l 370 806 l 227 1074 l 389 1074 l 487 920 l 661 1074 l 823 1074 z "},"":{"ha":848,"x_min":85,"x_max":876,"o":"m 648 534 q 606 543 635 538 q 533 548 576 548 q 441 524 482 548 q 368 463 399 500 q 317 379 337 426 q 288 288 297 333 q 282 230 282 257 q 295 167 282 191 q 334 142 307 142 q 389 160 359 142 q 451 207 420 178 q 513 272 483 235 q 569 347 543 309 q 612 422 594 385 q 637 487 631 458 l 648 534 m 573 0 q 574 36 573 15 q 576 82 574 58 q 579 132 577 106 q 586 182 582 157 l 594 235 q 521 146 562 191 q 434 65 481 102 q 337 6 388 29 q 233 -17 286 -17 q 172 -4 199 -17 q 126 34 145 9 q 96 94 106 58 q 85 175 85 130 q 89 230 85 201 q 100 291 92 258 q 161 445 120 371 q 263 575 201 518 q 407 665 325 631 q 592 699 489 699 q 667 696 629 699 q 743 690 706 694 q 814 680 781 686 q 876 668 848 675 l 798 356 q 775 251 784 302 q 762 153 767 199 q 755 67 758 106 q 753 0 753 28 l 573 0 z "},"":{"ha":848,"x_min":85,"x_max":945,"o":"m 648 534 q 606 543 635 538 q 533 548 576 548 q 441 524 482 548 q 368 463 399 500 q 317 379 337 426 q 288 288 297 333 q 282 230 282 257 q 295 167 282 191 q 334 142 307 142 q 389 160 359 142 q 451 207 420 178 q 513 272 483 235 q 569 347 543 309 q 612 422 594 385 q 637 487 631 458 l 648 534 m 573 0 q 574 36 573 15 q 576 82 574 58 q 579 132 577 106 q 586 182 582 157 l 594 235 q 521 146 562 191 q 434 65 481 102 q 337 6 388 29 q 233 -17 286 -17 q 172 -4 199 -17 q 126 34 145 9 q 96 94 106 58 q 85 175 85 130 q 89 230 85 201 q 100 291 92 258 q 161 445 120 371 q 263 575 201 518 q 407 665 325 631 q 592 699 489 699 q 667 696 629 699 q 743 690 706 694 q 814 680 781 686 q 876 668 848 675 l 798 356 q 775 251 784 302 q 762 153 767 199 q 755 67 758 106 q 753 0 753 28 l 573 0 m 945 1074 l 615 806 l 452 806 l 695 1074 l 945 1074 z "},"":{"ha":848,"x_min":85,"x_max":876,"o":"m 648 534 q 606 543 635 538 q 533 548 576 548 q 441 524 482 548 q 368 463 399 500 q 317 379 337 426 q 288 288 297 333 q 282 230 282 257 q 295 167 282 191 q 334 142 307 142 q 389 160 359 142 q 451 207 420 178 q 513 272 483 235 q 569 347 543 309 q 612 422 594 385 q 637 487 631 458 l 648 534 m 573 0 q 574 36 573 15 q 576 82 574 58 q 579 132 577 106 q 586 182 582 157 l 594 235 q 521 146 562 191 q 434 65 481 102 q 337 6 388 29 q 233 -17 286 -17 q 172 -4 199 -17 q 126 34 145 9 q 96 94 106 58 q 85 175 85 130 q 89 230 85 201 q 100 291 92 258 q 161 445 120 371 q 263 575 201 518 q 407 665 325 631 q 592 699 489 699 q 667 696 629 699 q 743 690 706 694 q 814 680 781 686 q 876 668 848 675 l 798 356 q 775 251 784 302 q 762 153 767 199 q 755 67 758 106 q 753 0 753 28 l 573 0 m 600 1074 l 751 806 l 595 806 l 376 1074 l 600 1074 z "},"":{"ha":848,"x_min":85,"x_max":876,"o":"m 648 534 q 606 543 635 538 q 533 548 576 548 q 441 524 482 548 q 368 463 399 500 q 317 379 337 426 q 288 288 297 333 q 282 230 282 257 q 295 167 282 191 q 334 142 307 142 q 389 160 359 142 q 451 207 420 178 q 513 272 483 235 q 569 347 543 309 q 612 422 594 385 q 637 487 631 458 l 648 534 m 573 0 q 574 36 573 15 q 576 82 574 58 q 579 132 577 106 q 586 182 582 157 l 594 235 q 521 146 562 191 q 434 65 481 102 q 337 6 388 29 q 233 -17 286 -17 q 172 -4 199 -17 q 126 34 145 9 q 96 94 106 58 q 85 175 85 130 q 89 230 85 201 q 100 291 92 258 q 161 445 120 371 q 263 575 201 518 q 407 665 325 631 q 592 699 489 699 q 667 696 629 699 q 743 690 706 694 q 814 680 781 686 q 876 668 848 675 l 798 356 q 775 251 784 302 q 762 153 767 199 q 755 67 758 106 q 753 0 753 28 l 573 0 m 708 806 l 611 960 l 437 806 l 274 806 l 524 1074 l 727 1074 l 870 806 l 708 806 z "},"":{"ha":848,"x_min":85,"x_max":876,"o":"m 648 534 q 606 543 635 538 q 533 548 576 548 q 441 524 482 548 q 368 463 399 500 q 317 379 337 426 q 288 288 297 333 q 282 230 282 257 q 295 167 282 191 q 334 142 307 142 q 389 160 359 142 q 451 207 420 178 q 513 272 483 235 q 569 347 543 309 q 612 422 594 385 q 637 487 631 458 l 648 534 m 573 0 q 574 36 573 15 q 576 82 574 58 q 579 132 577 106 q 586 182 582 157 l 594 235 q 521 146 562 191 q 434 65 481 102 q 337 6 388 29 q 233 -17 286 -17 q 172 -4 199 -17 q 126 34 145 9 q 96 94 106 58 q 85 175 85 130 q 89 230 85 201 q 100 291 92 258 q 161 445 120 371 q 263 575 201 518 q 407 665 325 631 q 592 699 489 699 q 667 696 629 699 q 743 690 706 694 q 814 680 781 686 q 876 668 848 675 l 798 356 q 775 251 784 302 q 762 153 767 199 q 755 67 758 106 q 753 0 753 28 l 573 0 m 220 -230 q 231 -177 220 -202 q 262 -132 243 -151 q 308 -102 282 -113 q 364 -91 334 -91 q 405 -98 387 -91 q 436 -118 423 -105 q 457 -148 450 -130 q 464 -186 464 -165 q 454 -239 464 -214 q 425 -284 444 -264 q 382 -314 407 -303 q 326 -326 357 -326 q 285 -318 304 -326 q 251 -298 266 -311 q 228 -268 237 -286 q 220 -230 220 -250 m 708 806 l 611 960 l 437 806 l 274 806 l 524 1074 l 727 1074 l 870 806 l 708 806 z "},"":{"ha":848,"x_min":85,"x_max":1007,"o":"m 648 534 q 606 543 635 538 q 533 548 576 548 q 441 524 482 548 q 368 463 399 500 q 317 379 337 426 q 288 288 297 333 q 282 230 282 257 q 295 167 282 191 q 334 142 307 142 q 389 160 359 142 q 451 207 420 178 q 513 272 483 235 q 569 347 543 309 q 612 422 594 385 q 637 487 631 458 l 648 534 m 573 0 q 574 36 573 15 q 576 82 574 58 q 579 132 577 106 q 586 182 582 157 l 594 235 q 521 146 562 191 q 434 65 481 102 q 337 6 388 29 q 233 -17 286 -17 q 172 -4 199 -17 q 126 34 145 9 q 96 94 106 58 q 85 175 85 130 q 89 230 85 201 q 100 291 92 258 q 161 445 120 371 q 263 575 201 518 q 407 665 325 631 q 592 699 489 699 q 667 696 629 699 q 743 690 706 694 q 814 680 781 686 q 876 668 848 675 l 798 356 q 775 251 784 302 q 762 153 767 199 q 755 67 758 106 q 753 0 753 28 l 573 0 m 708 806 l 611 960 l 437 806 l 274 806 l 524 1074 l 727 1074 l 870 806 l 708 806 m 1007 1437 l 677 1168 l 514 1168 l 757 1437 l 1007 1437 z "},"":{"ha":848,"x_min":85,"x_max":876,"o":"m 648 534 q 606 543 635 538 q 533 548 576 548 q 441 524 482 548 q 368 463 399 500 q 317 379 337 426 q 288 288 297 333 q 282 230 282 257 q 295 167 282 191 q 334 142 307 142 q 389 160 359 142 q 451 207 420 178 q 513 272 483 235 q 569 347 543 309 q 612 422 594 385 q 637 487 631 458 l 648 534 m 573 0 q 574 36 573 15 q 576 82 574 58 q 579 132 577 106 q 586 182 582 157 l 594 235 q 521 146 562 191 q 434 65 481 102 q 337 6 388 29 q 233 -17 286 -17 q 172 -4 199 -17 q 126 34 145 9 q 96 94 106 58 q 85 175 85 130 q 89 230 85 201 q 100 291 92 258 q 161 445 120 371 q 263 575 201 518 q 407 665 325 631 q 592 699 489 699 q 667 696 629 699 q 743 690 706 694 q 814 680 781 686 q 876 668 848 675 l 798 356 q 775 251 784 302 q 762 153 767 199 q 755 67 758 106 q 753 0 753 28 l 573 0 m 708 806 l 611 960 l 437 806 l 274 806 l 524 1074 l 727 1074 l 870 806 l 708 806 m 662 1437 l 812 1168 l 656 1168 l 438 1437 l 662 1437 z "},"":{"ha":848,"x_min":85,"x_max":933,"o":"m 648 534 q 606 543 635 538 q 533 548 576 548 q 441 524 482 548 q 368 463 399 500 q 317 379 337 426 q 288 288 297 333 q 282 230 282 257 q 295 167 282 191 q 334 142 307 142 q 389 160 359 142 q 451 207 420 178 q 513 272 483 235 q 569 347 543 309 q 612 422 594 385 q 637 487 631 458 l 648 534 m 573 0 q 574 36 573 15 q 576 82 574 58 q 579 132 577 106 q 586 182 582 157 l 594 235 q 521 146 562 191 q 434 65 481 102 q 337 6 388 29 q 233 -17 286 -17 q 172 -4 199 -17 q 126 34 145 9 q 96 94 106 58 q 85 175 85 130 q 89 230 85 201 q 100 291 92 258 q 161 445 120 371 q 263 575 201 518 q 407 665 325 631 q 592 699 489 699 q 667 696 629 699 q 743 690 706 694 q 814 680 781 686 q 876 668 848 675 l 798 356 q 775 251 784 302 q 762 153 767 199 q 755 67 758 106 q 753 0 753 28 l 573 0 m 708 806 l 611 960 l 437 806 l 274 806 l 524 1074 l 727 1074 l 870 806 l 708 806 m 342 1162 q 370 1238 352 1202 q 413 1303 389 1275 q 467 1347 437 1331 q 531 1363 497 1363 q 596 1353 564 1363 q 665 1328 628 1343 q 715 1305 695 1316 q 753 1294 734 1294 q 777 1299 765 1294 q 799 1313 789 1304 q 817 1332 809 1321 q 828 1356 825 1343 l 933 1356 q 903 1276 922 1313 q 857 1212 883 1239 q 799 1170 831 1185 q 733 1155 768 1155 q 675 1164 701 1155 q 616 1188 648 1173 q 561 1214 585 1204 q 517 1225 536 1225 q 494 1220 505 1225 q 474 1207 484 1215 q 457 1187 465 1198 q 447 1162 450 1175 l 342 1162 z "},"":{"ha":848,"x_min":85,"x_max":876,"o":"m 648 534 q 606 543 635 538 q 533 548 576 548 q 441 524 482 548 q 368 463 399 500 q 317 379 337 426 q 288 288 297 333 q 282 230 282 257 q 295 167 282 191 q 334 142 307 142 q 389 160 359 142 q 451 207 420 178 q 513 272 483 235 q 569 347 543 309 q 612 422 594 385 q 637 487 631 458 l 648 534 m 573 0 q 574 36 573 15 q 576 82 574 58 q 579 132 577 106 q 586 182 582 157 l 594 235 q 521 146 562 191 q 434 65 481 102 q 337 6 388 29 q 233 -17 286 -17 q 172 -4 199 -17 q 126 34 145 9 q 96 94 106 58 q 85 175 85 130 q 89 230 85 201 q 100 291 92 258 q 161 445 120 371 q 263 575 201 518 q 407 665 325 631 q 592 699 489 699 q 667 696 629 699 q 743 690 706 694 q 814 680 781 686 q 876 668 848 675 l 798 356 q 775 251 784 302 q 762 153 767 199 q 755 67 758 106 q 753 0 753 28 l 573 0 m 708 806 l 611 960 l 437 806 l 274 806 l 524 1074 l 727 1074 l 870 806 l 708 806 m 595 1118 q 618 1192 606 1161 q 650 1246 631 1223 q 674 1269 659 1255 q 706 1299 690 1283 q 733 1331 722 1314 q 745 1360 745 1347 q 696 1390 745 1390 q 587 1350 636 1390 l 587 1434 q 648 1467 614 1453 q 722 1480 682 1480 q 778 1474 752 1480 q 822 1455 803 1468 q 851 1426 840 1443 q 861 1385 861 1408 q 849 1335 861 1356 q 819 1297 837 1314 q 781 1265 802 1280 q 745 1229 761 1249 q 730 1207 736 1218 q 719 1183 724 1196 q 709 1155 713 1171 q 700 1118 705 1139 l 595 1118 z "},"":{"ha":848,"x_min":85,"x_max":917,"o":"m 648 534 q 606 543 635 538 q 533 548 576 548 q 441 524 482 548 q 368 463 399 500 q 317 379 337 426 q 288 288 297 333 q 282 230 282 257 q 295 167 282 191 q 334 142 307 142 q 389 160 359 142 q 451 207 420 178 q 513 272 483 235 q 569 347 543 309 q 612 422 594 385 q 637 487 631 458 l 648 534 m 573 0 q 574 36 573 15 q 576 82 574 58 q 579 132 577 106 q 586 182 582 157 l 594 235 q 521 146 562 191 q 434 65 481 102 q 337 6 388 29 q 233 -17 286 -17 q 172 -4 199 -17 q 126 34 145 9 q 96 94 106 58 q 85 175 85 130 q 89 230 85 201 q 100 291 92 258 q 161 445 120 371 q 263 575 201 518 q 407 665 325 631 q 592 699 489 699 q 667 696 629 699 q 743 690 706 694 q 814 680 781 686 q 876 668 848 675 l 798 356 q 775 251 784 302 q 762 153 767 199 q 755 67 758 106 q 753 0 753 28 l 573 0 m 917 1040 q 874 942 905 991 q 799 854 843 893 q 699 790 754 815 q 581 766 643 766 q 487 784 528 766 q 418 832 446 802 q 375 901 390 862 q 361 982 361 940 q 368 1040 361 1010 l 490 1040 q 490 1032 490 1036 l 490 1024 q 497 974 490 997 q 519 935 505 951 q 554 909 534 918 q 601 900 575 900 q 658 910 629 900 q 713 940 687 921 q 760 984 739 959 q 795 1040 781 1010 l 917 1040 z "},"":{"ha":848,"x_min":85,"x_max":917,"o":"m 648 534 q 606 543 635 538 q 533 548 576 548 q 441 524 482 548 q 368 463 399 500 q 317 379 337 426 q 288 288 297 333 q 282 230 282 257 q 295 167 282 191 q 334 142 307 142 q 389 160 359 142 q 451 207 420 178 q 513 272 483 235 q 569 347 543 309 q 612 422 594 385 q 637 487 631 458 l 648 534 m 573 0 q 574 36 573 15 q 576 82 574 58 q 579 132 577 106 q 586 182 582 157 l 594 235 q 521 146 562 191 q 434 65 481 102 q 337 6 388 29 q 233 -17 286 -17 q 172 -4 199 -17 q 126 34 145 9 q 96 94 106 58 q 85 175 85 130 q 89 230 85 201 q 100 291 92 258 q 161 445 120 371 q 263 575 201 518 q 407 665 325 631 q 592 699 489 699 q 667 696 629 699 q 743 690 706 694 q 814 680 781 686 q 876 668 848 675 l 798 356 q 775 251 784 302 q 762 153 767 199 q 755 67 758 106 q 753 0 753 28 l 573 0 m 220 -230 q 231 -177 220 -202 q 262 -132 243 -151 q 308 -102 282 -113 q 364 -91 334 -91 q 405 -98 387 -91 q 436 -118 423 -105 q 457 -148 450 -130 q 464 -186 464 -165 q 454 -239 464 -214 q 425 -284 444 -264 q 382 -314 407 -303 q 326 -326 357 -326 q 285 -318 304 -326 q 251 -298 266 -311 q 228 -268 237 -286 q 220 -230 220 -250 m 917 1040 q 874 942 905 991 q 799 854 843 893 q 699 790 754 815 q 581 766 643 766 q 487 784 528 766 q 418 832 446 802 q 375 901 390 862 q 361 982 361 940 q 368 1040 361 1010 l 490 1040 q 490 1032 490 1036 l 490 1024 q 497 974 490 997 q 519 935 505 951 q 554 909 534 918 q 601 900 575 900 q 658 910 629 900 q 713 940 687 921 q 760 984 739 959 q 795 1040 781 1010 l 917 1040 z "},"":{"ha":848,"x_min":85,"x_max":1034,"o":"m 648 534 q 606 543 635 538 q 533 548 576 548 q 441 524 482 548 q 368 463 399 500 q 317 379 337 426 q 288 288 297 333 q 282 230 282 257 q 295 167 282 191 q 334 142 307 142 q 389 160 359 142 q 451 207 420 178 q 513 272 483 235 q 569 347 543 309 q 612 422 594 385 q 637 487 631 458 l 648 534 m 573 0 q 574 36 573 15 q 576 82 574 58 q 579 132 577 106 q 586 182 582 157 l 594 235 q 521 146 562 191 q 434 65 481 102 q 337 6 388 29 q 233 -17 286 -17 q 172 -4 199 -17 q 126 34 145 9 q 96 94 106 58 q 85 175 85 130 q 89 230 85 201 q 100 291 92 258 q 161 445 120 371 q 263 575 201 518 q 407 665 325 631 q 592 699 489 699 q 667 696 629 699 q 743 690 706 694 q 814 680 781 686 q 876 668 848 675 l 798 356 q 775 251 784 302 q 762 153 767 199 q 755 67 758 106 q 753 0 753 28 l 573 0 m 917 1040 q 874 942 905 991 q 799 854 843 893 q 699 790 754 815 q 581 766 643 766 q 487 784 528 766 q 418 832 446 802 q 375 901 390 862 q 361 982 361 940 q 368 1040 361 1010 l 490 1040 q 490 1032 490 1036 l 490 1024 q 497 974 490 997 q 519 935 505 951 q 554 909 534 918 q 601 900 575 900 q 658 910 629 900 q 713 940 687 921 q 760 984 739 959 q 795 1040 781 1010 l 917 1040 m 1034 1437 l 703 1168 l 541 1168 l 783 1437 l 1034 1437 z "},"":{"ha":848,"x_min":85,"x_max":917,"o":"m 648 534 q 606 543 635 538 q 533 548 576 548 q 441 524 482 548 q 368 463 399 500 q 317 379 337 426 q 288 288 297 333 q 282 230 282 257 q 295 167 282 191 q 334 142 307 142 q 389 160 359 142 q 451 207 420 178 q 513 272 483 235 q 569 347 543 309 q 612 422 594 385 q 637 487 631 458 l 648 534 m 573 0 q 574 36 573 15 q 576 82 574 58 q 579 132 577 106 q 586 182 582 157 l 594 235 q 521 146 562 191 q 434 65 481 102 q 337 6 388 29 q 233 -17 286 -17 q 172 -4 199 -17 q 126 34 145 9 q 96 94 106 58 q 85 175 85 130 q 89 230 85 201 q 100 291 92 258 q 161 445 120 371 q 263 575 201 518 q 407 665 325 631 q 592 699 489 699 q 667 696 629 699 q 743 690 706 694 q 814 680 781 686 q 876 668 848 675 l 798 356 q 775 251 784 302 q 762 153 767 199 q 755 67 758 106 q 753 0 753 28 l 573 0 m 917 1040 q 874 942 905 991 q 799 854 843 893 q 699 790 754 815 q 581 766 643 766 q 487 784 528 766 q 418 832 446 802 q 375 901 390 862 q 361 982 361 940 q 368 1040 361 1010 l 490 1040 q 490 1032 490 1036 l 490 1024 q 497 974 490 997 q 519 935 505 951 q 554 909 534 918 q 601 900 575 900 q 658 910 629 900 q 713 940 687 921 q 760 984 739 959 q 795 1040 781 1010 l 917 1040 m 688 1437 l 839 1168 l 683 1168 l 465 1437 l 688 1437 z "},"":{"ha":848,"x_min":85,"x_max":960,"o":"m 648 534 q 606 543 635 538 q 533 548 576 548 q 441 524 482 548 q 368 463 399 500 q 317 379 337 426 q 288 288 297 333 q 282 230 282 257 q 295 167 282 191 q 334 142 307 142 q 389 160 359 142 q 451 207 420 178 q 513 272 483 235 q 569 347 543 309 q 612 422 594 385 q 637 487 631 458 l 648 534 m 573 0 q 574 36 573 15 q 576 82 574 58 q 579 132 577 106 q 586 182 582 157 l 594 235 q 521 146 562 191 q 434 65 481 102 q 337 6 388 29 q 233 -17 286 -17 q 172 -4 199 -17 q 126 34 145 9 q 96 94 106 58 q 85 175 85 130 q 89 230 85 201 q 100 291 92 258 q 161 445 120 371 q 263 575 201 518 q 407 665 325 631 q 592 699 489 699 q 667 696 629 699 q 743 690 706 694 q 814 680 781 686 q 876 668 848 675 l 798 356 q 775 251 784 302 q 762 153 767 199 q 755 67 758 106 q 753 0 753 28 l 573 0 m 917 1040 q 874 942 905 991 q 799 854 843 893 q 699 790 754 815 q 581 766 643 766 q 487 784 528 766 q 418 832 446 802 q 375 901 390 862 q 361 982 361 940 q 368 1040 361 1010 l 490 1040 q 490 1032 490 1036 l 490 1024 q 497 974 490 997 q 519 935 505 951 q 554 909 534 918 q 601 900 575 900 q 658 910 629 900 q 713 940 687 921 q 760 984 739 959 q 795 1040 781 1010 l 917 1040 m 368 1162 q 397 1238 378 1202 q 439 1303 415 1275 q 494 1347 464 1331 q 557 1363 524 1363 q 623 1353 591 1363 q 691 1328 654 1343 q 741 1305 722 1316 q 780 1294 761 1294 q 803 1299 791 1294 q 825 1313 815 1304 q 843 1332 836 1321 q 854 1356 851 1343 l 960 1356 q 929 1276 949 1313 q 883 1212 909 1239 q 826 1170 857 1185 q 760 1155 794 1155 q 701 1164 728 1155 q 643 1188 675 1173 q 587 1214 612 1204 q 543 1225 563 1225 q 521 1220 532 1225 q 500 1207 510 1215 q 484 1187 491 1198 q 473 1162 477 1175 l 368 1162 z "},"":{"ha":848,"x_min":85,"x_max":917,"o":"m 648 534 q 606 543 635 538 q 533 548 576 548 q 441 524 482 548 q 368 463 399 500 q 317 379 337 426 q 288 288 297 333 q 282 230 282 257 q 295 167 282 191 q 334 142 307 142 q 389 160 359 142 q 451 207 420 178 q 513 272 483 235 q 569 347 543 309 q 612 422 594 385 q 637 487 631 458 l 648 534 m 573 0 q 574 36 573 15 q 576 82 574 58 q 579 132 577 106 q 586 182 582 157 l 594 235 q 521 146 562 191 q 434 65 481 102 q 337 6 388 29 q 233 -17 286 -17 q 172 -4 199 -17 q 126 34 145 9 q 96 94 106 58 q 85 175 85 130 q 89 230 85 201 q 100 291 92 258 q 161 445 120 371 q 263 575 201 518 q 407 665 325 631 q 592 699 489 699 q 667 696 629 699 q 743 690 706 694 q 814 680 781 686 q 876 668 848 675 l 798 356 q 775 251 784 302 q 762 153 767 199 q 755 67 758 106 q 753 0 753 28 l 573 0 m 917 1040 q 874 942 905 991 q 799 854 843 893 q 699 790 754 815 q 581 766 643 766 q 487 784 528 766 q 418 832 446 802 q 375 901 390 862 q 361 982 361 940 q 368 1040 361 1010 l 490 1040 q 490 1032 490 1036 l 490 1024 q 497 974 490 997 q 519 935 505 951 q 554 909 534 918 q 601 900 575 900 q 658 910 629 900 q 713 940 687 921 q 760 984 739 959 q 795 1040 781 1010 l 917 1040 m 621 1118 q 645 1192 632 1161 q 677 1246 657 1223 q 701 1269 685 1255 q 732 1299 716 1283 q 760 1331 748 1314 q 772 1360 772 1347 q 723 1390 772 1390 q 613 1350 663 1390 l 613 1434 q 674 1467 640 1453 q 749 1480 708 1480 q 804 1474 779 1480 q 848 1455 829 1468 q 877 1426 867 1443 q 888 1385 888 1408 q 876 1335 888 1356 q 846 1297 863 1314 q 808 1265 828 1280 q 771 1229 787 1249 q 756 1207 762 1218 q 745 1183 750 1196 q 735 1155 740 1171 q 726 1118 731 1139 l 621 1118 z "},"":{"ha":848,"x_min":85,"x_max":958,"o":"m 648 534 q 606 543 635 538 q 533 548 576 548 q 441 524 482 548 q 368 463 399 500 q 317 379 337 426 q 288 288 297 333 q 282 230 282 257 q 295 167 282 191 q 334 142 307 142 q 389 160 359 142 q 451 207 420 178 q 513 272 483 235 q 569 347 543 309 q 612 422 594 385 q 637 487 631 458 l 648 534 m 573 0 q 574 36 573 15 q 576 82 574 58 q 579 132 577 106 q 586 182 582 157 l 594 235 q 521 146 562 191 q 434 65 481 102 q 337 6 388 29 q 233 -17 286 -17 q 172 -4 199 -17 q 126 34 145 9 q 96 94 106 58 q 85 175 85 130 q 89 230 85 201 q 100 291 92 258 q 161 445 120 371 q 263 575 201 518 q 407 665 325 631 q 592 699 489 699 q 667 696 629 699 q 743 690 706 694 q 814 680 781 686 q 876 668 848 675 l 798 356 q 775 251 784 302 q 762 153 767 199 q 755 67 758 106 q 753 0 753 28 l 573 0 m 958 1074 l 709 806 l 505 806 l 361 1074 l 524 1074 l 622 920 l 795 1074 l 958 1074 z "},"":{"ha":848,"x_min":85,"x_max":876,"o":"m 648 534 q 606 543 635 538 q 533 548 576 548 q 441 524 482 548 q 368 463 399 500 q 317 379 337 426 q 288 288 297 333 q 282 230 282 257 q 295 167 282 191 q 334 142 307 142 q 389 160 359 142 q 451 207 420 178 q 513 272 483 235 q 569 347 543 309 q 612 422 594 385 q 637 487 631 458 l 648 534 m 573 0 q 574 36 573 15 q 576 82 574 58 q 579 132 577 106 q 586 182 582 157 l 594 235 q 521 146 562 191 q 434 65 481 102 q 337 6 388 29 q 233 -17 286 -17 q 172 -4 199 -17 q 126 34 145 9 q 96 94 106 58 q 85 175 85 130 q 89 230 85 201 q 100 291 92 258 q 161 445 120 371 q 263 575 201 518 q 407 665 325 631 q 592 699 489 699 q 667 696 629 699 q 743 690 706 694 q 814 680 781 686 q 876 668 848 675 l 798 356 q 775 251 784 302 q 762 153 767 199 q 755 67 758 106 q 753 0 753 28 l 573 0 m 280 799 q 309 876 290 839 q 351 940 327 912 q 406 984 376 968 q 469 1000 435 1000 q 534 990 503 1000 q 603 965 566 980 q 653 942 633 953 q 692 931 673 931 q 715 936 703 931 q 737 950 727 941 q 755 969 747 958 q 766 994 763 981 l 871 994 q 841 913 861 950 q 795 849 821 876 q 738 807 769 823 q 671 792 706 792 q 613 801 640 792 q 555 825 587 810 q 499 851 524 841 q 455 862 475 862 q 433 857 444 862 q 412 844 422 852 q 396 824 403 836 q 385 799 389 812 l 280 799 z "},"":{"ha":848,"x_min":85,"x_max":924,"o":"m 648 534 q 606 543 635 538 q 533 548 576 548 q 441 524 482 548 q 368 463 399 500 q 317 379 337 426 q 288 288 297 333 q 282 230 282 257 q 295 167 282 191 q 334 142 307 142 q 389 160 359 142 q 451 207 420 178 q 513 272 483 235 q 569 347 543 309 q 612 422 594 385 q 637 487 631 458 l 648 534 m 573 0 q 574 36 573 15 q 576 82 574 58 q 579 132 577 106 q 586 182 582 157 l 594 235 q 521 146 562 191 q 434 65 481 102 q 337 6 388 29 q 233 -17 286 -17 q 172 -4 199 -17 q 126 34 145 9 q 96 94 106 58 q 85 175 85 130 q 89 230 85 201 q 100 291 92 258 q 161 445 120 371 q 263 575 201 518 q 407 665 325 631 q 592 699 489 699 q 667 696 629 699 q 743 690 706 694 q 814 680 781 686 q 876 668 848 675 l 798 356 q 775 251 784 302 q 762 153 767 199 q 755 67 758 106 q 753 0 753 28 l 573 0 m 361 973 l 924 973 l 889 833 l 327 833 l 361 973 z "},"":{"ha":848,"x_min":85,"x_max":920,"o":"m 648 534 q 606 543 635 538 q 533 548 576 548 q 441 524 482 548 q 368 463 399 500 q 317 379 337 426 q 288 288 297 333 q 282 230 282 257 q 295 167 282 191 q 334 142 307 142 q 389 160 359 142 q 451 207 420 178 q 513 272 483 235 q 569 347 543 309 q 612 422 594 385 q 637 487 631 458 l 648 534 m 573 0 q 574 36 573 15 q 576 82 574 58 q 579 132 577 106 q 586 182 582 157 l 594 235 q 521 146 562 191 q 434 65 481 102 q 337 6 388 29 q 233 -17 286 -17 q 172 -4 199 -17 q 126 34 145 9 q 96 94 106 58 q 85 175 85 130 q 89 230 85 201 q 100 291 92 258 q 161 445 120 371 q 263 575 201 518 q 407 665 325 631 q 592 699 489 699 q 667 696 629 699 q 743 690 706 694 q 814 680 781 686 q 876 668 848 675 l 798 356 q 775 251 784 302 q 762 153 767 199 q 755 67 758 106 q 753 0 753 28 l 573 0 m 344 907 q 355 961 344 935 q 386 1005 366 986 q 432 1036 406 1025 q 488 1047 458 1047 q 529 1040 511 1047 q 561 1020 547 1033 q 581 990 574 1007 q 588 952 588 972 q 577 899 588 924 q 546 854 566 873 q 500 824 526 835 q 444 812 474 812 q 404 820 422 812 q 372 839 385 827 q 351 869 359 852 q 344 907 344 886 m 676 907 q 687 960 676 935 q 718 1005 699 985 q 764 1036 737 1024 q 820 1047 790 1047 q 861 1040 842 1047 q 892 1020 879 1033 q 912 990 905 1007 q 920 952 920 972 q 908 899 920 924 q 878 854 897 873 q 832 824 859 835 q 776 812 806 812 q 736 820 754 812 q 704 839 718 827 q 684 869 691 852 q 676 907 676 886 z "},"":{"ha":848,"x_min":85,"x_max":1006,"o":"m 648 534 q 606 543 635 538 q 533 548 576 548 q 441 524 482 548 q 368 463 399 500 q 317 379 337 426 q 288 288 297 333 q 282 230 282 257 q 295 167 282 191 q 334 142 307 142 q 389 160 359 142 q 451 207 420 178 q 513 272 483 235 q 569 347 543 309 q 612 422 594 385 q 637 487 631 458 l 648 534 m 573 0 q 574 36 573 15 q 576 82 574 58 q 579 132 577 106 q 586 182 582 157 l 594 235 q 521 146 562 191 q 434 65 481 102 q 337 6 388 29 q 233 -17 286 -17 q 172 -4 199 -17 q 126 34 145 9 q 96 94 106 58 q 85 175 85 130 q 89 230 85 201 q 100 291 92 258 q 161 445 120 371 q 263 575 201 518 q 407 665 325 631 q 592 699 489 699 q 667 696 629 699 q 743 690 706 694 q 814 680 781 686 q 876 668 848 675 l 798 356 q 775 251 784 302 q 762 153 767 199 q 755 67 758 106 q 753 0 753 28 l 573 0 m 344 907 q 355 961 344 935 q 386 1005 366 986 q 432 1036 406 1025 q 488 1047 458 1047 q 529 1040 511 1047 q 561 1020 547 1033 q 581 990 574 1007 q 588 952 588 972 q 577 899 588 924 q 546 854 566 873 q 500 824 526 835 q 444 812 474 812 q 404 820 422 812 q 372 839 385 827 q 351 869 359 852 q 344 907 344 886 m 676 907 q 687 960 676 935 q 718 1005 699 985 q 764 1036 737 1024 q 820 1047 790 1047 q 861 1040 842 1047 q 892 1020 879 1033 q 912 990 905 1007 q 920 952 920 972 q 908 899 920 924 q 878 854 897 873 q 832 824 859 835 q 776 812 806 812 q 736 820 754 812 q 704 839 718 827 q 684 869 691 852 q 676 907 676 886 m 444 1302 l 1006 1302 l 972 1162 l 410 1162 l 444 1302 z "},"":{"ha":848,"x_min":85,"x_max":876,"o":"m 648 534 q 606 543 635 538 q 533 548 576 548 q 441 524 482 548 q 368 463 399 500 q 317 379 337 426 q 288 288 297 333 q 282 230 282 257 q 295 167 282 191 q 334 142 307 142 q 389 160 359 142 q 451 207 420 178 q 513 272 483 235 q 569 347 543 309 q 612 422 594 385 q 637 487 631 458 l 648 534 m 573 0 q 574 36 573 15 q 576 82 574 58 q 579 132 577 106 q 586 182 582 157 l 594 235 q 521 146 562 191 q 434 65 481 102 q 337 6 388 29 q 233 -17 286 -17 q 172 -4 199 -17 q 126 34 145 9 q 96 94 106 58 q 85 175 85 130 q 89 230 85 201 q 100 291 92 258 q 161 445 120 371 q 263 575 201 518 q 407 665 325 631 q 592 699 489 699 q 667 696 629 699 q 743 690 706 694 q 814 680 781 686 q 876 668 848 675 l 798 356 q 775 251 784 302 q 762 153 767 199 q 755 67 758 106 q 753 0 753 28 l 573 0 m 496 907 q 508 961 496 935 q 539 1005 519 986 q 585 1036 559 1025 q 641 1047 611 1047 q 682 1040 663 1047 q 713 1020 700 1033 q 733 989 726 1007 q 741 951 741 972 q 729 898 741 923 q 699 853 718 873 q 653 823 679 834 q 596 812 627 812 q 556 819 574 812 q 525 839 538 826 q 504 869 511 852 q 496 907 496 887 z "},"":{"ha":848,"x_min":85,"x_max":977,"o":"m 648 534 q 606 543 635 538 q 533 548 576 548 q 441 524 482 548 q 368 463 399 500 q 317 379 337 426 q 288 288 297 333 q 282 230 282 257 q 295 167 282 191 q 334 142 307 142 q 389 160 359 142 q 451 207 420 178 q 513 272 483 235 q 569 347 543 309 q 612 422 594 385 q 637 487 631 458 l 648 534 m 573 0 q 574 36 573 15 q 576 82 574 58 q 579 132 577 106 q 586 182 582 157 l 594 235 q 521 146 562 191 q 434 65 481 102 q 337 6 388 29 q 233 -17 286 -17 q 172 -4 199 -17 q 126 34 145 9 q 96 94 106 58 q 85 175 85 130 q 89 230 85 201 q 100 291 92 258 q 161 445 120 371 q 263 575 201 518 q 407 665 325 631 q 592 699 489 699 q 667 696 629 699 q 743 690 706 694 q 814 680 781 686 q 876 668 848 675 l 798 356 q 775 251 784 302 q 762 153 767 199 q 755 67 758 106 q 753 0 753 28 l 573 0 m 496 907 q 508 961 496 935 q 539 1005 519 986 q 585 1036 559 1025 q 641 1047 611 1047 q 682 1040 663 1047 q 713 1020 700 1033 q 733 989 726 1007 q 741 951 741 972 q 729 898 741 923 q 699 853 718 873 q 653 823 679 834 q 596 812 627 812 q 556 819 574 812 q 525 839 538 826 q 504 869 511 852 q 496 907 496 887 m 415 1282 l 977 1282 l 943 1141 l 380 1141 l 415 1282 z "},"":{"ha":848,"x_min":85,"x_max":876,"o":"m 648 534 q 606 543 635 538 q 533 548 576 548 q 441 524 482 548 q 368 463 399 500 q 317 379 337 426 q 288 288 297 333 q 282 230 282 257 q 295 167 282 191 q 334 142 307 142 q 389 160 359 142 q 451 207 420 178 q 513 272 483 235 q 569 347 543 309 q 612 422 594 385 q 637 487 631 458 l 648 534 m 573 0 q 574 36 573 15 q 576 82 574 58 q 579 132 577 106 q 586 182 582 157 l 594 235 q 521 146 562 191 q 434 65 481 102 q 337 6 388 29 q 233 -17 286 -17 q 172 -4 199 -17 q 126 34 145 9 q 96 94 106 58 q 85 175 85 130 q 89 230 85 201 q 100 291 92 258 q 161 445 120 371 q 263 575 201 518 q 407 665 325 631 q 592 699 489 699 q 667 696 629 699 q 743 690 706 694 q 814 680 781 686 q 876 668 848 675 l 798 356 q 775 251 784 302 q 762 153 767 199 q 755 67 758 106 q 753 0 753 28 l 573 0 m 423 914 q 439 987 423 953 q 481 1047 454 1021 q 544 1087 508 1072 q 621 1101 581 1101 q 678 1090 652 1101 q 724 1061 705 1080 q 755 1018 744 1043 q 766 966 766 994 q 751 893 766 927 q 708 833 735 859 q 645 793 682 808 q 568 779 609 779 q 511 789 538 779 q 465 819 485 800 q 434 862 446 837 q 423 914 423 886 m 586 876 q 614 881 600 876 q 638 896 627 886 q 655 919 648 905 q 661 948 661 932 q 645 987 661 971 q 604 1004 629 1004 q 577 999 591 1004 q 553 984 564 994 q 535 962 542 975 q 529 932 529 949 q 545 893 529 909 q 586 876 562 876 z "},"":{"ha":848,"x_min":85,"x_max":1038,"o":"m 648 534 q 606 543 635 538 q 533 548 576 548 q 441 524 482 548 q 368 463 399 500 q 317 379 337 426 q 288 288 297 333 q 282 230 282 257 q 295 167 282 191 q 334 142 307 142 q 389 160 359 142 q 451 207 420 178 q 513 272 483 235 q 569 347 543 309 q 612 422 594 385 q 637 487 631 458 l 648 534 m 573 0 q 574 36 573 15 q 576 82 574 58 q 579 132 577 106 q 586 182 582 157 l 594 235 q 521 146 562 191 q 434 65 481 102 q 337 6 388 29 q 233 -17 286 -17 q 172 -4 199 -17 q 126 34 145 9 q 96 94 106 58 q 85 175 85 130 q 89 230 85 201 q 100 291 92 258 q 161 445 120 371 q 263 575 201 518 q 407 665 325 631 q 592 699 489 699 q 667 696 629 699 q 743 690 706 694 q 814 680 781 686 q 876 668 848 675 l 798 356 q 775 251 784 302 q 762 153 767 199 q 755 67 758 106 q 753 0 753 28 l 573 0 m 423 914 q 439 987 423 953 q 481 1047 454 1021 q 544 1087 508 1072 q 621 1101 581 1101 q 678 1090 652 1101 q 724 1061 705 1080 q 755 1018 744 1043 q 766 966 766 994 q 751 893 766 927 q 708 833 735 859 q 645 793 682 808 q 568 779 609 779 q 511 789 538 779 q 465 819 485 800 q 434 862 446 837 q 423 914 423 886 m 586 876 q 614 881 600 876 q 638 896 627 886 q 655 919 648 905 q 661 948 661 932 q 645 987 661 971 q 604 1004 629 1004 q 577 999 591 1004 q 553 984 564 994 q 535 962 542 975 q 529 932 529 949 q 545 893 529 909 q 586 876 562 876 m 1038 1437 l 707 1168 l 545 1168 l 787 1437 l 1038 1437 z "},"":{"ha":848,"x_min":85,"x_max":876,"o":"m 648 534 q 606 543 635 538 q 533 548 576 548 q 441 524 482 548 q 368 463 399 500 q 317 379 337 426 q 288 288 297 333 q 282 230 282 257 q 295 167 282 191 q 334 142 307 142 q 389 160 359 142 q 451 207 420 178 q 513 272 483 235 q 569 347 543 309 q 612 422 594 385 q 637 487 631 458 l 648 534 m 573 0 q 574 36 573 15 q 576 82 574 58 q 579 132 577 106 q 586 182 582 157 l 594 235 q 521 146 562 191 q 434 65 481 102 q 337 6 388 29 q 233 -17 286 -17 q 172 -4 199 -17 q 126 34 145 9 q 96 94 106 58 q 85 175 85 130 q 89 230 85 201 q 100 291 92 258 q 161 445 120 371 q 263 575 201 518 q 407 665 325 631 q 592 699 489 699 q 667 696 629 699 q 743 690 706 694 q 814 680 781 686 q 876 668 848 675 l 798 356 q 775 251 784 302 q 762 153 767 199 q 755 67 758 106 q 753 0 753 28 l 573 0 m 533 755 q 556 829 544 798 q 589 883 569 860 q 612 906 597 892 q 644 936 628 920 q 672 968 660 951 q 684 998 684 984 q 635 1027 684 1027 q 525 987 574 1027 l 525 1071 q 586 1104 552 1090 q 661 1118 620 1118 q 716 1111 690 1118 q 760 1093 741 1105 q 789 1063 779 1080 q 800 1023 800 1045 q 787 972 800 993 q 758 935 775 951 q 720 902 740 918 q 683 866 699 886 q 668 844 674 855 q 657 821 662 833 q 647 792 652 808 q 638 755 643 776 l 533 755 z "},"":{"ha":848,"x_min":85,"x_max":876,"o":"m 648 534 q 606 543 635 538 q 533 548 576 548 q 441 524 482 548 q 368 463 399 500 q 317 379 337 426 q 288 288 297 333 q 282 230 282 257 q 295 167 282 191 q 334 142 307 142 q 389 160 359 142 q 451 207 420 178 q 513 272 483 235 q 569 347 543 309 q 612 422 594 385 q 637 487 631 458 l 648 534 m 573 0 q 574 36 573 15 q 576 82 574 58 q 579 132 577 106 q 586 182 582 157 l 594 235 q 521 146 562 191 q 434 65 481 102 q 337 6 388 29 q 233 -17 286 -17 q 172 -4 199 -17 q 126 34 145 9 q 96 94 106 58 q 85 175 85 130 q 89 230 85 201 q 100 291 92 258 q 161 445 120 371 q 263 575 201 518 q 407 665 325 631 q 592 699 489 699 q 667 696 629 699 q 743 690 706 694 q 814 680 781 686 q 876 668 848 675 l 798 356 q 775 251 784 302 q 762 153 767 199 q 755 67 758 106 q 753 0 753 28 l 573 0 m 220 -230 q 231 -177 220 -202 q 262 -132 243 -151 q 308 -102 282 -113 q 364 -91 334 -91 q 405 -98 387 -91 q 436 -118 423 -105 q 457 -148 450 -130 q 464 -186 464 -165 q 454 -239 464 -214 q 425 -284 444 -264 q 382 -314 407 -303 q 326 -326 357 -326 q 285 -318 304 -326 q 251 -298 266 -311 q 228 -268 237 -286 q 220 -230 220 -250 z "},"":{"ha":1195,"x_min":74,"x_max":1221,"o":"m 1134 50 q 1056 19 1093 32 q 983 -2 1019 6 q 910 -13 947 -9 q 834 -17 873 -17 q 756 -6 794 -17 q 687 23 719 4 q 630 67 655 41 q 591 124 605 93 q 551 91 574 108 q 501 59 528 75 q 445 30 474 43 q 386 5 415 16 q 328 -11 356 -5 q 277 -17 300 -17 q 195 -3 233 -17 q 131 36 158 12 q 89 93 104 60 q 74 160 74 125 q 96 266 74 220 q 159 342 117 311 q 263 391 201 373 q 406 418 325 410 q 451 421 424 420 q 506 425 478 423 q 557 428 534 427 q 591 429 581 429 l 599 465 q 600 477 600 471 l 600 488 q 591 509 600 498 q 564 528 583 519 q 517 543 546 537 q 450 548 489 548 q 339 527 395 548 q 214 464 283 505 q 222 496 216 475 q 235 541 228 517 q 250 591 242 566 q 264 637 257 617 q 325 662 296 651 q 386 682 355 673 q 452 694 416 690 q 530 699 487 699 q 646 674 600 699 q 720 611 691 650 q 848 678 780 657 q 985 699 916 699 q 1084 686 1040 699 q 1158 649 1127 673 q 1204 594 1188 626 q 1221 525 1221 562 q 1197 432 1221 477 q 1125 354 1173 388 q 1007 300 1078 320 q 844 280 937 280 q 790 281 820 280 q 730 286 760 283 q 730 279 730 282 l 730 273 q 739 219 730 244 q 766 175 748 194 q 810 145 784 156 q 870 134 836 134 q 1005 151 937 134 q 1145 205 1072 168 l 1134 50 m 559 260 q 559 288 559 271 q 562 319 559 305 q 529 317 549 318 q 487 313 509 315 q 445 310 465 311 q 412 307 425 308 q 312 277 344 299 q 272 221 280 254 q 270 203 270 212 q 289 157 270 176 q 345 138 309 138 q 398 146 370 138 q 454 169 426 155 q 510 203 483 184 q 559 243 536 222 l 559 260 m 941 557 q 880 547 909 557 q 824 517 850 537 q 778 467 798 496 q 745 397 758 437 q 819 393 785 393 q 924 400 881 393 q 995 419 968 407 q 1035 449 1023 431 q 1047 488 1047 467 q 1019 539 1047 520 q 941 557 991 557 m 1143 1074 l 812 806 l 650 806 l 892 1074 l 1143 1074 z "},"":{"ha":1195,"x_min":74,"x_max":1221,"o":"m 1134 50 q 1056 19 1093 32 q 983 -2 1019 6 q 910 -13 947 -9 q 834 -17 873 -17 q 756 -6 794 -17 q 687 23 719 4 q 630 67 655 41 q 591 124 605 93 q 551 91 574 108 q 501 59 528 75 q 445 30 474 43 q 386 5 415 16 q 328 -11 356 -5 q 277 -17 300 -17 q 195 -3 233 -17 q 131 36 158 12 q 89 93 104 60 q 74 160 74 125 q 96 266 74 220 q 159 342 117 311 q 263 391 201 373 q 406 418 325 410 q 451 421 424 420 q 506 425 478 423 q 557 428 534 427 q 591 429 581 429 l 599 465 q 600 477 600 471 l 600 488 q 591 509 600 498 q 564 528 583 519 q 517 543 546 537 q 450 548 489 548 q 339 527 395 548 q 214 464 283 505 q 222 496 216 475 q 235 541 228 517 q 250 591 242 566 q 264 637 257 617 q 325 662 296 651 q 386 682 355 673 q 452 694 416 690 q 530 699 487 699 q 646 674 600 699 q 720 611 691 650 q 848 678 780 657 q 985 699 916 699 q 1084 686 1040 699 q 1158 649 1127 673 q 1204 594 1188 626 q 1221 525 1221 562 q 1197 432 1221 477 q 1125 354 1173 388 q 1007 300 1078 320 q 844 280 937 280 q 790 281 820 280 q 730 286 760 283 q 730 279 730 282 l 730 273 q 739 219 730 244 q 766 175 748 194 q 810 145 784 156 q 870 134 836 134 q 1005 151 937 134 q 1145 205 1072 168 l 1134 50 m 559 260 q 559 288 559 271 q 562 319 559 305 q 529 317 549 318 q 487 313 509 315 q 445 310 465 311 q 412 307 425 308 q 312 277 344 299 q 272 221 280 254 q 270 203 270 212 q 289 157 270 176 q 345 138 309 138 q 398 146 370 138 q 454 169 426 155 q 510 203 483 184 q 559 243 536 222 l 559 260 m 941 557 q 880 547 909 557 q 824 517 850 537 q 778 467 798 496 q 745 397 758 437 q 819 393 785 393 q 924 400 881 393 q 995 419 968 407 q 1035 449 1023 431 q 1047 488 1047 467 q 1019 539 1047 520 q 941 557 991 557 m 559 973 l 1121 973 l 1086 833 l 524 833 l 559 973 z "},"":{"ha":994,"x_min":-12,"x_max":1135,"o":"m 411 382 l 689 382 l 660 825 l 411 382 m 699 238 l 330 238 l 197 0 l -12 0 q 16 42 2 20 q 47 92 31 64 q 86 155 64 119 q 135 238 107 191 l 571 980 l 812 980 l 878 238 q 886 156 882 191 q 893 92 890 120 q 900 42 897 64 q 907 0 903 20 l 715 0 l 699 238 m 836 1097 l 739 1252 l 565 1097 l 402 1097 l 652 1366 l 855 1366 l 998 1097 l 836 1097 m 1135 1729 l 805 1460 l 642 1460 l 885 1729 l 1135 1729 z "},"":{"ha":994,"x_min":-12,"x_max":998,"o":"m 411 382 l 689 382 l 660 825 l 411 382 m 699 238 l 330 238 l 197 0 l -12 0 q 16 42 2 20 q 47 92 31 64 q 86 155 64 119 q 135 238 107 191 l 571 980 l 812 980 l 878 238 q 886 156 882 191 q 893 92 890 120 q 900 42 897 64 q 907 0 903 20 l 715 0 l 699 238 m 836 1097 l 739 1252 l 565 1097 l 402 1097 l 652 1366 l 855 1366 l 998 1097 l 836 1097 m 790 1729 l 941 1460 l 785 1460 l 566 1729 l 790 1729 z "},"":{"ha":994,"x_min":-12,"x_max":1061,"o":"m 411 382 l 689 382 l 660 825 l 411 382 m 699 238 l 330 238 l 197 0 l -12 0 q 16 42 2 20 q 47 92 31 64 q 86 155 64 119 q 135 238 107 191 l 571 980 l 812 980 l 878 238 q 886 156 882 191 q 893 92 890 120 q 900 42 897 64 q 907 0 903 20 l 715 0 l 699 238 m 836 1097 l 739 1252 l 565 1097 l 402 1097 l 652 1366 l 855 1366 l 998 1097 l 836 1097 m 470 1453 q 498 1530 480 1493 q 541 1594 517 1567 q 595 1638 566 1622 q 659 1655 625 1655 q 724 1645 692 1655 q 793 1619 756 1634 q 843 1596 823 1607 q 882 1586 863 1586 q 905 1591 893 1586 q 927 1604 917 1596 q 945 1624 937 1613 q 956 1648 953 1635 l 1061 1648 q 1031 1568 1050 1605 q 985 1504 1011 1531 q 927 1462 959 1477 q 861 1447 896 1447 q 803 1455 829 1447 q 745 1480 777 1464 q 689 1506 713 1495 q 645 1516 665 1516 q 623 1512 633 1516 q 602 1498 612 1507 q 586 1478 593 1490 q 575 1453 578 1467 l 470 1453 z "},"":{"ha":994,"x_min":-12,"x_max":998,"o":"m 411 382 l 689 382 l 660 825 l 411 382 m 699 238 l 330 238 l 197 0 l -12 0 q 16 42 2 20 q 47 92 31 64 q 86 155 64 119 q 135 238 107 191 l 571 980 l 812 980 l 878 238 q 886 156 882 191 q 893 92 890 120 q 900 42 897 64 q 907 0 903 20 l 715 0 l 699 238 m 836 1097 l 739 1252 l 565 1097 l 402 1097 l 652 1366 l 855 1366 l 998 1097 l 836 1097 m 723 1410 q 746 1483 734 1453 q 779 1537 759 1514 q 802 1560 787 1546 q 834 1590 818 1575 q 862 1622 850 1606 q 873 1652 873 1638 q 825 1682 873 1682 q 715 1641 764 1682 l 715 1725 q 776 1758 742 1745 q 850 1772 810 1772 q 906 1766 880 1772 q 950 1747 931 1759 q 979 1717 968 1735 q 989 1677 989 1699 q 977 1627 989 1647 q 947 1589 965 1606 q 909 1556 930 1572 q 873 1520 889 1541 q 858 1499 864 1510 q 847 1475 852 1488 q 837 1446 842 1462 q 828 1410 833 1430 l 723 1410 z "},"":{"ha":994,"x_min":-12,"x_max":998,"o":"m 411 382 l 689 382 l 660 825 l 411 382 m 699 238 l 330 238 l 197 0 l -12 0 q 16 42 2 20 q 47 92 31 64 q 86 155 64 119 q 135 238 107 191 l 571 980 l 812 980 l 878 238 q 886 156 882 191 q 893 92 890 120 q 900 42 897 64 q 907 0 903 20 l 715 0 l 699 238 m 275 -230 q 287 -177 275 -202 q 318 -132 298 -151 q 364 -102 338 -113 q 420 -91 390 -91 q 460 -98 442 -91 q 492 -118 479 -105 q 512 -148 505 -130 q 519 -186 519 -165 q 509 -239 519 -214 q 481 -284 499 -264 q 437 -314 463 -303 q 382 -326 412 -326 q 341 -318 360 -326 q 307 -298 321 -311 q 284 -268 292 -286 q 275 -230 275 -250 m 836 1097 l 739 1252 l 565 1097 l 402 1097 l 652 1366 l 855 1366 l 998 1097 l 836 1097 z "},"":{"ha":994,"x_min":-12,"x_max":1045,"o":"m 411 382 l 689 382 l 660 825 l 411 382 m 699 238 l 330 238 l 197 0 l -12 0 q 16 42 2 20 q 47 92 31 64 q 86 155 64 119 q 135 238 107 191 l 571 980 l 812 980 l 878 238 q 886 156 882 191 q 893 92 890 120 q 900 42 897 64 q 907 0 903 20 l 715 0 l 699 238 m 1045 1332 q 1002 1234 1033 1283 q 927 1146 971 1185 q 827 1082 882 1107 q 709 1057 771 1057 q 615 1075 656 1057 q 546 1123 574 1093 q 504 1193 518 1154 q 489 1274 489 1232 q 496 1332 489 1302 l 618 1332 q 618 1324 618 1328 l 618 1316 q 626 1266 618 1289 q 648 1226 633 1243 q 683 1201 662 1210 q 729 1192 703 1192 q 786 1202 758 1192 q 841 1232 815 1213 q 888 1276 867 1251 q 923 1332 909 1301 l 1045 1332 z "},"":{"ha":994,"x_min":-12,"x_max":1162,"o":"m 411 382 l 689 382 l 660 825 l 411 382 m 699 238 l 330 238 l 197 0 l -12 0 q 16 42 2 20 q 47 92 31 64 q 86 155 64 119 q 135 238 107 191 l 571 980 l 812 980 l 878 238 q 886 156 882 191 q 893 92 890 120 q 900 42 897 64 q 907 0 903 20 l 715 0 l 699 238 m 1045 1332 q 1002 1234 1033 1283 q 927 1146 971 1185 q 827 1082 882 1107 q 709 1057 771 1057 q 615 1075 656 1057 q 546 1123 574 1093 q 504 1193 518 1154 q 489 1274 489 1232 q 496 1332 489 1302 l 618 1332 q 618 1324 618 1328 l 618 1316 q 626 1266 618 1289 q 648 1226 633 1243 q 683 1201 662 1210 q 729 1192 703 1192 q 786 1202 758 1192 q 841 1232 815 1213 q 888 1276 867 1251 q 923 1332 909 1301 l 1045 1332 m 1162 1729 l 831 1460 l 669 1460 l 911 1729 l 1162 1729 z "},"":{"ha":994,"x_min":-12,"x_max":1045,"o":"m 411 382 l 689 382 l 660 825 l 411 382 m 699 238 l 330 238 l 197 0 l -12 0 q 16 42 2 20 q 47 92 31 64 q 86 155 64 119 q 135 238 107 191 l 571 980 l 812 980 l 878 238 q 886 156 882 191 q 893 92 890 120 q 900 42 897 64 q 907 0 903 20 l 715 0 l 699 238 m 1045 1332 q 1002 1234 1033 1283 q 927 1146 971 1185 q 827 1082 882 1107 q 709 1057 771 1057 q 615 1075 656 1057 q 546 1123 574 1093 q 504 1193 518 1154 q 489 1274 489 1232 q 496 1332 489 1302 l 618 1332 q 618 1324 618 1328 l 618 1316 q 626 1266 618 1289 q 648 1226 633 1243 q 683 1201 662 1210 q 729 1192 703 1192 q 786 1202 758 1192 q 841 1232 815 1213 q 888 1276 867 1251 q 923 1332 909 1301 l 1045 1332 m 817 1729 l 967 1460 l 811 1460 l 593 1729 l 817 1729 z "},"":{"ha":994,"x_min":-12,"x_max":1088,"o":"m 411 382 l 689 382 l 660 825 l 411 382 m 699 238 l 330 238 l 197 0 l -12 0 q 16 42 2 20 q 47 92 31 64 q 86 155 64 119 q 135 238 107 191 l 571 980 l 812 980 l 878 238 q 886 156 882 191 q 893 92 890 120 q 900 42 897 64 q 907 0 903 20 l 715 0 l 699 238 m 1045 1332 q 1002 1234 1033 1283 q 927 1146 971 1185 q 827 1082 882 1107 q 709 1057 771 1057 q 615 1075 656 1057 q 546 1123 574 1093 q 504 1193 518 1154 q 489 1274 489 1232 q 496 1332 489 1302 l 618 1332 q 618 1324 618 1328 l 618 1316 q 626 1266 618 1289 q 648 1226 633 1243 q 683 1201 662 1210 q 729 1192 703 1192 q 786 1202 758 1192 q 841 1232 815 1213 q 888 1276 867 1251 q 923 1332 909 1301 l 1045 1332 m 496 1453 q 525 1530 507 1493 q 568 1594 543 1567 q 622 1638 592 1622 q 686 1655 652 1655 q 751 1645 719 1655 q 819 1619 783 1634 q 869 1596 850 1607 q 908 1586 889 1586 q 931 1591 920 1586 q 954 1604 943 1596 q 971 1624 964 1613 q 983 1648 979 1635 l 1088 1648 q 1057 1568 1077 1605 q 1011 1504 1038 1531 q 954 1462 985 1477 q 888 1447 922 1447 q 829 1455 856 1447 q 771 1480 803 1464 q 715 1506 740 1495 q 671 1516 691 1516 q 649 1512 660 1516 q 629 1498 638 1507 q 612 1478 619 1490 q 602 1453 605 1467 l 496 1453 z "},"":{"ha":994,"x_min":-12,"x_max":1045,"o":"m 411 382 l 689 382 l 660 825 l 411 382 m 699 238 l 330 238 l 197 0 l -12 0 q 16 42 2 20 q 47 92 31 64 q 86 155 64 119 q 135 238 107 191 l 571 980 l 812 980 l 878 238 q 886 156 882 191 q 893 92 890 120 q 900 42 897 64 q 907 0 903 20 l 715 0 l 699 238 m 1045 1332 q 1002 1234 1033 1283 q 927 1146 971 1185 q 827 1082 882 1107 q 709 1057 771 1057 q 615 1075 656 1057 q 546 1123 574 1093 q 504 1193 518 1154 q 489 1274 489 1232 q 496 1332 489 1302 l 618 1332 q 618 1324 618 1328 l 618 1316 q 626 1266 618 1289 q 648 1226 633 1243 q 683 1201 662 1210 q 729 1192 703 1192 q 786 1202 758 1192 q 841 1232 815 1213 q 888 1276 867 1251 q 923 1332 909 1301 l 1045 1332 m 749 1410 q 773 1483 760 1453 q 805 1537 785 1514 q 829 1560 813 1546 q 860 1590 844 1575 q 888 1622 876 1606 q 900 1652 900 1638 q 851 1682 900 1682 q 741 1641 791 1682 l 741 1725 q 802 1758 768 1745 q 877 1772 836 1772 q 932 1766 907 1772 q 976 1747 958 1759 q 1005 1717 995 1735 q 1016 1677 1016 1699 q 1004 1627 1016 1647 q 974 1589 991 1606 q 936 1556 956 1572 q 899 1520 916 1541 q 884 1499 890 1510 q 873 1475 878 1488 q 864 1446 868 1462 q 854 1410 859 1430 l 749 1410 z "},"":{"ha":994,"x_min":-12,"x_max":1045,"o":"m 411 382 l 689 382 l 660 825 l 411 382 m 699 238 l 330 238 l 197 0 l -12 0 q 16 42 2 20 q 47 92 31 64 q 86 155 64 119 q 135 238 107 191 l 571 980 l 812 980 l 878 238 q 886 156 882 191 q 893 92 890 120 q 900 42 897 64 q 907 0 903 20 l 715 0 l 699 238 m 275 -230 q 287 -177 275 -202 q 318 -132 298 -151 q 364 -102 338 -113 q 420 -91 390 -91 q 460 -98 442 -91 q 492 -118 479 -105 q 512 -148 505 -130 q 519 -186 519 -165 q 509 -239 519 -214 q 481 -284 499 -264 q 437 -314 463 -303 q 382 -326 412 -326 q 341 -318 360 -326 q 307 -298 321 -311 q 284 -268 292 -286 q 275 -230 275 -250 m 1045 1332 q 1002 1234 1033 1283 q 927 1146 971 1185 q 827 1082 882 1107 q 709 1057 771 1057 q 615 1075 656 1057 q 546 1123 574 1093 q 504 1193 518 1154 q 489 1274 489 1232 q 496 1332 489 1302 l 618 1332 q 618 1324 618 1328 l 618 1316 q 626 1266 618 1289 q 648 1226 633 1243 q 683 1201 662 1210 q 729 1192 703 1192 q 786 1202 758 1192 q 841 1232 815 1213 q 888 1276 867 1251 q 923 1332 909 1301 l 1045 1332 z "},"":{"ha":994,"x_min":-12,"x_max":1086,"o":"m 411 382 l 689 382 l 660 825 l 411 382 m 699 238 l 330 238 l 197 0 l -12 0 q 16 42 2 20 q 47 92 31 64 q 86 155 64 119 q 135 238 107 191 l 571 980 l 812 980 l 878 238 q 886 156 882 191 q 893 92 890 120 q 900 42 897 64 q 907 0 903 20 l 715 0 l 699 238 m 1086 1366 l 837 1097 l 633 1097 l 490 1366 l 652 1366 l 750 1211 l 923 1366 l 1086 1366 z "},"":{"ha":994,"x_min":-12,"x_max":1052,"o":"m 411 382 l 689 382 l 660 825 l 411 382 m 699 238 l 330 238 l 197 0 l -12 0 q 16 42 2 20 q 47 92 31 64 q 86 155 64 119 q 135 238 107 191 l 571 980 l 812 980 l 878 238 q 886 156 882 191 q 893 92 890 120 q 900 42 897 64 q 907 0 903 20 l 715 0 l 699 238 m 490 1265 l 1052 1265 l 1017 1124 l 455 1124 l 490 1265 z "},"":{"ha":994,"x_min":-12,"x_max":1135,"o":"m 411 382 l 689 382 l 660 825 l 411 382 m 699 238 l 330 238 l 197 0 l -12 0 q 16 42 2 20 q 47 92 31 64 q 86 155 64 119 q 135 238 107 191 l 571 980 l 812 980 l 878 238 q 886 156 882 191 q 893 92 890 120 q 900 42 897 64 q 907 0 903 20 l 715 0 l 699 238 m 472 1199 q 483 1252 472 1227 q 514 1297 494 1278 q 560 1328 534 1316 q 616 1339 587 1339 q 657 1332 639 1339 q 689 1312 675 1324 q 709 1281 702 1299 q 716 1244 716 1264 q 705 1190 716 1215 q 674 1146 694 1165 q 628 1115 654 1126 q 572 1104 602 1104 q 532 1111 550 1104 q 500 1131 513 1118 q 479 1161 487 1143 q 472 1199 472 1178 m 804 1199 q 815 1252 804 1227 q 846 1296 827 1277 q 892 1327 865 1316 q 948 1339 918 1339 q 989 1332 970 1339 q 1020 1312 1007 1324 q 1041 1281 1034 1299 q 1048 1244 1048 1264 q 1037 1191 1048 1216 q 1006 1146 1025 1165 q 960 1115 987 1126 q 904 1104 934 1104 q 864 1111 882 1104 q 832 1131 846 1118 q 812 1161 819 1143 q 804 1199 804 1178 m 572 1594 l 1135 1594 l 1100 1453 l 538 1453 l 572 1594 z "},"":{"ha":994,"x_min":-12,"x_max":907,"o":"m 411 382 l 689 382 l 660 825 l 411 382 m 699 238 l 330 238 l 197 0 l -12 0 q 16 42 2 20 q 47 92 31 64 q 86 155 64 119 q 135 238 107 191 l 571 980 l 812 980 l 878 238 q 886 156 882 191 q 893 92 890 120 q 900 42 897 64 q 907 0 903 20 l 715 0 l 699 238 m 625 1199 q 636 1252 625 1227 q 667 1297 648 1278 q 713 1328 687 1316 q 769 1339 739 1339 q 810 1332 791 1339 q 841 1312 828 1324 q 862 1281 854 1299 q 869 1243 869 1263 q 858 1190 869 1215 q 827 1145 846 1164 q 781 1115 807 1126 q 724 1103 755 1103 q 684 1111 703 1103 q 653 1131 666 1118 q 632 1161 640 1143 q 625 1199 625 1179 z "},"":{"ha":994,"x_min":-12,"x_max":1105,"o":"m 411 382 l 689 382 l 660 825 l 411 382 m 699 238 l 330 238 l 197 0 l -12 0 q 16 42 2 20 q 47 92 31 64 q 86 155 64 119 q 135 238 107 191 l 571 980 l 812 980 l 878 238 q 886 156 882 191 q 893 92 890 120 q 900 42 897 64 q 907 0 903 20 l 715 0 l 699 238 m 625 1199 q 636 1252 625 1227 q 667 1297 648 1278 q 713 1328 687 1316 q 769 1339 739 1339 q 810 1332 791 1339 q 841 1312 828 1324 q 862 1281 854 1299 q 869 1243 869 1263 q 858 1190 869 1215 q 827 1145 846 1164 q 781 1115 807 1126 q 724 1103 755 1103 q 684 1111 703 1103 q 653 1131 666 1118 q 632 1161 640 1143 q 625 1199 625 1179 m 543 1573 l 1105 1573 l 1071 1433 l 509 1433 l 543 1573 z "},"":{"ha":994,"x_min":-12,"x_max":1166,"o":"m 411 382 l 689 382 l 660 825 l 411 382 m 699 238 l 330 238 l 197 0 l -12 0 q 16 42 2 20 q 47 92 31 64 q 86 155 64 119 q 135 238 107 191 l 571 980 l 812 980 l 878 238 q 886 156 882 191 q 893 92 890 120 q 900 42 897 64 q 907 0 903 20 l 715 0 l 699 238 m 551 1206 q 567 1279 551 1244 q 609 1338 583 1313 q 672 1378 636 1364 q 749 1393 709 1393 q 806 1382 780 1393 q 852 1353 833 1371 q 883 1310 872 1335 q 895 1257 895 1285 q 879 1184 895 1219 q 837 1125 863 1150 q 773 1085 810 1099 q 696 1070 737 1070 q 640 1081 666 1070 q 593 1110 613 1092 q 563 1153 574 1128 q 551 1206 551 1178 m 714 1168 q 742 1173 728 1168 q 766 1187 755 1178 q 783 1210 777 1197 q 789 1240 789 1223 q 773 1279 789 1263 q 732 1295 757 1295 q 705 1290 719 1295 q 681 1276 692 1285 q 664 1254 670 1267 q 657 1224 657 1240 q 673 1184 657 1201 q 714 1168 690 1168 m 1166 1729 l 836 1460 l 673 1460 l 916 1729 l 1166 1729 z "},"":{"ha":994,"x_min":-12,"x_max":928,"o":"m 411 382 l 689 382 l 660 825 l 411 382 m 699 238 l 330 238 l 197 0 l -12 0 q 16 42 2 20 q 47 92 31 64 q 86 155 64 119 q 135 238 107 191 l 571 980 l 812 980 l 878 238 q 886 156 882 191 q 893 92 890 120 q 900 42 897 64 q 907 0 903 20 l 715 0 l 699 238 m 661 1047 q 685 1121 672 1090 q 717 1175 697 1152 q 741 1198 725 1183 q 772 1227 756 1212 q 800 1259 788 1243 q 812 1289 812 1276 q 763 1319 812 1319 q 653 1278 703 1319 l 653 1362 q 714 1396 680 1382 q 789 1409 748 1409 q 844 1403 819 1409 q 888 1384 869 1396 q 917 1354 907 1372 q 928 1314 928 1337 q 916 1264 928 1284 q 886 1226 903 1243 q 848 1194 868 1209 q 811 1158 827 1178 q 796 1136 802 1147 q 785 1112 790 1125 q 775 1083 780 1099 q 766 1047 771 1067 l 661 1047 z "},"":{"ha":994,"x_min":-12,"x_max":907,"o":"m 411 382 l 689 382 l 660 825 l 411 382 m 699 238 l 330 238 l 197 0 l -12 0 q 16 42 2 20 q 47 92 31 64 q 86 155 64 119 q 135 238 107 191 l 571 980 l 812 980 l 878 238 q 886 156 882 191 q 893 92 890 120 q 900 42 897 64 q 907 0 903 20 l 715 0 l 699 238 m 275 -230 q 287 -177 275 -202 q 318 -132 298 -151 q 364 -102 338 -113 q 420 -91 390 -91 q 460 -98 442 -91 q 492 -118 479 -105 q 512 -148 505 -130 q 519 -186 519 -165 q 509 -239 519 -214 q 481 -284 499 -264 q 437 -314 463 -303 q 382 -326 412 -326 q 341 -318 360 -326 q 307 -298 321 -311 q 284 -268 292 -286 q 275 -230 275 -250 z "},"":{"ha":1225,"x_min":-47,"x_max":1347,"o":"m 762 826 l 443 382 l 650 382 l 762 826 m 857 436 l 787 155 l 894 155 q 1057 156 991 155 q 1164 165 1122 157 l 1123 0 l 545 0 q 556 28 550 12 q 569 71 562 44 q 588 138 577 98 q 614 238 598 178 l 339 238 l 168 0 l -47 0 q -13 42 -31 20 q 27 92 5 64 q 76 155 49 119 q 138 238 102 191 l 689 980 l 1347 980 l 1308 826 l 954 826 l 895 587 l 1198 587 l 1160 436 l 857 436 m 1262 1366 l 932 1097 l 769 1097 l 1012 1366 l 1262 1366 z "},"":{"ha":1225,"x_min":-47,"x_max":1347,"o":"m 762 826 l 443 382 l 650 382 l 762 826 m 857 436 l 787 155 l 894 155 q 1057 156 991 155 q 1164 165 1122 157 l 1123 0 l 545 0 q 556 28 550 12 q 569 71 562 44 q 588 138 577 98 q 614 238 598 178 l 339 238 l 168 0 l -47 0 q -13 42 -31 20 q 27 92 5 64 q 76 155 49 119 q 138 238 102 191 l 689 980 l 1347 980 l 1308 826 l 954 826 l 895 587 l 1198 587 l 1160 436 l 857 436 m 678 1265 l 1240 1265 l 1206 1124 l 644 1124 l 678 1265 z "},"":{"ha":833,"x_min":75,"x_max":833,"o":"m 588 887 q 600 940 588 915 q 631 985 611 966 q 676 1016 650 1004 q 732 1027 703 1027 q 773 1020 755 1027 q 805 1000 791 1013 q 825 969 818 987 q 832 931 832 951 q 821 878 832 903 q 790 833 810 852 q 744 803 770 814 q 688 791 718 791 q 648 799 666 791 q 616 819 629 806 q 595 849 603 831 q 588 887 588 867 m 492 1075 q 487 1006 492 1046 q 475 921 483 966 q 458 830 467 876 q 438 743 448 783 l 381 513 q 446 585 412 551 q 514 644 479 618 q 588 684 550 669 q 668 699 627 699 q 790 637 746 699 q 833 456 833 576 q 820 344 833 400 q 782 237 807 288 q 721 140 757 185 q 639 62 684 96 q 530 4 589 25 q 402 -17 471 -17 q 310 -12 353 -17 q 225 1 266 -7 q 148 20 185 9 q 75 43 111 31 l 249 743 q 268 823 258 780 q 285 909 277 865 q 297 995 292 953 q 302 1075 302 1038 l 492 1075 m 294 161 q 361 135 329 143 q 428 127 393 127 q 497 143 465 127 q 558 186 530 159 q 619 281 596 225 q 642 400 642 336 q 637 454 642 429 q 623 496 632 478 q 598 524 613 514 q 562 534 583 534 q 505 513 536 534 q 443 458 474 492 q 381 381 411 425 q 327 293 351 338 l 294 161 z "},"":{"ha":833,"x_min":25,"x_max":833,"o":"m 492 1075 q 487 1006 492 1046 q 475 921 483 966 q 458 830 467 876 q 438 743 448 783 l 381 513 q 446 585 412 551 q 514 644 479 618 q 588 684 550 669 q 668 699 627 699 q 790 637 746 699 q 833 456 833 576 q 820 344 833 400 q 782 237 807 288 q 721 140 757 185 q 639 62 684 96 q 530 4 589 25 q 402 -17 471 -17 q 310 -12 353 -17 q 225 1 266 -7 q 148 20 185 9 q 75 43 111 31 l 249 743 q 268 823 258 780 q 285 909 277 865 q 297 995 292 953 q 302 1075 302 1038 l 492 1075 m 294 161 q 361 135 329 143 q 428 127 393 127 q 497 143 465 127 q 558 186 530 159 q 619 281 596 225 q 642 400 642 336 q 637 454 642 429 q 623 496 632 478 q 598 524 613 514 q 562 534 583 534 q 505 513 536 534 q 443 458 474 492 q 381 381 411 425 q 327 293 351 338 l 294 161 m 60 -114 l 623 -114 l 587 -255 l 25 -255 l 60 -114 z "},"":{"ha":833,"x_min":75,"x_max":833,"o":"m 492 1075 q 487 1006 492 1046 q 475 921 483 966 q 458 830 467 876 q 438 743 448 783 l 381 513 q 446 585 412 551 q 514 644 479 618 q 588 684 550 669 q 668 699 627 699 q 790 637 746 699 q 833 456 833 576 q 820 344 833 400 q 782 237 807 288 q 721 140 757 185 q 639 62 684 96 q 530 4 589 25 q 402 -17 471 -17 q 310 -12 353 -17 q 225 1 266 -7 q 148 20 185 9 q 75 43 111 31 l 249 743 q 268 823 258 780 q 285 909 277 865 q 297 995 292 953 q 302 1075 302 1038 l 492 1075 m 294 161 q 361 135 329 143 q 428 127 393 127 q 497 143 465 127 q 558 186 530 159 q 619 281 596 225 q 642 400 642 336 q 637 454 642 429 q 623 496 632 478 q 598 524 613 514 q 562 534 583 534 q 505 513 536 534 q 443 458 474 492 q 381 381 411 425 q 327 293 351 338 l 294 161 m 193 -230 q 204 -177 193 -202 q 235 -132 216 -151 q 281 -102 255 -113 q 337 -91 307 -91 q 378 -98 359 -91 q 409 -118 396 -105 q 430 -148 422 -130 q 437 -186 437 -165 q 427 -239 437 -214 q 398 -284 416 -264 q 355 -314 380 -303 q 299 -326 330 -326 q 258 -318 277 -326 q 224 -298 239 -311 q 201 -268 210 -286 q 193 -230 193 -250 z "},"":{"ha":800,"x_min":52,"x_max":868,"o":"m 271 161 q 338 135 306 143 q 405 127 370 127 q 474 143 441 127 q 535 186 507 159 q 596 281 573 225 q 618 400 618 336 q 614 454 618 429 q 600 496 609 478 q 575 524 590 514 q 539 534 560 534 q 482 513 513 534 q 419 458 451 492 q 358 381 388 425 q 304 293 328 338 l 271 161 m 767 876 q 699 912 735 902 q 620 923 663 923 q 545 909 578 923 q 487 873 512 896 q 444 819 461 850 q 418 752 427 787 l 358 513 q 423 585 389 551 q 493 644 457 619 q 568 684 530 669 q 645 699 606 699 q 767 637 723 699 q 810 456 810 576 q 797 344 810 400 q 759 237 784 288 q 697 140 734 185 q 616 62 661 96 q 507 4 566 25 q 379 -17 448 -17 q 287 -12 330 -17 q 202 1 243 -7 q 125 20 162 9 q 52 43 87 31 l 224 739 q 281 879 243 815 q 375 990 319 943 q 505 1062 431 1036 q 671 1088 578 1088 q 771 1075 719 1088 q 868 1029 823 1063 l 767 876 z "},"":{"ha":927,"x_min":61,"x_max":941,"o":"m 301 148 q 325 146 309 147 q 362 145 341 146 q 408 145 383 145 q 458 144 432 144 q 552 155 509 144 q 626 187 595 165 q 674 241 657 208 q 691 317 691 273 q 645 407 691 373 q 505 441 598 441 l 374 441 l 301 148 m 238 671 q 262 767 250 720 q 282 854 273 814 q 298 927 292 895 q 305 980 304 960 q 433 985 356 983 q 608 987 509 987 q 742 975 680 987 q 847 937 803 962 q 916 873 891 911 q 941 783 941 835 q 925 693 941 732 q 880 624 909 654 q 812 573 852 594 q 727 537 773 551 q 784 513 756 529 q 833 474 812 498 q 867 419 854 451 q 880 345 880 387 q 850 203 880 268 q 759 92 819 139 q 610 19 699 45 q 406 -7 522 -7 q 293 -6 347 -7 q 193 -4 238 -5 q 113 -2 147 -3 q 61 0 79 -1 q 80 52 70 20 q 100 123 90 83 q 123 209 111 163 q 147 305 135 255 l 238 671 m 410 587 l 522 587 q 612 596 571 587 q 683 623 653 604 q 730 669 713 641 q 747 737 747 698 q 706 812 747 784 q 583 841 665 841 q 520 840 548 841 q 473 838 492 839 l 410 587 m 583 1199 q 594 1252 583 1227 q 625 1297 606 1278 q 671 1328 645 1316 q 727 1339 697 1339 q 768 1332 749 1339 q 799 1312 786 1324 q 820 1281 812 1299 q 827 1243 827 1263 q 815 1190 827 1215 q 785 1145 804 1164 q 739 1115 765 1126 q 682 1103 713 1103 q 642 1111 661 1103 q 611 1131 624 1118 q 590 1161 597 1143 q 583 1199 583 1179 z "},"":{"ha":927,"x_min":61,"x_max":941,"o":"m 301 148 q 325 146 309 147 q 362 145 341 146 q 408 145 383 145 q 458 144 432 144 q 552 155 509 144 q 626 187 595 165 q 674 241 657 208 q 691 317 691 273 q 645 407 691 373 q 505 441 598 441 l 374 441 l 301 148 m 238 671 q 262 767 250 720 q 282 854 273 814 q 298 927 292 895 q 305 980 304 960 q 433 985 356 983 q 608 987 509 987 q 742 975 680 987 q 847 937 803 962 q 916 873 891 911 q 941 783 941 835 q 925 693 941 732 q 880 624 909 654 q 812 573 852 594 q 727 537 773 551 q 784 513 756 529 q 833 474 812 498 q 867 419 854 451 q 880 345 880 387 q 850 203 880 268 q 759 92 819 139 q 610 19 699 45 q 406 -7 522 -7 q 293 -6 347 -7 q 193 -4 238 -5 q 113 -2 147 -3 q 61 0 79 -1 q 80 52 70 20 q 100 123 90 83 q 123 209 111 163 q 147 305 135 255 l 238 671 m 410 587 l 522 587 q 612 596 571 587 q 683 623 653 604 q 730 669 713 641 q 747 737 747 698 q 706 812 747 784 q 583 841 665 841 q 520 840 548 841 q 473 838 492 839 l 410 587 m 101 -114 l 663 -114 l 628 -255 l 66 -255 l 101 -114 z "},"":{"ha":927,"x_min":61,"x_max":941,"o":"m 301 148 q 325 146 309 147 q 362 145 341 146 q 408 145 383 145 q 458 144 432 144 q 552 155 509 144 q 626 187 595 165 q 674 241 657 208 q 691 317 691 273 q 645 407 691 373 q 505 441 598 441 l 374 441 l 301 148 m 238 671 q 262 767 250 720 q 282 854 273 814 q 298 927 292 895 q 305 980 304 960 q 433 985 356 983 q 608 987 509 987 q 742 975 680 987 q 847 937 803 962 q 916 873 891 911 q 941 783 941 835 q 925 693 941 732 q 880 624 909 654 q 812 573 852 594 q 727 537 773 551 q 784 513 756 529 q 833 474 812 498 q 867 419 854 451 q 880 345 880 387 q 850 203 880 268 q 759 92 819 139 q 610 19 699 45 q 406 -7 522 -7 q 293 -6 347 -7 q 193 -4 238 -5 q 113 -2 147 -3 q 61 0 79 -1 q 80 52 70 20 q 100 123 90 83 q 123 209 111 163 q 147 305 135 255 l 238 671 m 410 587 l 522 587 q 612 596 571 587 q 683 623 653 604 q 730 669 713 641 q 747 737 747 698 q 706 812 747 784 q 583 841 665 841 q 520 840 548 841 q 473 838 492 839 l 410 587 m 233 -230 q 245 -177 233 -202 q 276 -132 256 -151 q 322 -102 296 -113 q 378 -91 348 -91 q 418 -98 400 -91 q 450 -118 437 -105 q 470 -148 463 -130 q 477 -186 477 -165 q 467 -239 477 -214 q 439 -284 457 -264 q 395 -314 420 -303 q 340 -326 370 -326 q 299 -318 318 -326 q 265 -298 279 -311 q 242 -268 250 -286 q 233 -230 233 -250 z "},"":{"ha":1178,"x_min":127,"x_max":1192,"o":"m 725 842 l 662 587 l 767 587 q 860 595 817 587 q 934 621 903 603 q 983 668 965 639 q 1001 739 1001 697 q 954 815 1001 788 q 818 842 907 842 l 725 842 m 553 148 q 604 145 569 146 q 689 144 638 144 q 781 151 735 144 q 863 176 827 157 q 922 229 899 195 q 944 318 944 263 q 897 407 944 373 q 757 441 850 441 l 626 441 l 553 148 m 135 538 q 129 573 131 551 q 127 619 127 595 q 129 670 127 645 q 136 713 132 695 q 197 842 156 790 q 297 927 238 895 q 433 973 357 959 q 597 987 509 987 l 873 987 q 1004 974 945 987 q 1104 936 1063 961 q 1169 872 1146 910 q 1192 782 1192 833 q 1177 691 1192 730 q 1133 624 1161 653 q 1065 575 1105 595 q 979 537 1026 554 q 1035 512 1008 529 q 1083 469 1062 494 q 1116 408 1103 443 q 1128 331 1128 374 q 1108 216 1128 266 q 1054 128 1088 165 q 972 65 1019 91 q 871 23 925 39 q 756 0 817 7 q 637 -7 696 -7 q 520 -6 578 -7 q 416 -3 463 -5 q 313 0 362 -2 q 331 52 321 20 q 352 123 341 83 q 375 209 363 163 q 399 305 387 255 l 532 842 l 528 842 q 452 834 488 842 q 385 810 415 826 q 333 768 355 793 q 302 707 311 743 q 295 670 297 687 q 294 637 294 652 q 296 602 294 618 q 303 570 298 585 l 135 538 z "},"":{"ha":691,"x_min":102,"x_max":895,"o":"m 673 488 q 636 514 654 504 q 600 532 618 525 q 559 541 581 538 q 511 544 538 544 q 428 526 469 544 q 355 475 387 509 q 303 393 323 441 q 283 282 283 345 q 292 227 283 253 q 320 181 302 201 q 365 149 338 161 q 424 138 391 138 q 485 142 457 138 q 538 156 513 146 q 587 179 564 165 q 635 211 611 193 l 629 47 q 522 0 582 17 q 386 -17 462 -17 q 276 3 328 -17 q 186 59 224 22 q 124 147 147 96 q 102 262 102 199 q 137 441 102 360 q 232 579 172 522 q 371 667 292 636 q 540 699 451 699 q 660 684 608 699 q 745 650 713 670 l 673 488 m 895 1074 l 564 806 l 401 806 l 644 1074 l 895 1074 z "},"":{"ha":691,"x_min":102,"x_max":819,"o":"m 673 488 q 636 514 654 504 q 600 532 618 525 q 559 541 581 538 q 511 544 538 544 q 428 526 469 544 q 355 475 387 509 q 303 393 323 441 q 283 282 283 345 q 292 227 283 253 q 320 181 302 201 q 365 149 338 161 q 424 138 391 138 q 485 142 457 138 q 538 156 513 146 q 587 179 564 165 q 635 211 611 193 l 629 47 q 522 0 582 17 q 386 -17 462 -17 q 276 3 328 -17 q 186 59 224 22 q 124 147 147 96 q 102 262 102 199 q 137 441 102 360 q 232 579 172 522 q 371 667 292 636 q 540 699 451 699 q 660 684 608 699 q 745 650 713 670 l 673 488 m 657 806 l 560 960 l 386 806 l 223 806 l 473 1074 l 676 1074 l 819 806 l 657 806 z "},"":{"ha":691,"x_min":102,"x_max":907,"o":"m 673 488 q 636 514 654 504 q 600 532 618 525 q 559 541 581 538 q 511 544 538 544 q 428 526 469 544 q 355 475 387 509 q 303 393 323 441 q 283 282 283 345 q 292 227 283 253 q 320 181 302 201 q 365 149 338 161 q 424 138 391 138 q 485 142 457 138 q 538 156 513 146 q 587 179 564 165 q 635 211 611 193 l 629 47 q 522 0 582 17 q 386 -17 462 -17 q 276 3 328 -17 q 186 59 224 22 q 124 147 147 96 q 102 262 102 199 q 137 441 102 360 q 232 579 172 522 q 371 667 292 636 q 540 699 451 699 q 660 684 608 699 q 745 650 713 670 l 673 488 m 907 1074 l 658 806 l 454 806 l 311 1074 l 473 1074 l 571 920 l 744 1074 l 907 1074 z "}}}
